M48
;DRILL file {KiCad (2016-09-03 BZR 7112, Git 24f6c4b)-product} date Mon Sep  5 18:10:32 2016
;FORMAT={-:-/ absolute / inch / decimal}
FMAT,2
INCH,TZ
T1C0.008
T2C0.016
T3C0.020
T4C0.022
T5C0.028
T6C0.031
T7C0.035
T8C0.037
T9C0.039
T10C0.039
T11C0.040
T12C0.120
T13C0.138
%
G90
G05
M72
T1
X0.1575Y-5.2953
X0.187Y-5.2953
X0.2067Y-5.1575
X0.4134Y-5.4331
X0.4134Y-5.4528
X0.4921Y-0.2165
X0.4921Y-0.2559
X0.4921Y-0.374
X0.4921Y-0.4134
X0.5118Y-0.2362
X0.5118Y-0.3937
X0.5315Y-0.2165
X0.5315Y-0.2559
X0.5315Y-0.374
X0.5315Y-0.4134
X0.5512Y-0.2362
X0.5512Y-0.3937
X0.5709Y-0.2165
X0.5709Y-0.2559
X0.5709Y-0.374
X0.5709Y-0.4134
X0.5906Y-0.2362
X0.5906Y-0.3937
X0.5906Y-2.4606
X0.6004Y-1.0236
X0.6102Y-0.2165
X0.6102Y-0.2559
X0.6102Y-0.374
X0.6102Y-0.4134
X0.6299Y-0.2362
X0.6299Y-0.3937
X0.6496Y-0.2165
X0.6496Y-0.2559
X0.6496Y-0.374
X0.6496Y-0.4134
X0.6594Y-1.0039
X0.6791Y-0.9843
X0.6988Y-0.8661
X0.7283Y-3.1102
X1.0709Y-3.1171
X1.1969Y-1.9528
X1.1969Y-1.999
X1.1969Y-2.0236
X1.1969Y-2.0699
X1.1969Y-2.0945
X1.1969Y-2.1407
X1.1969Y-2.1654
X1.1969Y-2.2116
X1.1969Y-2.2362
X1.1969Y-2.3071
X1.1969Y-2.3533
X1.2008Y-0.9744
X1.2008Y-1.0039
X1.2008Y-2.4114
X1.2008Y-2.4409
X1.2008Y-2.4656
X1.2008Y-2.5
X1.2008Y-2.6329
X1.2008Y-2.6575
X1.2008Y-2.7116
X1.2008Y-2.7362
X1.2008Y-2.7756
X1.2008Y-2.8051
X1.2008Y-2.8494
X1.2008Y-2.874
X1.2008Y-2.9232
X1.2008Y-2.9675
X1.2008Y-2.9921
X1.2008Y-3.0364
X1.2008Y-3.061
X1.2008Y-3.1299
X1.2008Y-3.1841
X1.2008Y-3.2087
X1.2008Y-3.248
X1.2008Y-3.2776
X1.2008Y-3.3219
X1.2008Y-3.3465
X1.2008Y-3.3908
X1.2008Y-3.4154
X1.2009Y-2.2828
X1.2024Y-2.3803
X1.2205Y-1.0236
X1.2283Y-1.4793
X1.2283Y-1.5039
X1.2283Y-1.5502
X1.2283Y-1.5748
X1.2283Y-1.6457
X1.2301Y-1.6154
X1.2303Y-1.0728
X1.2303Y-1.1024
X1.2303Y-1.1713
X1.2303Y-1.2402
X1.2303Y-1.2894
X1.2303Y-1.3189
X1.2303Y-1.3583
X1.2303Y-1.4075
X1.2303Y-1.437
X1.2303Y-1.6929
X1.2303Y-1.7224
X1.2303Y-1.7618
X1.2303Y-1.8061
X1.2303Y-1.8307
X1.2307Y-1.142
X1.2316Y-1.2113
X1.3287Y-0.561
X1.3484Y-0.5807
X1.3681Y-0.6004
X1.3878Y-0.6201
X1.3972Y-2.3695
X1.3976Y-1.0138
X1.3976Y-2.2244
X1.3976Y-2.2513
X1.3977Y-2.3941
X1.4016Y-1.936
X1.4016Y-1.9606
X1.4016Y-2.0079
X1.4016Y-2.0394
X1.4016Y-2.0699
X1.4016Y-2.0945
X1.4016Y-2.1486
X1.4016Y-2.1732
X1.4016Y-2.2904
X1.4016Y-2.315
X1.4075Y-0.6398
X1.4272Y-0.6594
X1.4469Y-0.6791
X1.5157Y-4.4193
X1.5197Y-1.3455
X1.5197Y-1.3701
X1.524Y-2.5118
X1.5256Y-1.0915
X1.5256Y-1.2003
X1.5256Y-1.2249
X1.5256Y-1.2746
X1.5256Y-1.2992
X1.5256Y-1.747
X1.5256Y-1.7717
X1.5256Y-1.8159
X1.5256Y-1.8406
X1.5256Y-2.4606
X1.5256Y-2.6427
X1.5256Y-2.6673
X1.5256Y-2.7165
X1.5256Y-2.7805
X1.5256Y-2.8051
X1.5256Y-2.8346
X1.5256Y-2.8592
X1.5256Y-2.9085
X1.5256Y-2.9331
X1.5256Y-2.9823
X1.5256Y-3.0118
X1.5256Y-3.0463
X1.5256Y-3.0709
X1.5256Y-3.1152
X1.5256Y-3.1398
X1.5256Y-3.1767
X1.5256Y-3.2013
X1.5256Y-3.2579
X1.5256Y-3.2825
X1.5256Y-3.3366
X1.5256Y-3.376
X1.5256Y-3.4055
X1.5276Y-1.4409
X1.5276Y-1.4882
X1.5276Y-1.6053
X1.5276Y-1.6299
X1.5276Y-1.6772
X1.5276Y-1.7018
X1.5354Y-4.439
X1.5379Y-4.3996
X1.5433Y-1.4173
X1.5441Y-1.5108
X1.5491Y-1.1046
X1.5512Y-1.5591
X1.5551Y-0.7283
X1.565Y-1.1614
X1.565Y-3.7008
X1.565Y-3.7303
X1.5669Y-0.6299
X1.5945Y-3.5433
X1.5945Y-3.563
X1.5945Y-3.7008
X1.5945Y-3.7303
X1.6043Y-0.876
X1.6142Y-1.0433
X1.6339Y-3.6319
X1.6486Y-3.75
X1.6526Y-0.7874
X1.6535Y-0.5748
X1.6693Y-0.6063
X1.6732Y-0.8858
X1.6732Y-0.9154
X1.6732Y-3.622
X1.6732Y-3.6713
X1.6732Y-3.75
X1.7008Y-0.7874
X1.7126Y-0.8858
X1.7126Y-0.9154
X1.752Y-7.0079
X1.752Y-7.6378
X1.7559Y-0.9213
X1.7717Y-5.6693
X1.7805Y-0.9213
X1.7913Y-3.6311
X1.7913Y-3.6704
X1.7913Y-4.2126
X1.7913Y-4.3307
X1.7913Y-4.3602
X1.7913Y-4.4882
X1.7953Y-0.5748
X1.7963Y-5.6693
X1.8012Y-0.8858
X1.8031Y-0.6063
X1.8042Y-0.9145
X1.811Y-3.6508
X1.811Y-3.9075
X1.811Y-3.937
X1.811Y-3.9764
X1.811Y-4.0157
X1.811Y-4.0945
X1.811Y-4.1339
X1.811Y-4.1732
X1.811Y-4.5866
X1.8307Y-0.8937
X1.8307Y-0.9173
X1.8307Y-3.6311
X1.8307Y-3.6704
X1.8406Y-4.4685
X1.8504Y-3.937
X1.8504Y-3.9764
X1.8504Y-4.0157
X1.8504Y-4.0945
X1.8504Y-4.1339
X1.8504Y-4.1732
X1.8504Y-5.0394
X1.8799Y-4.4685
X1.8898Y-3.937
X1.8898Y-3.9764
X1.8898Y-4.0157
X1.8898Y-4.0945
X1.8898Y-4.1339
X1.8898Y-4.1732
X1.8996Y-3.7402
X1.9094Y-4.2362
X1.9193Y-0.6594
X1.9193Y-4.7047
X1.9213Y-4.5748
X1.9291Y-0.5748
X1.9291Y-0.7382
X1.9291Y-0.9449
X1.939Y-4.5571
X1.9449Y-0.6063
X1.9488Y-4.4291
X1.9488Y-4.9213
X1.9587Y-3.7008
X1.9587Y-3.7205
X1.9587Y-3.7402
X1.9685Y-3.7697
X1.9685Y-3.7894
X1.9882Y-4.8819
X1.9882Y-5.0197
X1.998Y-3.7697
X1.998Y-3.7894
X2.0079Y-4.252
X2.0118Y-4.7598
X2.0276Y-3.6319
X2.0374Y-0.2165
X2.0472Y-3.937
X2.0472Y-3.9764
X2.0472Y-4.0551
X2.0472Y-4.1339
X2.0472Y-4.2126
X2.0472Y-4.252
X2.0472Y-4.2913
X2.0472Y-4.4094
X2.0472Y-4.4882
X2.0472Y-4.5669
X2.0472Y-4.6457
X2.0472Y-4.685
X2.0571Y-3.7598
X2.0669Y-3.6713
X2.0669Y-3.878
X2.0709Y-0.5748
X2.0768Y-0.3445
X2.0768Y-0.374
X2.0796Y-0.8366
X2.0866Y-4.2913
X2.0866Y-4.7244
X2.0965Y-3.7205
X2.1063Y-3.6319
X2.1063Y-4.8622
X2.1161Y-5.3346
X2.1161Y-5.374
X2.1181Y-0.8346
X2.126Y-0.2461
X2.126Y-3.937
X2.126Y-3.9764
X2.126Y-4.0551
X2.126Y-4.1339
X2.126Y-4.5276
X2.126Y-4.6457
X2.126Y-7.5394
X2.1457Y-5.3051
X2.1457Y-5.4035
X2.1506Y-0.8346
X2.1654Y-0.4823
X2.1654Y-3.9764
X2.1654Y-4.0157
X2.1654Y-4.0945
X2.1654Y-4.1732
X2.1654Y-4.252
X2.1654Y-4.3701
X2.1654Y-4.4488
X2.1654Y-4.5276
X2.1654Y-4.685
X2.1752Y-0.3346
X2.185Y-0.8346
X2.1949Y-4.872
X2.1949Y-4.9114
X2.2047Y-3.937
X2.2047Y-3.9764
X2.2047Y-4.0157
X2.2047Y-4.0551
X2.2047Y-4.1339
X2.2047Y-4.2913
X2.2047Y-4.3701
X2.2047Y-4.4882
X2.2047Y-4.6063
X2.2047Y-5.7579
X2.2047Y-5.9941
X2.2126Y-0.8346
X2.2146Y-4.8917
X2.2146Y-4.9311
X2.2343Y-0.128
X2.2371Y-0.8366
X2.2441Y-3.9764
X2.2441Y-4.0157
X2.2441Y-4.0945
X2.2441Y-4.2126
X2.2441Y-4.3307
X2.2441Y-4.4094
X2.2441Y-4.6457
X2.2441Y-4.685
X2.2539Y-0.2461
X2.2539Y-0.6299
X2.2638Y-0.4724
X2.2795Y-0.8366
X2.2835Y-3.937
X2.2835Y-3.9764
X2.2835Y-4.0551
X2.2835Y-4.0945
X2.2835Y-4.252
X2.2835Y-4.3701
X2.2835Y-4.4488
X2.2835Y-4.6063
X2.2835Y-4.6457
X2.2835Y-5.7677
X2.2835Y-5.9941
X2.2843Y-0.3819
X2.3228Y-0.8366
X2.3228Y-4.2126
X2.3228Y-4.252
X2.3228Y-4.2913
X2.3228Y-4.3701
X2.3228Y-4.4094
X2.3228Y-4.4488
X2.3228Y-4.6457
X2.3228Y-4.685
X2.3524Y-0.0689
X2.3524Y-0.128
X2.3524Y-0.1575
X2.3599Y-0.3815
X2.3622Y-3.937
X2.3622Y-3.9764
X2.3622Y-4.0551
X2.3622Y-4.1732
X2.3622Y-4.2126
X2.3622Y-4.252
X2.3622Y-4.2913
X2.3622Y-4.3701
X2.3622Y-4.4094
X2.3622Y-4.4488
X2.3622Y-4.4882
X2.3622Y-4.5669
X2.3622Y-4.6457
X2.3622Y-5.7677
X2.3622Y-5.9941
X2.372Y-0.8366
X2.3819Y-0.0689
X2.3819Y-0.128
X2.3917Y-0.3937
X2.3917Y-0.4232
X2.4016Y-0.4724
X2.4016Y-4.0157
X2.4016Y-4.0551
X2.4016Y-4.1732
X2.4016Y-4.2126
X2.4016Y-4.252
X2.4016Y-4.2913
X2.4016Y-4.3701
X2.4016Y-4.4094
X2.4016Y-4.4488
X2.4016Y-4.4882
X2.4016Y-4.6063
X2.4016Y-4.685
X2.4409Y-4.7244
X2.4409Y-5.7677
X2.4409Y-5.9941
X2.4409Y-3.9764
X2.4508Y-0.8366
X2.4803Y-0.2559
X2.4803Y-3.937
X2.4803Y-3.9764
X2.4803Y-4.0157
X2.4803Y-4.0551
X2.4803Y-4.1339
X2.4803Y-4.1732
X2.4803Y-4.2126
X2.4803Y-4.252
X2.4803Y-4.2913
X2.4803Y-4.3701
X2.4803Y-4.4094
X2.4803Y-4.4488
X2.4803Y-4.4882
X2.4803Y-4.5276
X2.4803Y-4.6063
X2.5Y-0.4232
X2.5Y-0.5709
X2.5197Y-4.0157
X2.5197Y-4.0551
X2.5197Y-4.2126
X2.5197Y-4.252
X2.5197Y-4.2913
X2.5197Y-4.3701
X2.5197Y-4.4094
X2.5197Y-4.4488
X2.5197Y-4.4882
X2.5197Y-4.6457
X2.5197Y-4.685
X2.5197Y-5.7677
X2.5197Y-5.9941
X2.5295Y-0.502
X2.5484Y-2.6815
X2.5512Y-0.3444
X2.5591Y-1.9173
X2.5591Y-3.937
X2.5591Y-3.9764
X2.5591Y-4.0157
X2.5591Y-4.0551
X2.5591Y-4.1732
X2.5591Y-4.2126
X2.5591Y-4.252
X2.5591Y-4.2913
X2.5591Y-4.3701
X2.5591Y-4.4094
X2.5591Y-4.4488
X2.5591Y-4.4882
X2.5591Y-4.6063
X2.5591Y-4.6457
X2.5591Y-7.5394
X2.5735Y-0.3242
X2.5886Y-0.4134
X2.5886Y-1.9882
X2.5906Y-0.3735
X2.5945Y-1.8529
X2.5984Y-3.9764
X2.5984Y-4.0157
X2.5984Y-4.1339
X2.5984Y-4.2126
X2.5984Y-4.4882
X2.5984Y-4.6457
X2.5984Y-4.685
X2.5984Y-5.9941
X2.6009Y-0.7795
X2.6181Y-0.2461
X2.628Y-0.2264
X2.628Y-0.6791
X2.628Y-2.0276
X2.628Y-2.0669
X2.628Y-2.5984
X2.6378Y-0.2067
X2.6378Y-1.7717
X2.6378Y-1.811
X2.6378Y-1.8504
X2.6378Y-2.6378
X2.6378Y-3.937
X2.6378Y-4.0157
X2.6378Y-4.0551
X2.6378Y-4.252
X2.6378Y-4.3307
X2.6378Y-4.3701
X2.6378Y-4.4488
X2.6378Y-4.4882
X2.6378Y-4.6063
X2.6378Y-4.6457
X2.6673Y-4.8917
X2.6673Y-4.9311
X2.6764Y-2.1315
X2.6772Y-0.2362
X2.6772Y-1.7717
X2.6772Y-1.8479
X2.6772Y-2.0472
X2.6772Y-2.3238
X2.6772Y-2.4016
X2.6772Y-2.4803
X2.6772Y-2.5197
X2.6772Y-2.5984
X2.6772Y-2.6673
X2.6772Y-3.5433
X2.6772Y-4.0157
X2.6772Y-4.0945
X2.6772Y-4.2913
X2.6772Y-4.685
X2.6772Y-5.9941
X2.6786Y-1.9774
X2.6786Y-1.8989
X2.6811Y-2.2402
X2.687Y-4.872
X2.687Y-4.9114
X2.6914Y-0.467
X2.6969Y-3.563
X2.7067Y-0.7283
X2.7165Y-0.3937
X2.7165Y-0.4528
X2.7165Y-0.6496
X2.7165Y-1.7717
X2.7165Y-1.811
X2.7165Y-1.8504
X2.7165Y-1.8898
X2.7165Y-2.0472
X2.7165Y-2.0866
X2.7165Y-2.126
X2.7165Y-2.1654
X2.7165Y-2.2835
X2.7165Y-2.3228
X2.7165Y-2.3622
X2.7165Y-2.4016
X2.7165Y-2.4409
X2.7165Y-2.5197
X2.7165Y-2.5591
X2.7165Y-2.5984
X2.7165Y-3.5433
X2.7165Y-3.937
X2.7165Y-4.1339
X2.7165Y-4.2126
X2.7165Y-4.2913
X2.7165Y-4.4094
X2.7165Y-4.4882
X2.7165Y-4.5669
X2.7165Y-4.6063
X2.7165Y-4.6457
X2.7244Y-1.9252
X2.7313Y-2.6475
X2.7362Y-3.563
X2.7362Y-5.3051
X2.7362Y-5.4035
X2.7461Y-0.9547
X2.7559Y-2.4409
X2.7559Y-1.0458
X2.7559Y-1.7717
X2.7559Y-1.811
X2.7559Y-1.8504
X2.7559Y-1.8898
X2.7559Y-2.0079
X2.7559Y-2.0472
X2.7559Y-2.0866
X2.7559Y-2.126
X2.7559Y-2.2047
X2.7559Y-2.2441
X2.7559Y-2.2835
X2.7559Y-2.3228
X2.7559Y-2.3622
X2.7559Y-2.4016
X2.7559Y-2.5197
X2.7559Y-2.5591
X2.7559Y-2.6969
X2.7559Y-3.5433
X2.7559Y-4.0157
X2.7559Y-4.2913
X2.7559Y-4.5276
X2.7559Y-4.6063
X2.7559Y-4.685
X2.7589Y-1.9291
X2.7657Y-2.6476
X2.7657Y-0.2559
X2.7657Y-5.3346
X2.7657Y-5.374
X2.7756Y-3.563
X2.7854Y-0.2362
X2.7854Y-0.2953
X2.7854Y-1.0433
X2.7854Y-1.6043
X2.7943Y-2.0089
X2.7953Y-1.7717
X2.7953Y-1.811
X2.7953Y-1.8504
X2.7953Y-1.8898
X2.7953Y-1.9291
X2.7953Y-2.126
X2.7953Y-2.2441
X2.7953Y-2.3228
X2.7953Y-2.4016
X2.7953Y-2.4803
X2.7953Y-2.5197
X2.7953Y-2.5591
X2.7953Y-2.5984
X2.7953Y-3.5433
X2.7953Y-3.937
X2.7953Y-4.3307
X2.7953Y-4.3701
X2.7953Y-4.5669
X2.7953Y-4.6063
X2.8012Y-2.0531
X2.8044Y-1.9699
X2.8051Y-2.6475
X2.815Y-3.563
X2.8248Y-0.7087
X2.8248Y-0.8046
X2.8346Y-1.7717
X2.8346Y-1.8504
X2.8346Y-1.8898
X2.8346Y-1.9291
X2.8346Y-1.9685
X2.8346Y-2.2441
X2.8346Y-2.4409
X2.8346Y-2.5197
X2.8346Y-2.5591
X2.8346Y-2.5984
X2.8346Y-3.5433
X2.8346Y-4.0157
X2.8346Y-4.0551
X2.8346Y-4.1339
X2.8346Y-4.2126
X2.8346Y-4.2913
X2.8346Y-4.3307
X2.8346Y-4.4094
X2.8346Y-4.4882
X2.8346Y-4.5669
X2.8346Y-4.6457
X2.8346Y-4.685
X2.8445Y-0.4035
X2.8445Y-0.4331
X2.8445Y-0.4724
X2.8445Y-0.5118
X2.8445Y-0.5512
X2.8445Y-0.6299
X2.8445Y-0.6693
X2.8445Y-1.0236
X2.8445Y-2.6476
X2.8543Y-0.3543
X2.8543Y-0.9449
X2.8543Y-3.563
X2.8555Y-0.6913
X2.8606Y-1.7567
X2.8642Y-0.3839
X2.8642Y-0.4921
X2.8674Y-1.811
X2.874Y-1.8504
X2.874Y-1.8898
X2.874Y-1.9291
X2.874Y-1.9685
X2.874Y-2.0866
X2.874Y-2.1654
X2.874Y-2.2047
X2.874Y-2.2835
X2.874Y-2.4803
X2.874Y-2.5197
X2.874Y-2.5591
X2.874Y-2.5984
X2.874Y-3.5433
X2.874Y-3.937
X2.874Y-4.3307
X2.874Y-4.6457
X2.874Y-4.7638
X2.874Y-6.811
X2.874Y-6.9488
X2.8756Y-2.0496
X2.8888Y-0.3839
X2.8917Y-2.6569
X2.8937Y-0.8366
X2.8937Y-3.563
X2.9074Y-1.7665
X2.9111Y-1.8127
X2.912Y-1.6451
X2.9134Y-0.4232
X2.9134Y-0.6102
X2.9134Y-1.8504
X2.9134Y-1.8898
X2.9134Y-1.9685
X2.9134Y-2.0472
X2.9134Y-2.3228
X2.9134Y-2.4016
X2.9134Y-2.5197
X2.9134Y-2.5591
X2.9134Y-2.6969
X2.9134Y-3.5433
X2.9134Y-4.8425
X2.9262Y-2.6573
X2.9331Y-0.2362
X2.9331Y-0.7087
X2.9331Y-3.563
X2.9453Y-0.7359
X2.9528Y-0.0295
X2.9528Y-0.2165
X2.9528Y-0.8391
X2.9528Y-1.8898
X2.9528Y-1.9291
X2.9528Y-2.0472
X2.9528Y-2.0866
X2.9528Y-2.126
X2.9528Y-2.1654
X2.9528Y-2.2441
X2.9528Y-2.2835
X2.9528Y-2.3228
X2.9528Y-2.4409
X2.9528Y-2.5197
X2.9528Y-2.6969
X2.9528Y-3.5433
X2.9531Y-1.7717
X2.9531Y-1.8504
X2.9539Y-2.4817
X2.9548Y-1.811
X2.9626Y-0.7087
X2.9705Y-2.6575
X2.9724Y-0.4232
X2.9724Y-3.563
X2.9882Y-2.5787
X2.9921Y-0.3642
X2.9921Y-0.8366
X2.9921Y-1.8898
X2.9921Y-1.9291
X2.9921Y-1.9685
X2.9921Y-2.0079
X2.9921Y-2.0472
X2.9921Y-2.0866
X2.9921Y-2.126
X2.9921Y-2.1654
X2.9921Y-2.2441
X2.9921Y-2.2835
X2.9921Y-2.3228
X2.9921Y-2.4016
X2.9921Y-2.4409
X2.9921Y-2.4803
X2.9921Y-3.5433
X2.998Y-1.7598
X2.9995Y-2.6969
X3.008Y-0.2281
X3.0118Y-0.9449
X3.0118Y-3.563
X3.0169Y-2.6573
X3.0217Y-1.0236
X3.023Y-0.181
X3.0315Y-2.5984
X3.0315Y-0.3642
X3.0315Y-1.8898
X3.0315Y-1.9291
X3.0315Y-1.9685
X3.0315Y-2.0079
X3.0315Y-2.0472
X3.0315Y-2.0866
X3.0315Y-2.126
X3.0315Y-2.1654
X3.0315Y-2.2441
X3.0315Y-2.2835
X3.0315Y-2.3228
X3.0315Y-2.3622
X3.0315Y-2.4016
X3.0315Y-2.4409
X3.0315Y-2.5197
X3.0315Y-2.5591
X3.0315Y-3.5433
X3.0315Y-3.9567
X3.0315Y-4.1535
X3.0315Y-4.3504
X3.0315Y-4.5472
X3.0315Y-5.4921
X3.0315Y-5.689
X3.032Y-1.8504
X3.0329Y-1.812
X3.0336Y-1.7717
X3.0512Y-0.2067
X3.0512Y-0.8071
X3.0512Y-1.0827
X3.0512Y-3.563
X3.0512Y-3.937
X3.0512Y-4.1339
X3.0512Y-4.3307
X3.0512Y-4.5276
X3.0512Y-5.5118
X3.0512Y-5.7087
X3.0512Y-6.8504
X3.0512Y-6.9094
X3.0612Y-2.6548
X3.0661Y-0.2372
X3.0679Y-1.1128
X3.0709Y-0.8268
X3.0709Y-2.4409
X3.0709Y-2.4803
X3.0709Y-2.5197
X3.0709Y-2.5591
X3.0709Y-2.6969
X3.0709Y-3.5433
X3.0709Y-3.9567
X3.0709Y-4.1535
X3.0709Y-4.3504
X3.0709Y-4.5472
X3.0709Y-5.4921
X3.0709Y-5.689
X3.0807Y-4.7343
X3.0807Y-4.7933
X3.083Y-0.2044
X3.0886Y-1.1319
X3.0906Y-0.3642
X3.0906Y-3.563
X3.0906Y-3.937
X3.0906Y-4.1339
X3.0906Y-4.3307
X3.0906Y-4.5276
X3.0906Y-5.5118
X3.0906Y-5.7087
X3.1004Y-0.2264
X3.1024Y-0.9764
X3.1055Y-2.6559
X3.1102Y-1.7717
X3.1102Y-1.8504
X3.1102Y-1.8898
X3.1102Y-1.9291
X3.1102Y-1.9685
X3.1102Y-2.0079
X3.1102Y-2.0472
X3.1102Y-2.0866
X3.1102Y-2.126
X3.1102Y-2.1654
X3.1102Y-2.2441
X3.1102Y-2.2835
X3.1102Y-2.3228
X3.1102Y-2.4409
X3.1102Y-2.5197
X3.1102Y-2.5591
X3.1102Y-3.5433
X3.1102Y-3.8583
X3.1102Y-3.9567
X3.1102Y-4.1535
X3.1102Y-4.3504
X3.1102Y-4.5472
X3.1102Y-5.4921
X3.1102Y-5.689
X3.1108Y-1.811
X3.1299Y-3.563
X3.14Y-2.6469
X3.1496Y-0.2362
X3.1496Y-1.7717
X3.1496Y-1.811
X3.1496Y-1.8504
X3.1496Y-1.8898
X3.1496Y-1.9291
X3.1496Y-1.9685
X3.1496Y-2.0079
X3.1496Y-2.0472
X3.1496Y-2.0866
X3.1496Y-2.126
X3.1496Y-2.1654
X3.1496Y-2.2441
X3.1496Y-2.2835
X3.1496Y-2.3228
X3.1496Y-2.3622
X3.1496Y-2.4803
X3.1496Y-2.5197
X3.1496Y-2.5591
X3.1496Y-3.5433
X3.15Y-1.6689
X3.1558Y-0.974
X3.1594Y-3.937
X3.1693Y-0.3642
X3.1693Y-1.1713
X3.1693Y-3.563
X3.1772Y-0.9862
X3.1791Y-4.5276
X3.1791Y-4.5571
X3.1842Y-2.6516
X3.1887Y-0.2365
X3.189Y-1.7717
X3.189Y-1.811
X3.189Y-1.8504
X3.189Y-1.8898
X3.189Y-1.9291
X3.189Y-1.9685
X3.189Y-2.0866
X3.189Y-2.126
X3.189Y-2.1654
X3.189Y-2.2441
X3.189Y-2.2835
X3.189Y-2.3228
X3.189Y-2.4803
X3.189Y-2.5197
X3.189Y-2.5591
X3.189Y-3.5433
X3.189Y-3.878
X3.1897Y-2.6934
X3.1903Y-0.9654
X3.1988Y-1.2539
X3.2023Y-1.0128
X3.2087Y-0.1476
X3.2087Y-3.563
X3.2121Y-1.0704
X3.2185Y-3.8386
X3.2224Y-2.5925
X3.2264Y-2.6772
X3.2283Y-0.1476
X3.2283Y-0.219
X3.2283Y-1.7717
X3.2283Y-1.811
X3.2283Y-1.8504
X3.2283Y-1.9291
X3.2283Y-2.0079
X3.2283Y-2.0472
X3.2283Y-2.0866
X3.2283Y-2.1654
X3.2283Y-2.2835
X3.2283Y-2.4409
X3.2283Y-2.4803
X3.2283Y-2.5197
X3.2283Y-2.5591
X3.2283Y-3.5433
X3.2338Y-1.2052
X3.2438Y-2.7095
X3.248Y-1.25
X3.248Y-3.5039
X3.248Y-3.5925
X3.252Y-1.2244
X3.2677Y-1.7717
X3.2677Y-1.811
X3.2677Y-1.9291
X3.2677Y-1.9685
X3.2677Y-2.0079
X3.2677Y-2.0472
X3.2677Y-2.0866
X3.2677Y-2.126
X3.2677Y-2.3228
X3.2677Y-2.4409
X3.2677Y-2.5197
X3.2677Y-2.5591
X3.2677Y-3.5433
X3.2677Y-3.8976
X3.2677Y-4.2126
X3.2677Y-4.252
X3.2677Y-4.7638
X3.2682Y-2.6553
X3.2742Y-2.6821
X3.279Y-2.596
X3.2874Y-0.7185
X3.2874Y-3.563
X3.2883Y-1.4189
X3.3071Y-0.6521
X3.3071Y-0.7008
X3.3071Y-0.9528
X3.3071Y-1.7717
X3.3071Y-1.811
X3.3071Y-1.8504
X3.3071Y-1.8898
X3.3071Y-1.9291
X3.3071Y-1.9685
X3.3071Y-2.0079
X3.3071Y-2.0472
X3.3071Y-2.0866
X3.3071Y-2.126
X3.3071Y-2.1654
X3.3071Y-2.2441
X3.3071Y-2.3228
X3.3071Y-2.4016
X3.3071Y-2.4803
X3.3071Y-2.5197
X3.3071Y-2.5591
X3.3071Y-3.5039
X3.3071Y-3.9764
X3.3071Y-4.0551
X3.3071Y-4.1339
X3.3071Y-4.2126
X3.3071Y-4.2913
X3.3071Y-4.4094
X3.3071Y-4.4882
X3.3071Y-4.5669
X3.3071Y-4.6063
X3.3071Y-4.9016
X3.315Y-0.7559
X3.315Y-0.7874
X3.3153Y-0.6078
X3.3162Y-2.597
X3.3169Y-1.0827
X3.3169Y-1.1417
X3.3243Y-0.4173
X3.3243Y-0.4946
X3.3243Y-0.5512
X3.3244Y-0.209
X3.3244Y-3.0992
X3.3268Y-3.563
X3.3291Y-0.8291
X3.3366Y-0.2854
X3.3366Y-0.935
X3.3366Y-1.0335
X3.3366Y-4.9016
X3.3373Y-2.5576
X3.3415Y-2.6446
X3.3465Y-1.7717
X3.3465Y-1.811
X3.3465Y-1.8504
X3.3465Y-1.8898
X3.3465Y-1.9291
X3.3465Y-1.9685
X3.3465Y-2.0079
X3.3465Y-2.0472
X3.3465Y-2.0866
X3.3465Y-2.1654
X3.3465Y-2.2441
X3.3465Y-2.2835
X3.3465Y-2.3228
X3.3465Y-2.3622
X3.3465Y-2.4409
X3.3465Y-2.4803
X3.3465Y-2.5197
X3.3465Y-2.7067
X3.3465Y-3.1102
X3.3465Y-3.5433
X3.3465Y-3.8976
X3.3465Y-3.937
X3.3465Y-3.9764
X3.3465Y-4.6457
X3.3465Y-4.7244
X3.3504Y-0.9941
X3.354Y-1.6756
X3.3563Y-0.1673
X3.3563Y-1.7028
X3.3573Y-0.9213
X3.3661Y-3.1299
X3.3661Y-3.563
X3.3661Y-4.8819
X3.3701Y-0.189
X3.3743Y-2.6755
X3.376Y-5.3346
X3.376Y-5.374
X3.3858Y-1.7717
X3.3858Y-1.811
X3.3858Y-1.8504
X3.3858Y-1.8898
X3.3858Y-1.9291
X3.3858Y-1.9685
X3.3858Y-2.0079
X3.3858Y-2.0472
X3.3858Y-2.0866
X3.3858Y-2.126
X3.3858Y-2.1654
X3.3858Y-2.2441
X3.3858Y-2.2835
X3.3858Y-2.3228
X3.3858Y-2.4016
X3.3858Y-2.4409
X3.3858Y-2.4803
X3.3858Y-2.5197
X3.3858Y-2.5984
X3.3858Y-3.1496
X3.3858Y-3.5433
X3.3858Y-3.8976
X3.3858Y-3.937
X3.3858Y-3.9764
X3.3858Y-4.0551
X3.3858Y-4.1339
X3.3858Y-4.5276
X3.3858Y-4.6457
X3.3917Y-0.9803
X3.3925Y-1.5354
X3.4055Y-3.563
X3.4055Y-5.3051
X3.4055Y-5.4035
X3.4055Y-5.4429
X3.4055Y-3.1693
X3.4252Y-0.3543
X3.4252Y-0.4528
X3.4252Y-0.8268
X3.4252Y-1.1122
X3.4252Y-1.6732
X3.4252Y-1.8898
X3.4252Y-1.9685
X3.4252Y-2.0472
X3.4252Y-2.0866
X3.4252Y-2.126
X3.4252Y-2.1654
X3.4252Y-2.2441
X3.4252Y-2.2835
X3.4252Y-2.3228
X3.4252Y-2.3622
X3.4252Y-2.4016
X3.4252Y-2.4409
X3.4252Y-2.4803
X3.4252Y-2.5197
X3.4252Y-2.5591
X3.4252Y-2.6378
X3.4252Y-3.189
X3.4252Y-3.5433
X3.4252Y-3.937
X3.4252Y-3.9764
X3.4252Y-4.0157
X3.4252Y-4.0945
X3.4252Y-4.1732
X3.4252Y-4.252
X3.4252Y-4.3701
X3.4252Y-4.4488
X3.4252Y-4.5276
X3.4252Y-4.685
X3.4448Y-4.9213
X3.4449Y-3.2087
X3.4449Y-0.3937
X3.4449Y-3.563
X3.4449Y-4.8819
X3.4547Y-0.2264
X3.4547Y-6.2008
X3.4622Y-4.9039
X3.4646Y-1.7638
X3.4646Y-1.8504
X3.4646Y-1.8898
X3.4646Y-1.9291
X3.4646Y-1.9685
X3.4646Y-2.0079
X3.4646Y-2.0472
X3.4646Y-2.126
X3.4646Y-2.2441
X3.4646Y-2.2835
X3.4646Y-2.3228
X3.4646Y-2.3622
X3.4646Y-2.4016
X3.4646Y-2.4409
X3.4646Y-2.4803
X3.4646Y-2.5591
X3.4646Y-2.5984
X3.4646Y-3.2283
X3.4646Y-3.5433
X3.4646Y-3.8976
X3.4646Y-3.937
X3.4646Y-3.9764
X3.4646Y-4.0157
X3.4646Y-4.0551
X3.4646Y-4.1339
X3.4646Y-4.2126
X3.4646Y-4.2913
X3.4646Y-4.3701
X3.4646Y-4.4094
X3.4646Y-4.4882
X3.4646Y-4.6063
X3.4646Y-4.9409
X3.4646Y-2.1654
X3.4843Y-0.1673
X3.4843Y-3.563
X3.4926Y-0.6078
X3.4941Y-0.2362
X3.5025Y-3.937
X3.5039Y-1.7185
X3.5039Y-1.7717
X3.5039Y-1.8898
X3.5039Y-1.9291
X3.5039Y-1.9685
X3.5039Y-2.0079
X3.5039Y-2.0866
X3.5039Y-2.1654
X3.5039Y-2.2638
X3.5039Y-2.3031
X3.5039Y-2.3425
X3.5039Y-2.3819
X3.5039Y-2.4213
X3.5039Y-2.4606
X3.5039Y-2.5787
X3.5039Y-2.6378
X3.5039Y-2.7165
X3.5039Y-3.8976
X3.5039Y-3.9764
X3.5039Y-4.0157
X3.5039Y-4.0945
X3.5039Y-4.2126
X3.5039Y-4.2913
X3.5039Y-4.4094
X3.5039Y-4.6457
X3.5039Y-4.685
X3.5051Y-0.2142
X3.5138Y-2.5197
X3.5335Y-0.1083
X3.5335Y-2.0472
X3.5335Y-2.0866
X3.5335Y-2.1358
X3.5433Y-3.8976
X3.5433Y-3.9764
X3.5433Y-4.0157
X3.5433Y-4.0551
X3.5433Y-4.0945
X3.5433Y-4.252
X3.5433Y-4.3701
X3.5433Y-4.4488
X3.5433Y-4.6063
X3.5433Y-4.6457
X3.5433Y-5.9941
X3.5531Y-0.1083
X3.5591Y-2.5
X3.5591Y-2.5394
X3.5728Y-0.0689
X3.5728Y-0.1083
X3.5827Y-1.8307
X3.5827Y-2.2244
X3.5827Y-3.8976
X3.5827Y-3.937
X3.5827Y-3.9764
X3.5827Y-4.2126
X3.5827Y-4.252
X3.5827Y-4.2913
X3.5827Y-4.3701
X3.5827Y-4.4094
X3.5827Y-4.4488
X3.5827Y-4.685
X3.6024Y-1.811
X3.6024Y-2.6575
X3.6097Y-0.4368
X3.622Y-2.7953
X3.622Y-2.9921
X3.622Y-3.8976
X3.622Y-3.937
X3.622Y-3.9764
X3.622Y-4.0551
X3.622Y-4.1732
X3.622Y-4.2126
X3.622Y-4.252
X3.622Y-4.2913
X3.622Y-4.3701
X3.622Y-4.4094
X3.622Y-4.4488
X3.622Y-4.4882
X3.622Y-4.5669
X3.622Y-4.6063
X3.622Y-4.6457
X3.622Y-5.9941
X3.6339Y-0.187
X3.6339Y-0.2854
X3.6339Y-0.3839
X3.6417Y-0.4429
X3.6417Y-2.7756
X3.6417Y-2.9724
X3.6516Y-1.9094
X3.6591Y-3.9347
X3.6614Y-0.689
X3.6614Y-2.5984
X3.6614Y-2.7953
X3.6614Y-2.9921
X3.6614Y-3.8976
X3.6614Y-4.0157
X3.6614Y-4.0551
X3.6614Y-4.1732
X3.6614Y-4.2126
X3.6614Y-4.252
X3.6614Y-4.2913
X3.6614Y-4.3701
X3.6614Y-4.4094
X3.6614Y-4.4488
X3.6614Y-4.4882
X3.6614Y-4.5276
X3.6614Y-4.6063
X3.6614Y-4.685
X3.6663Y-3.9813
X3.6811Y-0.8169
X3.6811Y-2.7756
X3.6811Y-2.9724
X3.6909Y-0.0591
X3.7008Y-2.7953
X3.7008Y-2.9921
X3.7008Y-4.0157
X3.7008Y-4.0551
X3.7008Y-4.685
X3.7008Y-5.9941
X3.7008Y-3.9764
X3.7106Y-0.0591
X3.7205Y-0.8858
X3.7303Y-0.0591
X3.7303Y-0.4035
X3.7303Y-0.4232
X3.7303Y-0.4429
X3.7402Y-3.8976
X3.7402Y-3.937
X3.7402Y-3.9764
X3.7402Y-4.0945
X3.7402Y-4.1339
X3.7402Y-4.1732
X3.7402Y-4.2126
X3.7402Y-4.252
X3.7402Y-4.2913
X3.7402Y-4.3701
X3.7402Y-4.4094
X3.7402Y-4.4488
X3.7402Y-4.4882
X3.7402Y-4.5276
X3.7402Y-4.6063
X3.7795Y-4.0157
X3.7795Y-4.0551
X3.7795Y-4.2126
X3.7795Y-4.252
X3.7795Y-4.2913
X3.7795Y-4.3701
X3.7795Y-4.4094
X3.7795Y-4.4488
X3.7795Y-4.4882
X3.7795Y-4.5669
X3.7795Y-4.6063
X3.7795Y-4.685
X3.7795Y-5.9941
X3.7894Y-3.8878
X3.8091Y-3.8484
X3.8189Y-3.937
X3.8189Y-3.9764
X3.8189Y-4.0157
X3.8189Y-4.0551
X3.8189Y-4.1732
X3.8189Y-4.2126
X3.8189Y-4.252
X3.8189Y-4.2913
X3.8189Y-4.3701
X3.8189Y-4.4094
X3.8189Y-4.4488
X3.8189Y-4.4882
X3.8189Y-4.6063
X3.8386Y-1.1516
X3.8583Y-3.878
X3.8583Y-3.937
X3.8583Y-3.9764
X3.8583Y-4.0157
X3.8583Y-4.1339
X3.8583Y-4.2126
X3.8583Y-4.252
X3.8583Y-4.2913
X3.8583Y-4.3701
X3.8583Y-4.4882
X3.8583Y-4.6063
X3.8583Y-4.685
X3.8583Y-5.9941
X3.8756Y-2.9945
X3.8976Y-3.9764
X3.8976Y-4.0157
X3.8976Y-4.0551
X3.8976Y-4.3701
X3.8976Y-4.4488
X3.8976Y-4.4882
X3.8976Y-4.6063
X3.8976Y-4.6457
X3.9Y-2.9701
X3.9173Y-1.7126
X3.9173Y-1.752
X3.937Y-0.1476
X3.937Y-0.1673
X3.937Y-1.6929
X3.937Y-1.7323
X3.937Y-1.7717
X3.937Y-4.0157
X3.937Y-4.0945
X3.937Y-4.2913
X3.937Y-4.685
X3.937Y-4.9016
X3.937Y-4.9409
X3.937Y-5.9941
X3.9567Y-4.8819
X3.9567Y-4.9213
X3.9646Y-0.9646
X3.9764Y-3.3268
X3.9764Y-3.937
X3.9764Y-4.1339
X3.9764Y-4.2913
X3.9764Y-4.4094
X3.9764Y-4.4882
X3.9764Y-4.5669
X3.9764Y-4.6063
X3.9764Y-4.6457
X3.9961Y-5.3051
X3.9961Y-5.4035
X4.0059Y-3.7697
X4.0157Y-4.0157
X4.0157Y-4.2913
X4.0157Y-4.5276
X4.0157Y-4.6063
X4.0256Y-0.1476
X4.0256Y-0.1673
X4.0256Y-5.3346
X4.0256Y-5.374
X4.0453Y-4.9606
X4.0551Y-3.937
X4.0551Y-4.3307
X4.0551Y-4.6063
X4.0551Y-4.6457
X4.0551Y-4.7244
X4.065Y-0.9154
X4.0846Y-1.0039
X4.0846Y-4.8228
X4.0906Y-0.9685
X4.0945Y-4.0157
X4.0945Y-4.0551
X4.0945Y-4.1339
X4.0945Y-4.2126
X4.0945Y-4.2913
X4.0945Y-4.3307
X4.0945Y-4.4094
X4.0945Y-4.4882
X4.0945Y-4.5276
X4.0945Y-4.5669
X4.1339Y-0.4921
X4.1339Y-3.8976
X4.1339Y-4.3307
X4.1339Y-4.6457
X4.1339Y-4.7638
X4.1535Y-0.3543
X4.1535Y-0.4921
X4.1634Y-0.0591
X4.1732Y-0.3543
X4.1732Y-0.4921
X4.1732Y-1.6929
X4.1732Y-1.7323
X4.1732Y-1.7717
X4.1831Y-0.0591
X4.1929Y-1.7126
X4.1929Y-1.752
X4.1929Y-5.3543
X4.1929Y-5.3839
X4.1929Y-5.4134
X4.1929Y-5.4429
X4.1929Y-6.378
X4.2028Y-0.0591
X4.2323Y-6.4173
X4.2323Y-6.4921
X4.2323Y-6.6142
X4.2323Y-6.811
X4.2323Y-7.0079
X4.2323Y-7.2047
X4.2323Y-7.4016
X4.2402Y-4.5197
X4.252Y-0.315
X4.252Y-4.5669
X4.252Y-4.6063
X4.252Y-4.6457
X4.252Y-4.685
X4.252Y-4.7244
X4.2618Y-0.0984
X4.2618Y-0.1575
X4.2618Y-4.9311
X4.2677Y-4.5197
X4.2717Y-4.5866
X4.2717Y-4.626
X4.2717Y-4.6654
X4.2717Y-4.7047
X4.2717Y-6.5748
X4.2815Y-0.8268
X4.2815Y-0.9055
X4.2815Y-0.9843
X4.2815Y-1.063
X4.2913Y-1.2992
X4.2913Y-1.8307
X4.2913Y-1.9685
X4.2913Y-2.2638
X4.2913Y-2.4016
X4.2913Y-4.5669
X4.2913Y-4.6063
X4.2913Y-4.6457
X4.2913Y-4.685
X4.2913Y-4.7244
X4.2913Y-4.8819
X4.3012Y-3.435
X4.3012Y-3.4646
X4.3012Y-3.4941
X4.311Y-6.4173
X4.311Y-6.6889
X4.311Y-6.811
X4.311Y-7.0079
X4.311Y-7.2047
X4.311Y-7.4016
X4.3307Y-2.874
X4.3307Y-3.435
X4.3307Y-3.4646
X4.3307Y-3.4941
X4.3602Y-3.435
X4.3602Y-3.4646
X4.3602Y-3.4941
X4.3898Y-0.0984
X4.3898Y-2.5591
X4.4092Y-1.8307
X4.4094Y-1.2992
X4.4094Y-2.2638
X4.4094Y-2.9134
X4.4291Y-2.5394
X4.4291Y-2.6181
X4.4291Y-4.7835
X4.4291Y-4.8228
X4.439Y-2.4409
X4.439Y-2.4705
X4.4488Y-0.7677
X4.4488Y-0.7972
X4.4488Y-4.7638
X4.4488Y-4.8031
X4.4488Y-4.8425
X4.4783Y-1.1319
X4.4783Y-1.1909
X4.4976Y-1.9867
X4.5016Y-2.4008
X4.5079Y-1.2992
X4.5669Y-0.0886
X4.6161Y-0.0886
X4.6161Y-0.2461
X4.6161Y-4.4094
X4.6358Y-4.3898
X4.6358Y-4.4291
X4.6555Y-4.4094
X4.6654Y-0.0886
X4.6654Y-0.2461
X4.685Y-4.7638
X4.685Y-4.8031
X4.685Y-4.8425
X4.6949Y-6.3976
X4.7047Y-4.7835
X4.7047Y-4.8228
X4.7146Y-0.0886
X4.7638Y-0.0886
X4.7638Y-0.2461
X4.7835Y-6.7717
X4.8228Y-6.4173
X4.8228Y-6.6142
X4.8228Y-6.8858
X4.8228Y-7.0079
X4.8228Y-7.2047
X4.8228Y-7.4016
X4.8622Y-4.3307
X4.8622Y-4.3701
X4.8622Y-6.9685
X4.8819Y-4.3504
X4.8917Y-0.6594
X4.9016Y-0.748
X4.9016Y-1.3524
X4.9016Y-1.4862
X4.9016Y-4.3307
X4.9016Y-4.3701
X4.9016Y-6.4173
X4.9016Y-6.6142
X4.9016Y-6.811
X4.9016Y-7.0826
X4.9016Y-7.2047
X4.9016Y-7.4016
X4.9114Y-0.8268
X4.9114Y-3.0512
X4.9213Y-4.3504
X4.937Y-2.126
X4.9409Y-4.3307
X4.9409Y-4.3701
X4.9606Y-4.3504
X4.9705Y-1.1811
X4.9705Y-1.25
X4.9803Y-4.3307
X4.9803Y-4.3701
X5.0394Y-3.9173
X5.0591Y-3.9173
X5.0787Y-3.9173
X5.0984Y-3.9173
X5.0984Y-6.1811
X5.1181Y-1.0433
X5.1181Y-3.9173
X5.128Y-6.1909
X5.1378Y-3.9173
X5.1673Y-1.0925
X5.187Y-4.8819
X5.1969Y-4.6457
X5.1969Y-6.1713
X5.1972Y-6.1323
X5.2067Y-4.8622
X5.2067Y-6.2106
X5.2461Y-6.4469
X5.2854Y-1.1319
X5.2854Y-1.1909
X5.315Y-7.1654
X5.3543Y-6.4173
X5.3543Y-6.6142
X5.3543Y-6.811
X5.3543Y-7.0079
X5.3543Y-7.2795
X5.3543Y-7.4016
X5.3642Y-5.9252
X5.3642Y-6.0433
X5.374Y-6.1811
X5.386Y-5.199
X5.3937Y-5.9252
X5.3937Y-6.0433
X5.3937Y-7.3622
X5.4232Y-5.9252
X5.4232Y-6.0433
X5.4331Y-6.4173
X5.4331Y-6.6142
X5.4331Y-6.811
X5.4331Y-7.0079
X5.4331Y-7.2047
X5.4331Y-7.4763
X5.4528Y-3.878
X5.4528Y-3.9173
X5.4528Y-3.9567
X5.4578Y-5.1271
X5.4724Y-3.8976
X5.4724Y-3.937
X5.4724Y-4.4488
X5.4724Y-4.4882
X5.4724Y-4.5276
X5.4921Y-3.878
X5.4921Y-3.9173
X5.4921Y-3.9567
X5.4921Y-4.4685
X5.4921Y-4.5079
X5.5034Y-5.126
X5.5118Y-3.8976
X5.5118Y-3.937
X5.5118Y-4.4488
X5.5118Y-4.4882
X5.5118Y-4.5276
X5.5217Y-7.7756
X5.5315Y-3.878
X5.5315Y-3.9173
X5.5315Y-3.9567
X5.5315Y-4.4685
X5.5315Y-4.5079
X5.5354Y-5.0709
X5.5413Y-5.9744
X5.5413Y-5.9941
X5.5413Y-6.1122
X5.5512Y-3.8976
X5.5512Y-3.937
X5.5512Y-4.4488
X5.5512Y-4.4882
X5.5512Y-4.5276
X5.5612Y-5.0743
X5.5709Y-3.878
X5.5709Y-3.9173
X5.5709Y-3.9567
X5.5709Y-4.4685
X5.5709Y-4.5079
X5.5709Y-6.0925
X5.5906Y-3.8976
X5.5906Y-3.937
X5.5906Y-4.4488
X5.5906Y-4.4882
X5.5906Y-4.5276
X5.6102Y-3.878
X5.6102Y-3.9173
X5.6102Y-3.9567
X5.6102Y-4.4685
X5.6102Y-4.5079
X5.6102Y-4.8622
X5.6102Y-5.0689
X5.6201Y-6.0827
X5.6201Y-6.1024
X5.6299Y-3.8976
X5.6299Y-3.937
X5.6299Y-4.4488
X5.6299Y-4.4882
X5.6299Y-4.5276
X5.6299Y-7.7559
X5.6398Y-5.0689
X5.6398Y-5.9744
X5.6398Y-5.9941
X5.6496Y-3.878
X5.6496Y-3.9173
X5.6496Y-3.9567
X5.6496Y-4.4685
X5.6496Y-4.5079
X5.6496Y-6.0925
X5.6496Y-6.1122
X5.6693Y-3.8976
X5.6693Y-3.937
X5.6693Y-4.4488
X5.6693Y-4.4882
X5.6693Y-4.5276
X5.689Y-3.878
X5.689Y-3.9173
X5.689Y-3.9567
X5.689Y-4.4685
X5.689Y-4.5079
X5.689Y-5.0689
X5.7047Y-0.9252
X5.7087Y-3.8976
X5.7087Y-3.937
X5.7087Y-4.4488
X5.7087Y-4.4882
X5.7087Y-4.5276
X5.7185Y-5.9744
X5.7185Y-5.9941
X5.7185Y-6.0925
X5.7185Y-6.1122
X5.7185Y-6.4469
X5.7283Y-2.0866
X5.7283Y-3.878
X5.7283Y-3.9173
X5.7283Y-3.9567
X5.7283Y-4.4685
X5.7283Y-4.5079
X5.7283Y-4.8573
X5.748Y-4.4488
X5.748Y-4.4882
X5.748Y-4.5276
X5.7677Y-1.1811
X5.7677Y-1.25
X5.7677Y-6.3681
X5.7677Y-7.0079
X5.8169Y-6.0925
X5.8169Y-6.1122
X5.8268Y-5.9744
X5.8268Y-5.9941
X5.8661Y-5.0492
X5.876Y-5.9744
X5.876Y-5.9941
X5.876Y-6.0925
X5.876Y-6.1122
X5.8957Y-5.0492
X5.9055Y-1.0433
X5.9252Y-3.878
X5.9252Y-3.9173
X5.9252Y-3.9567
X5.9252Y-5.0492
X5.935Y-4.8622
X5.9449Y-3.8976
X5.9449Y-3.937
X5.9449Y-4.4488
X5.9449Y-4.4882
X5.9449Y-4.5276
X5.9449Y-7.7559
X5.9547Y-1.0925
X5.9547Y-4.8622
X5.9646Y-3.878
X5.9646Y-3.9173
X5.9646Y-3.9567
X5.9646Y-4.4685
X5.9646Y-4.5079
X5.9843Y-3.8976
X5.9843Y-3.937
X5.9843Y-4.4488
X5.9843Y-4.4882
X5.9843Y-4.5276
X6.0039Y-3.878
X6.0039Y-3.9173
X6.0039Y-3.9567
X6.0039Y-4.4685
X6.0039Y-4.5079
X6.0039Y-4.8622
X6.0236Y-3.8976
X6.0236Y-3.937
X6.0236Y-4.4488
X6.0236Y-4.4882
X6.0236Y-4.5276
X6.0335Y-6.437
X6.0433Y-3.878
X6.0433Y-3.9173
X6.0433Y-3.9567
X6.0433Y-4.4685
X6.0433Y-4.5079
X6.0433Y-7.0079
X6.0433Y-7.4016
X6.063Y-3.8976
X6.063Y-3.937
X6.063Y-4.4488
X6.063Y-4.4882
X6.063Y-4.5276
X6.0827Y-1.1319
X6.0827Y-1.1909
X6.0827Y-3.878
X6.0827Y-3.9173
X6.0827Y-3.9567
X6.0827Y-4.4685
X6.0827Y-4.5079
X6.1024Y-3.8976
X6.1024Y-3.937
X6.1024Y-4.4488
X6.1024Y-4.4882
X6.1024Y-4.5276
X6.1122Y-5.2657
X6.1122Y-5.2903
X6.1122Y-6.378
X6.122Y-3.878
X6.122Y-3.9173
X6.122Y-3.9567
X6.122Y-4.4685
X6.122Y-4.5079
X6.1417Y-3.8976
X6.1417Y-3.937
X6.1417Y-4.4488
X6.1417Y-4.4882
X6.1417Y-4.5276
X6.1614Y-3.878
X6.1614Y-3.9173
X6.1614Y-3.9567
X6.1614Y-4.4685
X6.1614Y-4.5079
X6.1614Y-6.0827
X6.1614Y-6.122
X6.1811Y-3.8976
X6.1811Y-3.937
X6.1811Y-4.4488
X6.1811Y-4.4882
X6.1811Y-4.5276
X6.1811Y-6.063
X6.1811Y-6.1024
X6.1811Y-6.1417
X6.2008Y-3.878
X6.2008Y-3.9173
X6.2008Y-3.9567
X6.2008Y-4.4685
X6.2008Y-4.5079
X6.2205Y-4.4488
X6.2205Y-4.4882
X6.2205Y-4.5276
X6.2205Y-5.0689
X6.2402Y-5.0492
X6.2598Y-5.4331
X6.3189Y-4.685
X6.3189Y-4.7244
X6.3189Y-4.7638
X6.3189Y-4.8031
X6.3189Y-4.8425
X6.3386Y-4.6654
X6.3386Y-4.7047
X6.3386Y-4.7441
X6.3386Y-4.7835
X6.3386Y-4.8228
X6.3583Y-4.685
X6.3583Y-4.7244
X6.3583Y-4.7638
X6.3583Y-4.8031
X6.3583Y-4.8425
X6.378Y-4.6654
X6.378Y-4.7047
X6.378Y-4.7441
X6.378Y-4.7835
X6.378Y-4.8228
X6.378Y-5.2657
X6.378Y-5.3051
X6.378Y-5.3445
X6.3976Y-3.878
X6.3976Y-3.9173
X6.3976Y-3.9567
X6.3976Y-4.685
X6.3976Y-4.7244
X6.3976Y-4.7638
X6.3976Y-4.8031
X6.3976Y-4.8425
X6.3976Y-5.2854
X6.3976Y-5.3248
X6.3976Y-6.4173
X6.3976Y-6.6142
X6.3976Y-6.811
X6.3976Y-7.0079
X6.3976Y-7.2047
X6.3976Y-7.4016
X6.4173Y-3.8976
X6.4173Y-3.937
X6.4173Y-5.2657
X6.4173Y-5.3051
X6.4173Y-5.3445
X6.4173Y-6.063
X6.4173Y-6.1024
X6.4173Y-6.1417
X6.437Y-3.878
X6.437Y-3.9173
X6.437Y-3.9567
X6.437Y-5.2854
X6.437Y-5.3248
X6.437Y-6.0827
X6.437Y-6.122
X6.4567Y-3.8976
X6.4567Y-3.937
X6.4567Y-5.2657
X6.4567Y-5.3051
X6.4567Y-5.3445
X6.4764Y-3.878
X6.4764Y-3.9173
X6.4764Y-3.9567
X6.4764Y-6.4173
X6.4764Y-6.6142
X6.4764Y-6.811
X6.4764Y-7.0079
X6.4764Y-7.2047
X6.4764Y-7.4016
X6.4961Y-3.8976
X6.4961Y-3.937
X6.5157Y-3.878
X6.5157Y-3.9173
X6.5157Y-3.9567
X6.5256Y-2.0472
X6.5354Y-3.8976
X6.5354Y-3.937
X6.5551Y-3.878
X6.5551Y-3.9173
X6.5551Y-3.9567
X6.5748Y-1.1811
X6.5748Y-1.25
X6.5748Y-3.8976
X6.5748Y-3.937
X6.5945Y-3.878
X6.5945Y-3.9173
X6.5945Y-3.9567
X6.6142Y-3.8976
X6.6142Y-3.937
X6.6339Y-3.878
X6.6339Y-3.9173
X6.6339Y-3.9567
X6.6535Y-3.8976
X6.6535Y-3.937
X6.6732Y-3.878
X6.6732Y-3.9173
X6.6732Y-3.9567
X6.7126Y-1.0433
X6.7618Y-1.0925
X6.7815Y-7.7756
X6.8701Y-4.8031
X6.8701Y-4.8425
X6.8701Y-4.8819
X6.8898Y-1.1319
X6.8898Y-1.1909
X6.8898Y-4.7835
X6.8898Y-4.8228
X6.8898Y-4.8622
X6.8898Y-4.9016
X6.8898Y-7.7559
X6.9094Y-4.8031
X6.9094Y-4.8425
X6.9094Y-4.8819
X6.9291Y-4.7835
X6.9291Y-4.8228
X6.9291Y-4.8622
X6.9291Y-4.9016
X6.9488Y-4.8031
X6.9488Y-4.8425
X6.9488Y-4.8819
X6.9685Y-4.7835
X6.9685Y-4.8228
X6.9685Y-4.8622
X6.9685Y-4.9016
X6.9882Y-4.8031
X6.9882Y-4.8425
X6.9882Y-4.8819
X7.0079Y-4.7835
X7.0079Y-4.8228
X7.0079Y-4.8622
X7.0276Y-4.8031
X7.0276Y-4.8425
X7.0472Y-4.7835
X7.0472Y-4.8228
X7.0669Y-4.8031
X7.0866Y-4.7835
X7.0965Y-6.3287
X7.1161Y-6.3091
X7.2047Y-7.7559
X7.2933Y-0.5512
X7.2933Y-0.6496
X7.372Y-0.748
X7.372Y-0.8169
X7.372Y-1.1811
X7.372Y-1.25
X7.4016Y-5.6299
X7.4409Y-5.3346
X7.4409Y-5.4724
X7.4409Y-5.6496
X7.5Y-5.0787
X7.5Y-7.3327
X7.5197Y-1.0433
X7.5394Y-5.2559
X7.5492Y-5.0787
X7.5689Y-1.0925
X7.5984Y-5.0787
X7.6476Y-5.0787
X7.6772Y-4.1929
X7.6772Y-4.2126
X7.6772Y-4.2323
X7.6772Y-4.252
X7.6772Y-4.2717
X7.6772Y-4.2913
X7.6772Y-4.311
X7.6772Y-5.4921
X7.6772Y-7.185
X7.6781Y-6.998
X7.6969Y-5.1575
X7.7657Y-5.374
X7.7657Y-5.4528
X7.7953Y-5.2362
X7.815Y-5.6496
X7.815Y-5.2165
T2
X0.8465Y-4.9016
X0.9291Y-1.8346
X0.9291Y-1.9055
X0.9291Y-1.9764
X0.9291Y-2.0472
X0.9291Y-2.1181
X0.9291Y-2.189
X0.9291Y-2.2598
X0.9291Y-2.3307
X0.9291Y-2.4016
X0.9291Y-2.4724
X0.9843Y-0.9154
X1.063Y-0.9606
X1.063Y-1.8346
X1.063Y-1.9055
X1.063Y-1.9764
X1.063Y-2.0472
X1.063Y-2.1181
X1.063Y-2.189
X1.063Y-2.2598
X1.063Y-2.3307
X1.063Y-2.4016
X1.063Y-2.4724
X1.0709Y-2.6142
X1.0709Y-2.685
X1.0709Y-2.7559
X1.0709Y-2.8268
X1.0709Y-2.8976
X1.0709Y-2.9449
X1.0709Y-3.0157
X1.0709Y-3.0866
X1.0709Y-3.1575
X1.0709Y-3.2283
X1.0709Y-3.2992
X1.0709Y-3.3701
X1.0709Y-3.4409
X1.2047Y-1.0551
X1.2047Y-1.126
X1.2047Y-1.1969
X1.2047Y-1.2677
X1.2047Y-1.3386
X1.2047Y-1.3858
X1.2047Y-1.4567
X1.2047Y-1.5276
X1.2047Y-1.5984
X1.2047Y-1.6693
X1.2047Y-1.7402
X1.2047Y-1.7874
X1.2047Y-1.8583
X1.3917Y-1.4587
X1.3937Y-1.063
X1.3937Y-1.1811
X1.3937Y-1.252
X1.3937Y-1.3228
X1.3937Y-1.3937
X1.3937Y-1.5236
X1.3937Y-1.5886
X1.3937Y-1.6535
X1.3937Y-1.7244
X1.3937Y-1.7953
X1.3937Y-1.8661
X1.3937Y-2.6063
X1.3937Y-2.6772
X1.3937Y-2.7402
X1.3937Y-2.811
X1.3937Y-2.8819
X1.3937Y-2.9528
X1.3937Y-3.0236
X1.3937Y-3.0945
X1.3937Y-3.1654
X1.3937Y-3.2362
X1.3937Y-3.3071
X1.3937Y-3.3543
X1.3937Y-3.4252
X1.5276Y-3.4567
X1.5354Y-0.9547
X1.5354Y-1.1319
X1.5433Y-1.9213
X1.5433Y-1.9921
X1.5433Y-2.063
X1.5433Y-2.1339
X1.5433Y-2.2047
X1.5433Y-2.2756
X1.5433Y-2.3465
X1.5433Y-2.4173
X1.5433Y-2.4882
X1.6614Y-1.9213
X1.6614Y-1.9921
X1.6614Y-2.063
X1.6614Y-2.1339
X1.6614Y-2.2047
X1.6614Y-2.2756
X1.6614Y-2.3465
X1.6614Y-2.4173
X1.6614Y-2.4882
X1.6614Y-3.4567
T5
X1.1713Y-5.6949
X1.1713Y-5.7736
X1.1713Y-5.8524
X1.1713Y-5.9311
X1.1713Y-6.0098
X1.1713Y-6.0886
X1.1713Y-6.1673
X1.1713Y-6.2461
X1.1713Y-6.3248
X1.1713Y-6.4035
X1.1713Y-6.4823
X1.1713Y-6.561
X1.1713Y-6.6398
X1.1713Y-6.7185
X1.1713Y-6.7972
X1.1713Y-6.876
X1.1713Y-6.9547
X1.1713Y-7.0335
X1.1713Y-7.1122
X1.1713Y-7.2697
X1.1713Y-7.3484
X1.1713Y-7.4272
X1.1713Y-7.5059
X1.1713Y-7.5846
X1.1811Y-4.0945
X1.2402Y-3.9921
X1.2402Y-4.1969
X1.25Y-5.6555
X1.25Y-5.7343
X1.25Y-5.813
X1.25Y-5.8917
X1.25Y-5.9705
X1.25Y-6.0492
X1.25Y-6.128
X1.25Y-6.2067
X1.25Y-6.2854
X1.25Y-6.3642
X1.25Y-6.4429
X1.25Y-6.5217
X1.25Y-6.6004
X1.25Y-6.6791
X1.25Y-6.7579
X1.25Y-6.8366
X1.25Y-6.9154
X1.25Y-6.9941
X1.25Y-7.0728
X1.25Y-7.2303
X1.25Y-7.3091
X1.25Y-7.3878
X1.25Y-7.4665
X1.25Y-7.5453
X1.25Y-7.624
X1.3484Y-5.6555
X1.3484Y-5.7343
X1.3484Y-5.813
X1.3484Y-5.8917
X1.3484Y-5.9705
X1.3484Y-6.0492
X1.3484Y-6.128
X1.3484Y-6.2067
X1.3484Y-6.2854
X1.3484Y-6.3642
X1.3484Y-6.4429
X1.3484Y-6.5217
X1.3484Y-6.6004
X1.3484Y-6.6791
X1.3484Y-6.7579
X1.3484Y-6.8366
X1.3484Y-6.9154
X1.3484Y-6.9941
X1.3484Y-7.0728
X1.3484Y-7.2303
X1.3484Y-7.3091
X1.3484Y-7.3878
X1.3484Y-7.4665
X1.3484Y-7.5453
X1.3484Y-7.624
X1.3583Y-3.9921
X1.3583Y-4.1969
X1.4173Y-4.0945
X1.4272Y-5.6949
X1.4272Y-5.7736
X1.4272Y-5.8524
X1.4272Y-5.9311
X1.4272Y-6.0098
X1.4272Y-6.0886
X1.4272Y-6.1673
X1.4272Y-6.2461
X1.4272Y-6.3248
X1.4272Y-6.4035
X1.4272Y-6.4823
X1.4272Y-6.561
X1.4272Y-6.6398
X1.4272Y-6.7185
X1.4272Y-6.7972
X1.4272Y-6.876
X1.4272Y-6.9547
X1.4272Y-7.0335
X1.4272Y-7.1122
X1.4272Y-7.2697
X1.4272Y-7.3484
X1.4272Y-7.4272
X1.4272Y-7.5059
X1.4272Y-7.5846
X2.7559Y-7.3622
X2.815Y-7.2598
X2.815Y-7.4646
X2.9331Y-7.2598
X2.9331Y-7.4646
X2.9528Y-5.1181
X2.9921Y-7.3622
X3.0118Y-5.0157
X3.0118Y-5.2205
X3.1299Y-5.0157
X3.1299Y-5.2205
X3.189Y-5.1181
X3.5039Y-1.2598
X3.563Y-1.1575
X3.563Y-1.3622
X3.6811Y-1.1575
X3.6811Y-1.3622
X3.7402Y-1.2598
X4.5669Y-4.0945
X4.626Y-3.9921
X4.626Y-4.1969
X4.7441Y-3.9921
X4.7441Y-4.1969
X4.8031Y-4.0945
X5.7874Y-0.2362
X5.8465Y-0.1339
X5.8465Y-0.3386
X5.9646Y-0.1339
X5.9646Y-0.3386
X6.0236Y-0.2362
X7.4803Y-4.8819
X7.5394Y-4.7795
X7.5394Y-4.9843
X7.6575Y-4.7795
X7.6575Y-4.9843
X7.7165Y-4.8819
T6
X0.1772Y-0.4724
X0.1772Y-0.6102
X0.8661Y-5.9547
X0.8661Y-6.0925
X0.8661Y-6.3878
X0.8661Y-6.5256
X0.8661Y-6.7815
X0.8661Y-6.9193
X0.8661Y-7.3327
X0.8661Y-7.4705
X3.2972Y-7.4409
X3.5531Y-7.4409
X5.0984Y-2.6083
X5.0984Y-2.7067
X5.0984Y-3.6122
X5.0984Y-3.7106
X5.1181Y-0.5414
X5.1181Y-0.6398
X5.1181Y-0.8169
X5.1181Y-0.9153
X5.1181Y-1.0925
X5.1181Y-1.1909
X5.1181Y-1.3681
X5.1181Y-1.4665
X5.8858Y-2.6083
X5.8858Y-2.7067
X5.8858Y-3.6122
X5.8858Y-3.7106
X5.9055Y-0.5414
X5.9055Y-0.6398
X5.9055Y-0.8169
X5.9055Y-0.9153
X5.9055Y-1.0925
X5.9055Y-1.1909
X5.9055Y-1.3681
X5.9055Y-1.4665
X6.6929Y-2.6083
X6.6929Y-2.7067
X6.6929Y-3.6122
X6.6929Y-3.7106
X6.7126Y-0.5414
X6.7126Y-0.6398
X6.7126Y-0.8169
X6.7126Y-0.9153
X6.7126Y-1.0925
X6.7126Y-1.1909
X6.7126Y-1.3681
X6.7126Y-1.4665
X7.5Y-2.6083
X7.5Y-2.7067
X7.5197Y-0.5414
X7.5197Y-0.6398
X7.5197Y-0.8169
X7.5197Y-0.9153
X7.5197Y-1.0925
X7.5197Y-1.1909
X7.5197Y-1.3681
X7.5197Y-1.4665
X7.5197Y-3.6122
X7.5197Y-3.7106
T7
X0.1256Y-6.6579
X0.1256Y-6.7579
X0.1256Y-6.8579
X0.1256Y-6.9579
X0.1256Y-7.0579
X0.1256Y-7.1579
X0.1256Y-7.2579
X0.1256Y-7.3579
X0.4256Y-6.6579
X0.4256Y-6.7579
X0.4256Y-6.8579
X0.4256Y-6.9579
X0.4256Y-7.0579
X0.4256Y-7.1579
X0.4256Y-7.2579
X0.4256Y-7.3579
T8
X2.0079Y-6.9228
X2.0079Y-7.0228
X2.0079Y-7.1228
X2.0079Y-7.6228
X2.0079Y-7.7228
X2.4409Y-6.9228
X2.4409Y-7.0228
X2.4409Y-7.1228
X2.4409Y-7.6228
X2.4409Y-7.7228
T9
X0.1525Y-4.6638
X0.1525Y-4.8638
X0.1625Y-4.7638
X3.787Y-0.753
X3.873Y-3.2087
X3.883Y-3.1087
X3.883Y-3.3087
X3.887Y-0.743
X3.987Y-0.753
X3.9951Y-1.1386
X3.9951Y-1.3386
X3.9951Y-1.5386
X4.0051Y-1.2386
X4.0051Y-1.4386
X4.087Y-0.743
X4.0951Y-1.1386
X4.0951Y-1.3386
X4.0951Y-1.5386
X4.1051Y-1.2386
X4.1051Y-1.4386
X4.7819Y-7.6519
X4.7819Y-7.7519
X4.8819Y-7.6419
X4.8819Y-7.7419
X4.9819Y-7.6519
X4.9819Y-7.7519
X7.682Y-3.2177
X7.682Y-3.3177
X7.692Y-3.1177
X7.692Y-3.4177
T10
X4.5366Y-0.6561
X4.5366Y-0.7561
X4.5366Y-0.8561
X4.5366Y-0.9561
X4.5366Y-1.0561
X4.5366Y-1.2561
X4.5366Y-1.3561
X4.5366Y-1.4561
X4.5366Y-1.5561
X4.5366Y-1.6561
X4.5366Y-1.7561
X4.5366Y-1.8561
X4.5366Y-1.9561
X4.5366Y-2.0561
X4.5366Y-2.1561
X4.5366Y-2.2561
X4.5366Y-2.3561
X4.5366Y-2.4561
X4.5366Y-2.5561
X4.5366Y-2.6561
X4.5366Y-2.7561
X4.5366Y-2.8561
X4.5366Y-2.9561
X4.5366Y-3.0561
X4.5366Y-3.1561
X4.5366Y-3.2561
X4.5366Y-3.3561
X4.5366Y-3.4561
X4.5366Y-3.5561
X4.5366Y-3.6561
X4.6366Y-0.6061
X4.6366Y-0.7061
X4.6366Y-0.8061
X4.6366Y-0.9061
X4.6366Y-1.0061
X4.6366Y-1.1061
X4.6366Y-1.3061
X4.6366Y-1.4061
X4.6366Y-1.5061
X4.6366Y-1.6061
X4.6366Y-1.7061
X4.6366Y-1.8061
X4.6366Y-1.9061
X4.6366Y-2.0061
X4.6366Y-2.1061
X4.6366Y-2.2061
X4.6366Y-2.3061
X4.6366Y-2.4061
X4.6366Y-2.5061
X4.6366Y-2.6061
X4.6366Y-2.7061
X4.6366Y-2.8061
X4.6366Y-2.9061
X4.6366Y-3.0061
X4.6366Y-3.1061
X4.6366Y-3.2061
X4.6366Y-3.3061
X4.6366Y-3.4061
X4.6366Y-3.5061
X4.6366Y-3.6061
X4.7366Y-0.6561
X4.7366Y-0.7561
X4.7366Y-0.8561
X4.7366Y-0.9561
X4.7366Y-1.0561
X4.7366Y-1.2561
X4.7366Y-1.3561
X4.7366Y-1.4561
X4.7366Y-1.5561
X4.7366Y-1.6561
X4.7366Y-1.7561
X4.7366Y-1.8561
X4.7366Y-1.9561
X4.7366Y-2.0561
X4.7366Y-2.1561
X4.7366Y-2.2561
X4.7366Y-2.3561
X4.7366Y-2.4561
X4.7366Y-2.5561
X4.7366Y-2.6561
X4.7366Y-2.7561
X4.7366Y-2.8561
X4.7366Y-2.9561
X4.7366Y-3.0561
X4.7366Y-3.1561
X4.7366Y-3.2561
X4.7366Y-3.3561
X4.7366Y-3.4561
X4.7366Y-3.5561
X4.7366Y-3.6561
X4.8366Y-0.6061
X4.8366Y-0.7061
X4.8366Y-0.8061
X4.8366Y-0.9061
X4.8366Y-1.0061
X4.8366Y-1.1061
X4.8366Y-1.3061
X4.8366Y-1.4061
X4.8366Y-1.5061
X4.8366Y-1.6061
X4.8366Y-1.7061
X4.8366Y-1.8061
X4.8366Y-1.9061
X4.8366Y-2.0061
X4.8366Y-2.1061
X4.8366Y-2.2061
X4.8366Y-2.3061
X4.8366Y-2.4061
X4.8366Y-2.5061
X4.8366Y-2.6061
X4.8366Y-2.7061
X4.8366Y-2.8061
X4.8366Y-2.9061
X4.8366Y-3.0061
X4.8366Y-3.1061
X4.8366Y-3.2061
X4.8366Y-3.3061
X4.8366Y-3.4061
X4.8366Y-3.5061
X4.8366Y-3.6061
X5.3366Y-0.6561
X5.3366Y-0.7561
X5.3366Y-0.8561
X5.3366Y-0.9561
X5.3366Y-1.0561
X5.3366Y-1.2561
X5.3366Y-1.3561
X5.3366Y-1.4561
X5.3366Y-1.5561
X5.3366Y-1.6561
X5.3366Y-1.7561
X5.3366Y-1.8561
X5.3366Y-1.9561
X5.3366Y-2.0561
X5.3366Y-2.1561
X5.3366Y-2.2561
X5.3366Y-2.3561
X5.3366Y-2.4561
X5.3366Y-2.5561
X5.3366Y-2.6561
X5.3366Y-2.7561
X5.3366Y-2.8561
X5.3366Y-2.9561
X5.3366Y-3.0561
X5.3366Y-3.1561
X5.3366Y-3.2561
X5.3366Y-3.3561
X5.3366Y-3.4561
X5.3366Y-3.5561
X5.3366Y-3.6561
X5.4366Y-0.6061
X5.4366Y-0.7061
X5.4366Y-0.8061
X5.4366Y-0.9061
X5.4366Y-1.0061
X5.4366Y-1.1061
X5.4366Y-1.3061
X5.4366Y-1.4061
X5.4366Y-1.5061
X5.4366Y-1.6061
X5.4366Y-1.7061
X5.4366Y-1.8061
X5.4366Y-1.9061
X5.4366Y-2.0061
X5.4366Y-2.1061
X5.4366Y-2.2061
X5.4366Y-2.3061
X5.4366Y-2.4061
X5.4366Y-2.5061
X5.4366Y-2.6061
X5.4366Y-2.7061
X5.4366Y-2.8061
X5.4366Y-2.9061
X5.4366Y-3.0061
X5.4366Y-3.1061
X5.4366Y-3.2061
X5.4366Y-3.3061
X5.4366Y-3.4061
X5.4366Y-3.5061
X5.4366Y-3.6061
X5.5366Y-0.6561
X5.5366Y-0.7561
X5.5366Y-0.8561
X5.5366Y-0.9561
X5.5366Y-1.0561
X5.5366Y-1.2561
X5.5366Y-1.3561
X5.5366Y-1.4561
X5.5366Y-1.5561
X5.5366Y-1.6561
X5.5366Y-1.7561
X5.5366Y-1.8561
X5.5366Y-1.9561
X5.5366Y-2.0561
X5.5366Y-2.1561
X5.5366Y-2.2561
X5.5366Y-2.3561
X5.5366Y-2.4561
X5.5366Y-2.5561
X5.5366Y-2.6561
X5.5366Y-2.7561
X5.5366Y-2.8561
X5.5366Y-2.9561
X5.5366Y-3.0561
X5.5366Y-3.1561
X5.5366Y-3.2561
X5.5366Y-3.3561
X5.5366Y-3.4561
X5.5366Y-3.5561
X5.5366Y-3.6561
X5.6366Y-0.6061
X5.6366Y-0.7061
X5.6366Y-0.8061
X5.6366Y-0.9061
X5.6366Y-1.0061
X5.6366Y-1.1061
X5.6366Y-1.3061
X5.6366Y-1.4061
X5.6366Y-1.5061
X5.6366Y-1.6061
X5.6366Y-1.7061
X5.6366Y-1.8061
X5.6366Y-1.9061
X5.6366Y-2.0061
X5.6366Y-2.1061
X5.6366Y-2.2061
X5.6366Y-2.3061
X5.6366Y-2.4061
X5.6366Y-2.5061
X5.6366Y-2.6061
X5.6366Y-2.7061
X5.6366Y-2.8061
X5.6366Y-2.9061
X5.6366Y-3.0061
X5.6366Y-3.1061
X5.6366Y-3.2061
X5.6366Y-3.3061
X5.6366Y-3.4061
X5.6366Y-3.5061
X5.6366Y-3.6061
X6.1366Y-0.6561
X6.1366Y-0.7561
X6.1366Y-0.8561
X6.1366Y-0.9561
X6.1366Y-1.0561
X6.1366Y-1.2561
X6.1366Y-1.3561
X6.1366Y-1.4561
X6.1366Y-1.5561
X6.1366Y-1.6561
X6.1366Y-1.7561
X6.1366Y-1.8561
X6.1366Y-1.9561
X6.1366Y-2.0561
X6.1366Y-2.1561
X6.1366Y-2.2561
X6.1366Y-2.3561
X6.1366Y-2.4561
X6.1366Y-2.5561
X6.1366Y-2.6561
X6.1366Y-2.7561
X6.1366Y-2.8561
X6.1366Y-2.9561
X6.1366Y-3.0561
X6.1366Y-3.1561
X6.1366Y-3.2561
X6.1366Y-3.3561
X6.1366Y-3.4561
X6.1366Y-3.5561
X6.1366Y-3.6561
X6.2366Y-0.6061
X6.2366Y-0.7061
X6.2366Y-0.8061
X6.2366Y-0.9061
X6.2366Y-1.0061
X6.2366Y-1.1061
X6.2366Y-1.3061
X6.2366Y-1.4061
X6.2366Y-1.5061
X6.2366Y-1.6061
X6.2366Y-1.7061
X6.2366Y-1.8061
X6.2366Y-1.9061
X6.2366Y-2.0061
X6.2366Y-2.1061
X6.2366Y-2.2061
X6.2366Y-2.3061
X6.2366Y-2.4061
X6.2366Y-2.5061
X6.2366Y-2.6061
X6.2366Y-2.7061
X6.2366Y-2.8061
X6.2366Y-2.9061
X6.2366Y-3.0061
X6.2366Y-3.1061
X6.2366Y-3.2061
X6.2366Y-3.3061
X6.2366Y-3.4061
X6.2366Y-3.5061
X6.2366Y-3.6061
X6.3366Y-0.6561
X6.3366Y-0.7561
X6.3366Y-0.8561
X6.3366Y-0.9561
X6.3366Y-1.0561
X6.3366Y-1.2561
X6.3366Y-1.3561
X6.3366Y-1.4561
X6.3366Y-1.5561
X6.3366Y-1.6561
X6.3366Y-1.7561
X6.3366Y-1.8561
X6.3366Y-1.9561
X6.3366Y-2.0561
X6.3366Y-2.1561
X6.3366Y-2.2561
X6.3366Y-2.3561
X6.3366Y-2.4561
X6.3366Y-2.5561
X6.3366Y-2.6561
X6.3366Y-2.7561
X6.3366Y-2.8561
X6.3366Y-2.9561
X6.3366Y-3.0561
X6.3366Y-3.1561
X6.3366Y-3.2561
X6.3366Y-3.3561
X6.3366Y-3.4561
X6.3366Y-3.5561
X6.3366Y-3.6561
X6.4366Y-0.6061
X6.4366Y-0.7061
X6.4366Y-0.8061
X6.4366Y-0.9061
X6.4366Y-1.0061
X6.4366Y-1.1061
X6.4366Y-1.3061
X6.4366Y-1.4061
X6.4366Y-1.5061
X6.4366Y-1.6061
X6.4366Y-1.7061
X6.4366Y-1.8061
X6.4366Y-1.9061
X6.4366Y-2.0061
X6.4366Y-2.1061
X6.4366Y-2.2061
X6.4366Y-2.3061
X6.4366Y-2.4061
X6.4366Y-2.5061
X6.4366Y-2.6061
X6.4366Y-2.7061
X6.4366Y-2.8061
X6.4366Y-2.9061
X6.4366Y-3.0061
X6.4366Y-3.1061
X6.4366Y-3.2061
X6.4366Y-3.3061
X6.4366Y-3.4061
X6.4366Y-3.5061
X6.4366Y-3.6061
X6.9366Y-0.6561
X6.9366Y-0.7561
X6.9366Y-0.8561
X6.9366Y-0.9561
X6.9366Y-1.0561
X6.9366Y-1.2561
X6.9366Y-1.3561
X6.9366Y-1.4561
X6.9366Y-1.5561
X6.9366Y-1.6561
X6.9366Y-1.7561
X6.9366Y-1.8561
X6.9366Y-1.9561
X6.9366Y-2.0561
X6.9366Y-2.1561
X6.9366Y-2.2561
X6.9366Y-2.3561
X6.9366Y-2.4561
X6.9366Y-2.5561
X6.9366Y-2.6561
X6.9366Y-2.7561
X6.9366Y-2.8561
X6.9366Y-2.9561
X6.9366Y-3.0561
X6.9366Y-3.1561
X6.9366Y-3.2561
X6.9366Y-3.3561
X6.9366Y-3.4561
X6.9366Y-3.5561
X6.9366Y-3.6561
X7.0366Y-0.6061
X7.0366Y-0.7061
X7.0366Y-0.8061
X7.0366Y-0.9061
X7.0366Y-1.0061
X7.0366Y-1.1061
X7.0366Y-1.3061
X7.0366Y-1.4061
X7.0366Y-1.5061
X7.0366Y-1.6061
X7.0366Y-1.7061
X7.0366Y-1.8061
X7.0366Y-1.9061
X7.0366Y-2.0061
X7.0366Y-2.1061
X7.0366Y-2.2061
X7.0366Y-2.3061
X7.0366Y-2.4061
X7.0366Y-2.5061
X7.0366Y-2.6061
X7.0366Y-2.7061
X7.0366Y-2.8061
X7.0366Y-2.9061
X7.0366Y-3.0061
X7.0366Y-3.1061
X7.0366Y-3.2061
X7.0366Y-3.3061
X7.0366Y-3.4061
X7.0366Y-3.5061
X7.0366Y-3.6061
X7.1366Y-0.6561
X7.1366Y-0.7561
X7.1366Y-0.8561
X7.1366Y-0.9561
X7.1366Y-1.0561
X7.1366Y-1.2561
X7.1366Y-1.3561
X7.1366Y-1.4561
X7.1366Y-1.5561
X7.1366Y-1.6561
X7.1366Y-1.7561
X7.1366Y-1.8561
X7.1366Y-1.9561
X7.1366Y-2.0561
X7.1366Y-2.1561
X7.1366Y-2.2561
X7.1366Y-2.3561
X7.1366Y-2.4561
X7.1366Y-2.5561
X7.1366Y-2.6561
X7.1366Y-2.7561
X7.1366Y-2.8561
X7.1366Y-2.9561
X7.1366Y-3.0561
X7.1366Y-3.1561
X7.1366Y-3.2561
X7.1366Y-3.3561
X7.1366Y-3.4561
X7.1366Y-3.5561
X7.1366Y-3.6561
X7.2366Y-0.6061
X7.2366Y-0.7061
X7.2366Y-0.8061
X7.2366Y-0.9061
X7.2366Y-1.0061
X7.2366Y-1.1061
X7.2366Y-1.3061
X7.2366Y-1.4061
X7.2366Y-1.5061
X7.2366Y-1.6061
X7.2366Y-1.7061
X7.2366Y-1.8061
X7.2366Y-1.9061
X7.2366Y-2.0061
X7.2366Y-2.1061
X7.2366Y-2.2061
X7.2366Y-2.3061
X7.2366Y-2.4061
X7.2366Y-2.5061
X7.2366Y-2.6061
X7.2366Y-2.7061
X7.2366Y-2.8061
X7.2366Y-2.9061
X7.2366Y-3.0061
X7.2366Y-3.1061
X7.2366Y-3.2061
X7.2366Y-3.3061
X7.2366Y-3.4061
X7.2366Y-3.5061
X7.2366Y-3.6061
T11
X1.2417Y-0.424
X1.2967Y-0.324
X1.3517Y-0.424
X1.4067Y-0.324
X1.4567Y-0.424
X1.5117Y-0.324
X1.5667Y-0.424
X1.6217Y-0.324
X1.6767Y-0.424
T12
X0.9617Y-0.374
X1.9617Y-0.374
T13
X1.2992Y-4.0945
X2.874Y-7.3622
X3.0709Y-5.1181
X3.622Y-1.2598
X4.685Y-4.0945
X5.9055Y-0.2362
X7.5984Y-4.8819
T3
X2.5492Y-0.064G85X2.5492Y-0.0384
G05
X2.8248Y-0.064G85X2.8248Y-0.0384
G05
T4
X2.5945Y-0.1575G85X2.5827Y-0.1575
G05
X2.7913Y-0.1575G85X2.7795Y-0.1575
G05
T9
X0.5315Y-0.315G85X0.6102Y-0.315
G05
X0.5217Y-0.5512G85X0.6201Y-0.5512
G05
T0
M30
