G04 #@! TF.FileFunction,Profile,NP*
%FSLAX46Y46*%
G04 Gerber Fmt 4.6, Leading zero omitted, Abs format (unit mm)*
G04 Created by KiCad (PCBNEW (2016-09-03 BZR 7112, Git 24f6c4b)-product) date Mon Sep  5 22:12:06 2016*
%MOMM*%
%LPD*%
G01*
G04 APERTURE LIST*
%ADD10C,0.100000*%
%ADD11C,0.150000*%
G04 APERTURE END LIST*
D10*
D11*
X200000000Y-173000000D02*
G75*
G03X199500000Y-172500000I-500000J0D01*
G01*
X199500000Y-171500000D02*
G75*
G03X200000000Y-171000000I0J500000D01*
G01*
X193000000Y-171500000D02*
G75*
G03X193000000Y-172500000I0J-500000D01*
G01*
X193000000Y-187000000D02*
G75*
G03X193000000Y-188000000I0J-500000D01*
G01*
X200000000Y-188500000D02*
G75*
G03X199500000Y-188000000I-500000J0D01*
G01*
X199500000Y-187000000D02*
G75*
G03X200000000Y-186500000I0J500000D01*
G01*
X197500000Y-175000000D02*
G75*
G03X197500000Y-174000000I0J500000D01*
G01*
X193250000Y-174000000D02*
G75*
G03X192500000Y-174750000I0J-750000D01*
G01*
X194000000Y-175000000D02*
G75*
G03X193500000Y-175500000I0J-500000D01*
G01*
X192500000Y-184750000D02*
G75*
G03X193250000Y-185500000I750000J0D01*
G01*
X193500000Y-184000000D02*
G75*
G03X194000000Y-184500000I500000J0D01*
G01*
X198000000Y-185500000D02*
G75*
G03X198000000Y-184500000I0J500000D01*
G01*
X193000000Y-171500000D02*
X199500000Y-171500000D01*
X199500000Y-172500000D02*
X193000000Y-172500000D01*
X200000000Y-186500000D02*
X200000000Y-173000000D01*
X194000000Y-175000000D02*
X197500000Y-175000000D01*
X200000000Y-188500000D02*
X200000000Y-195000000D01*
X193000000Y-188000000D02*
X199500000Y-188000000D01*
X199500000Y-187000000D02*
X193000000Y-187000000D01*
X193250000Y-174000000D02*
X197500000Y-174000000D01*
X192500000Y-184750000D02*
X192500000Y-174750000D01*
X198000000Y-185500000D02*
X193250000Y-185500000D01*
X194000000Y-184500000D02*
X198000000Y-184500000D01*
X193500000Y-175500000D02*
X193500000Y-184000000D01*
X7000000Y-195000000D02*
G75*
G03X7000000Y-195000000I-2000000J0D01*
G01*
X197000000Y-195000000D02*
G75*
G03X197000000Y-195000000I-2000000J0D01*
G01*
X197000000Y-5000000D02*
G75*
G03X197000000Y-5000000I-2000000J0D01*
G01*
X7000000Y-5000000D02*
G75*
G03X7000000Y-5000000I-2000000J0D01*
G01*
X0Y-5000000D02*
X0Y-195000000D01*
X195000000Y0D02*
X5000000Y0D01*
X200000000Y-171000000D02*
X200000000Y-5000000D01*
X5000000Y-200000000D02*
X195000000Y-200000000D01*
X0Y-195000000D02*
G75*
G03X5000000Y-200000000I5000000J0D01*
G01*
X195000000Y-200000000D02*
G75*
G03X200000000Y-195000000I0J5000000D01*
G01*
X200000000Y-5000000D02*
G75*
G03X195000000Y0I-5000000J0D01*
G01*
X5000000Y0D02*
G75*
G03X0Y-5000000I0J-5000000D01*
G01*
M02*
