G04 #@! TF.FileFunction,Legend,Bot*
%FSLAX46Y46*%
G04 Gerber Fmt 4.6, Leading zero omitted, Abs format (unit mm)*
G04 Created by KiCad (PCBNEW (2016-09-03 BZR 7112, Git 24f6c4b)-product) date Mon Sep  5 22:12:06 2016*
%MOMM*%
%LPD*%
G01*
G04 APERTURE LIST*
%ADD10C,0.100000*%
%ADD11C,0.150000*%
%ADD12C,0.400000*%
%ADD13C,0.350000*%
%ADD14R,1.900000X1.900000*%
%ADD15C,2.000000*%
%ADD16C,1.500000*%
%ADD17R,2.686000X1.924000*%
%ADD18O,2.686000X1.924000*%
%ADD19O,1.924000X2.686000*%
%ADD20C,1.924000*%
%ADD21C,1.650000*%
%ADD22O,2.178000X1.700000*%
%ADD23C,2.750000*%
%ADD24C,1.400000*%
%ADD25R,1.400000X1.400000*%
%ADD26R,4.900000X2.400000*%
%ADD27O,5.400000X2.400000*%
%ADD28O,1.950000X1.950000*%
%ADD29O,1.650000X1.650000*%
%ADD30C,2.851100*%
%ADD31C,1.901140*%
%ADD32C,1.900000*%
%ADD33R,1.000000X1.050000*%
%ADD34R,1.050000X1.000000*%
%ADD35C,9.400000*%
%ADD36O,2.900000X2.300000*%
%ADD37C,4.400000*%
%ADD38R,1.924000X1.924000*%
%ADD39C,1.924000*%
%ADD40R,0.800000X0.850000*%
%ADD41R,0.850000X0.800000*%
%ADD42R,1.550000X1.850000*%
%ADD43C,0.254000*%
G04 APERTURE END LIST*
D10*
D11*
X82000000Y-62500000D02*
X82000000Y-61250000D01*
X81500000Y-63250000D02*
X82000000Y-62500000D01*
X81500000Y-68500000D02*
X81500000Y-63250000D01*
D12*
X18300000Y-35000000D02*
G75*
G03X18300000Y-35000000I-3300000J0D01*
G01*
D13*
X99929000Y-106029000D02*
X100071000Y-106029000D01*
X100071000Y-106029000D02*
X99929000Y-106029000D01*
X99929000Y-106971000D02*
X100071000Y-106971000D01*
X100071000Y-106971000D02*
X99929000Y-106971000D01*
X81929000Y-59779000D02*
X82071000Y-59779000D01*
X82071000Y-59779000D02*
X81929000Y-59779000D01*
X81929000Y-60721000D02*
X82071000Y-60721000D01*
X82071000Y-60721000D02*
X81929000Y-60721000D01*
X68929000Y-110029000D02*
X69071000Y-110029000D01*
X69071000Y-110029000D02*
X68929000Y-110029000D01*
X68929000Y-110971000D02*
X69071000Y-110971000D01*
X69071000Y-110971000D02*
X68929000Y-110971000D01*
D11*
X173000000Y-76466666D02*
X173033333Y-76433333D01*
X173066666Y-76333333D01*
X173066666Y-76266666D01*
X173033333Y-76166666D01*
X172966666Y-76100000D01*
X172900000Y-76066666D01*
X172766666Y-76033333D01*
X172666666Y-76033333D01*
X172533333Y-76066666D01*
X172466666Y-76100000D01*
X172400000Y-76166666D01*
X172366666Y-76266666D01*
X172366666Y-76333333D01*
X172400000Y-76433333D01*
X172433333Y-76466666D01*
X172600000Y-77066666D02*
X173066666Y-77066666D01*
X172333333Y-76900000D02*
X172833333Y-76733333D01*
X172833333Y-77166666D01*
X172600000Y-77733333D02*
X173066666Y-77733333D01*
X172333333Y-77566666D02*
X172833333Y-77400000D01*
X172833333Y-77833333D01*
X172433333Y-78066666D02*
X172400000Y-78100000D01*
X172366666Y-78166666D01*
X172366666Y-78333333D01*
X172400000Y-78400000D01*
X172433333Y-78433333D01*
X172500000Y-78466666D01*
X172566666Y-78466666D01*
X172666666Y-78433333D01*
X173066666Y-78033333D01*
X173066666Y-78466666D01*
X152750000Y-76466666D02*
X152783333Y-76433333D01*
X152816666Y-76333333D01*
X152816666Y-76266666D01*
X152783333Y-76166666D01*
X152716666Y-76100000D01*
X152650000Y-76066666D01*
X152516666Y-76033333D01*
X152416666Y-76033333D01*
X152283333Y-76066666D01*
X152216666Y-76100000D01*
X152150000Y-76166666D01*
X152116666Y-76266666D01*
X152116666Y-76333333D01*
X152150000Y-76433333D01*
X152183333Y-76466666D01*
X152350000Y-77066666D02*
X152816666Y-77066666D01*
X152083333Y-76900000D02*
X152583333Y-76733333D01*
X152583333Y-77166666D01*
X152116666Y-77366666D02*
X152116666Y-77800000D01*
X152383333Y-77566666D01*
X152383333Y-77666666D01*
X152416666Y-77733333D01*
X152450000Y-77766666D01*
X152516666Y-77800000D01*
X152683333Y-77800000D01*
X152750000Y-77766666D01*
X152783333Y-77733333D01*
X152816666Y-77666666D01*
X152816666Y-77466666D01*
X152783333Y-77400000D01*
X152750000Y-77366666D01*
X152116666Y-78033333D02*
X152116666Y-78500000D01*
X152816666Y-78200000D01*
X112250000Y-76216666D02*
X112283333Y-76183333D01*
X112316666Y-76083333D01*
X112316666Y-76016666D01*
X112283333Y-75916666D01*
X112216666Y-75850000D01*
X112150000Y-75816666D01*
X112016666Y-75783333D01*
X111916666Y-75783333D01*
X111783333Y-75816666D01*
X111716666Y-75850000D01*
X111650000Y-75916666D01*
X111616666Y-76016666D01*
X111616666Y-76083333D01*
X111650000Y-76183333D01*
X111683333Y-76216666D01*
X111850000Y-76816666D02*
X112316666Y-76816666D01*
X111583333Y-76650000D02*
X112083333Y-76483333D01*
X112083333Y-76916666D01*
X111616666Y-77116666D02*
X111616666Y-77550000D01*
X111883333Y-77316666D01*
X111883333Y-77416666D01*
X111916666Y-77483333D01*
X111950000Y-77516666D01*
X112016666Y-77550000D01*
X112183333Y-77550000D01*
X112250000Y-77516666D01*
X112283333Y-77483333D01*
X112316666Y-77416666D01*
X112316666Y-77216666D01*
X112283333Y-77150000D01*
X112250000Y-77116666D01*
X111616666Y-77983333D02*
X111616666Y-78050000D01*
X111650000Y-78116666D01*
X111683333Y-78150000D01*
X111750000Y-78183333D01*
X111883333Y-78216666D01*
X112050000Y-78216666D01*
X112183333Y-78183333D01*
X112250000Y-78150000D01*
X112283333Y-78116666D01*
X112316666Y-78050000D01*
X112316666Y-77983333D01*
X112283333Y-77916666D01*
X112250000Y-77883333D01*
X112183333Y-77850000D01*
X112050000Y-77816666D01*
X111883333Y-77816666D01*
X111750000Y-77850000D01*
X111683333Y-77883333D01*
X111650000Y-77916666D01*
X111616666Y-77983333D01*
X174033333Y-30500000D02*
X174066666Y-30533333D01*
X174166666Y-30566666D01*
X174233333Y-30566666D01*
X174333333Y-30533333D01*
X174400000Y-30466666D01*
X174433333Y-30400000D01*
X174466666Y-30266666D01*
X174466666Y-30166666D01*
X174433333Y-30033333D01*
X174400000Y-29966666D01*
X174333333Y-29900000D01*
X174233333Y-29866666D01*
X174166666Y-29866666D01*
X174066666Y-29900000D01*
X174033333Y-29933333D01*
X173433333Y-30100000D02*
X173433333Y-30566666D01*
X173600000Y-29833333D02*
X173766666Y-30333333D01*
X173333333Y-30333333D01*
X172766666Y-30100000D02*
X172766666Y-30566666D01*
X172933333Y-29833333D02*
X173100000Y-30333333D01*
X172666666Y-30333333D01*
X172033333Y-30566666D02*
X172433333Y-30566666D01*
X172233333Y-30566666D02*
X172233333Y-29866666D01*
X172300000Y-29966666D01*
X172366666Y-30033333D01*
X172433333Y-30066666D01*
X174033333Y-29000000D02*
X174066666Y-29033333D01*
X174166666Y-29066666D01*
X174233333Y-29066666D01*
X174333333Y-29033333D01*
X174400000Y-28966666D01*
X174433333Y-28900000D01*
X174466666Y-28766666D01*
X174466666Y-28666666D01*
X174433333Y-28533333D01*
X174400000Y-28466666D01*
X174333333Y-28400000D01*
X174233333Y-28366666D01*
X174166666Y-28366666D01*
X174066666Y-28400000D01*
X174033333Y-28433333D01*
X173433333Y-28600000D02*
X173433333Y-29066666D01*
X173600000Y-28333333D02*
X173766666Y-28833333D01*
X173333333Y-28833333D01*
X173133333Y-28366666D02*
X172700000Y-28366666D01*
X172933333Y-28633333D01*
X172833333Y-28633333D01*
X172766666Y-28666666D01*
X172733333Y-28700000D01*
X172700000Y-28766666D01*
X172700000Y-28933333D01*
X172733333Y-29000000D01*
X172766666Y-29033333D01*
X172833333Y-29066666D01*
X173033333Y-29066666D01*
X173100000Y-29033333D01*
X173133333Y-29000000D01*
X172100000Y-28366666D02*
X172233333Y-28366666D01*
X172300000Y-28400000D01*
X172333333Y-28433333D01*
X172400000Y-28533333D01*
X172433333Y-28666666D01*
X172433333Y-28933333D01*
X172400000Y-29000000D01*
X172366666Y-29033333D01*
X172300000Y-29066666D01*
X172166666Y-29066666D01*
X172100000Y-29033333D01*
X172066666Y-29000000D01*
X172033333Y-28933333D01*
X172033333Y-28766666D01*
X172066666Y-28700000D01*
X172100000Y-28666666D01*
X172166666Y-28633333D01*
X172300000Y-28633333D01*
X172366666Y-28666666D01*
X172400000Y-28700000D01*
X172433333Y-28766666D01*
X153533333Y-30500000D02*
X153566666Y-30533333D01*
X153666666Y-30566666D01*
X153733333Y-30566666D01*
X153833333Y-30533333D01*
X153900000Y-30466666D01*
X153933333Y-30400000D01*
X153966666Y-30266666D01*
X153966666Y-30166666D01*
X153933333Y-30033333D01*
X153900000Y-29966666D01*
X153833333Y-29900000D01*
X153733333Y-29866666D01*
X153666666Y-29866666D01*
X153566666Y-29900000D01*
X153533333Y-29933333D01*
X152933333Y-30100000D02*
X152933333Y-30566666D01*
X153100000Y-29833333D02*
X153266666Y-30333333D01*
X152833333Y-30333333D01*
X152633333Y-29866666D02*
X152200000Y-29866666D01*
X152433333Y-30133333D01*
X152333333Y-30133333D01*
X152266666Y-30166666D01*
X152233333Y-30200000D01*
X152200000Y-30266666D01*
X152200000Y-30433333D01*
X152233333Y-30500000D01*
X152266666Y-30533333D01*
X152333333Y-30566666D01*
X152533333Y-30566666D01*
X152600000Y-30533333D01*
X152633333Y-30500000D01*
X151533333Y-30566666D02*
X151933333Y-30566666D01*
X151733333Y-30566666D02*
X151733333Y-29866666D01*
X151800000Y-29966666D01*
X151866666Y-30033333D01*
X151933333Y-30066666D01*
X153533333Y-29000000D02*
X153566666Y-29033333D01*
X153666666Y-29066666D01*
X153733333Y-29066666D01*
X153833333Y-29033333D01*
X153900000Y-28966666D01*
X153933333Y-28900000D01*
X153966666Y-28766666D01*
X153966666Y-28666666D01*
X153933333Y-28533333D01*
X153900000Y-28466666D01*
X153833333Y-28400000D01*
X153733333Y-28366666D01*
X153666666Y-28366666D01*
X153566666Y-28400000D01*
X153533333Y-28433333D01*
X152933333Y-28600000D02*
X152933333Y-29066666D01*
X153100000Y-28333333D02*
X153266666Y-28833333D01*
X152833333Y-28833333D01*
X152600000Y-28433333D02*
X152566666Y-28400000D01*
X152500000Y-28366666D01*
X152333333Y-28366666D01*
X152266666Y-28400000D01*
X152233333Y-28433333D01*
X152200000Y-28500000D01*
X152200000Y-28566666D01*
X152233333Y-28666666D01*
X152633333Y-29066666D01*
X152200000Y-29066666D01*
X151866666Y-29066666D02*
X151733333Y-29066666D01*
X151666666Y-29033333D01*
X151633333Y-29000000D01*
X151566666Y-28900000D01*
X151533333Y-28766666D01*
X151533333Y-28500000D01*
X151566666Y-28433333D01*
X151600000Y-28400000D01*
X151666666Y-28366666D01*
X151800000Y-28366666D01*
X151866666Y-28400000D01*
X151900000Y-28433333D01*
X151933333Y-28500000D01*
X151933333Y-28666666D01*
X151900000Y-28733333D01*
X151866666Y-28766666D01*
X151800000Y-28800000D01*
X151666666Y-28800000D01*
X151600000Y-28766666D01*
X151566666Y-28733333D01*
X151533333Y-28666666D01*
X133283333Y-30500000D02*
X133316666Y-30533333D01*
X133416666Y-30566666D01*
X133483333Y-30566666D01*
X133583333Y-30533333D01*
X133650000Y-30466666D01*
X133683333Y-30400000D01*
X133716666Y-30266666D01*
X133716666Y-30166666D01*
X133683333Y-30033333D01*
X133650000Y-29966666D01*
X133583333Y-29900000D01*
X133483333Y-29866666D01*
X133416666Y-29866666D01*
X133316666Y-29900000D01*
X133283333Y-29933333D01*
X132683333Y-30100000D02*
X132683333Y-30566666D01*
X132850000Y-29833333D02*
X133016666Y-30333333D01*
X132583333Y-30333333D01*
X132350000Y-29933333D02*
X132316666Y-29900000D01*
X132250000Y-29866666D01*
X132083333Y-29866666D01*
X132016666Y-29900000D01*
X131983333Y-29933333D01*
X131950000Y-30000000D01*
X131950000Y-30066666D01*
X131983333Y-30166666D01*
X132383333Y-30566666D01*
X131950000Y-30566666D01*
X131550000Y-30166666D02*
X131616666Y-30133333D01*
X131650000Y-30100000D01*
X131683333Y-30033333D01*
X131683333Y-30000000D01*
X131650000Y-29933333D01*
X131616666Y-29900000D01*
X131550000Y-29866666D01*
X131416666Y-29866666D01*
X131350000Y-29900000D01*
X131316666Y-29933333D01*
X131283333Y-30000000D01*
X131283333Y-30033333D01*
X131316666Y-30100000D01*
X131350000Y-30133333D01*
X131416666Y-30166666D01*
X131550000Y-30166666D01*
X131616666Y-30200000D01*
X131650000Y-30233333D01*
X131683333Y-30300000D01*
X131683333Y-30433333D01*
X131650000Y-30500000D01*
X131616666Y-30533333D01*
X131550000Y-30566666D01*
X131416666Y-30566666D01*
X131350000Y-30533333D01*
X131316666Y-30500000D01*
X131283333Y-30433333D01*
X131283333Y-30300000D01*
X131316666Y-30233333D01*
X131350000Y-30200000D01*
X131416666Y-30166666D01*
X133283333Y-29000000D02*
X133316666Y-29033333D01*
X133416666Y-29066666D01*
X133483333Y-29066666D01*
X133583333Y-29033333D01*
X133650000Y-28966666D01*
X133683333Y-28900000D01*
X133716666Y-28766666D01*
X133716666Y-28666666D01*
X133683333Y-28533333D01*
X133650000Y-28466666D01*
X133583333Y-28400000D01*
X133483333Y-28366666D01*
X133416666Y-28366666D01*
X133316666Y-28400000D01*
X133283333Y-28433333D01*
X132683333Y-28600000D02*
X132683333Y-29066666D01*
X132850000Y-28333333D02*
X133016666Y-28833333D01*
X132583333Y-28833333D01*
X132350000Y-28433333D02*
X132316666Y-28400000D01*
X132250000Y-28366666D01*
X132083333Y-28366666D01*
X132016666Y-28400000D01*
X131983333Y-28433333D01*
X131950000Y-28500000D01*
X131950000Y-28566666D01*
X131983333Y-28666666D01*
X132383333Y-29066666D01*
X131950000Y-29066666D01*
X131716666Y-28366666D02*
X131250000Y-28366666D01*
X131550000Y-29066666D01*
X112533333Y-30500000D02*
X112566666Y-30533333D01*
X112666666Y-30566666D01*
X112733333Y-30566666D01*
X112833333Y-30533333D01*
X112900000Y-30466666D01*
X112933333Y-30400000D01*
X112966666Y-30266666D01*
X112966666Y-30166666D01*
X112933333Y-30033333D01*
X112900000Y-29966666D01*
X112833333Y-29900000D01*
X112733333Y-29866666D01*
X112666666Y-29866666D01*
X112566666Y-29900000D01*
X112533333Y-29933333D01*
X111933333Y-30100000D02*
X111933333Y-30566666D01*
X112100000Y-29833333D02*
X112266666Y-30333333D01*
X111833333Y-30333333D01*
X111600000Y-29933333D02*
X111566666Y-29900000D01*
X111500000Y-29866666D01*
X111333333Y-29866666D01*
X111266666Y-29900000D01*
X111233333Y-29933333D01*
X111200000Y-30000000D01*
X111200000Y-30066666D01*
X111233333Y-30166666D01*
X111633333Y-30566666D01*
X111200000Y-30566666D01*
X110600000Y-29866666D02*
X110733333Y-29866666D01*
X110800000Y-29900000D01*
X110833333Y-29933333D01*
X110900000Y-30033333D01*
X110933333Y-30166666D01*
X110933333Y-30433333D01*
X110900000Y-30500000D01*
X110866666Y-30533333D01*
X110800000Y-30566666D01*
X110666666Y-30566666D01*
X110600000Y-30533333D01*
X110566666Y-30500000D01*
X110533333Y-30433333D01*
X110533333Y-30266666D01*
X110566666Y-30200000D01*
X110600000Y-30166666D01*
X110666666Y-30133333D01*
X110800000Y-30133333D01*
X110866666Y-30166666D01*
X110900000Y-30200000D01*
X110933333Y-30266666D01*
X112533333Y-29000000D02*
X112566666Y-29033333D01*
X112666666Y-29066666D01*
X112733333Y-29066666D01*
X112833333Y-29033333D01*
X112900000Y-28966666D01*
X112933333Y-28900000D01*
X112966666Y-28766666D01*
X112966666Y-28666666D01*
X112933333Y-28533333D01*
X112900000Y-28466666D01*
X112833333Y-28400000D01*
X112733333Y-28366666D01*
X112666666Y-28366666D01*
X112566666Y-28400000D01*
X112533333Y-28433333D01*
X111933333Y-28600000D02*
X111933333Y-29066666D01*
X112100000Y-28333333D02*
X112266666Y-28833333D01*
X111833333Y-28833333D01*
X111600000Y-28433333D02*
X111566666Y-28400000D01*
X111500000Y-28366666D01*
X111333333Y-28366666D01*
X111266666Y-28400000D01*
X111233333Y-28433333D01*
X111200000Y-28500000D01*
X111200000Y-28566666D01*
X111233333Y-28666666D01*
X111633333Y-29066666D01*
X111200000Y-29066666D01*
X110566666Y-28366666D02*
X110900000Y-28366666D01*
X110933333Y-28700000D01*
X110900000Y-28666666D01*
X110833333Y-28633333D01*
X110666666Y-28633333D01*
X110600000Y-28666666D01*
X110566666Y-28700000D01*
X110533333Y-28766666D01*
X110533333Y-28933333D01*
X110566666Y-29000000D01*
X110600000Y-29033333D01*
X110666666Y-29066666D01*
X110833333Y-29066666D01*
X110900000Y-29033333D01*
X110933333Y-29000000D01*
X132500000Y-76466666D02*
X132533333Y-76433333D01*
X132566666Y-76333333D01*
X132566666Y-76266666D01*
X132533333Y-76166666D01*
X132466666Y-76100000D01*
X132400000Y-76066666D01*
X132266666Y-76033333D01*
X132166666Y-76033333D01*
X132033333Y-76066666D01*
X131966666Y-76100000D01*
X131900000Y-76166666D01*
X131866666Y-76266666D01*
X131866666Y-76333333D01*
X131900000Y-76433333D01*
X131933333Y-76466666D01*
X132100000Y-77066666D02*
X132566666Y-77066666D01*
X131833333Y-76900000D02*
X132333333Y-76733333D01*
X132333333Y-77166666D01*
X131866666Y-77366666D02*
X131866666Y-77800000D01*
X132133333Y-77566666D01*
X132133333Y-77666666D01*
X132166666Y-77733333D01*
X132200000Y-77766666D01*
X132266666Y-77800000D01*
X132433333Y-77800000D01*
X132500000Y-77766666D01*
X132533333Y-77733333D01*
X132566666Y-77666666D01*
X132566666Y-77466666D01*
X132533333Y-77400000D01*
X132500000Y-77366666D01*
X131933333Y-78066666D02*
X131900000Y-78100000D01*
X131866666Y-78166666D01*
X131866666Y-78333333D01*
X131900000Y-78400000D01*
X131933333Y-78433333D01*
X132000000Y-78466666D01*
X132066666Y-78466666D01*
X132166666Y-78433333D01*
X132566666Y-78033333D01*
X132566666Y-78466666D01*
X102785714Y-105223809D02*
X102823809Y-105185714D01*
X102861904Y-105071428D01*
X102861904Y-104995238D01*
X102823809Y-104880952D01*
X102747619Y-104804761D01*
X102671428Y-104766666D01*
X102519047Y-104728571D01*
X102404761Y-104728571D01*
X102252380Y-104766666D01*
X102176190Y-104804761D01*
X102100000Y-104880952D01*
X102061904Y-104995238D01*
X102061904Y-105071428D01*
X102100000Y-105185714D01*
X102138095Y-105223809D01*
X102861904Y-105985714D02*
X102861904Y-105528571D01*
X102861904Y-105757142D02*
X102061904Y-105757142D01*
X102176190Y-105680952D01*
X102252380Y-105604761D01*
X102290476Y-105528571D01*
X102061904Y-106480952D02*
X102061904Y-106557142D01*
X102100000Y-106633333D01*
X102138095Y-106671428D01*
X102214285Y-106709523D01*
X102366666Y-106747619D01*
X102557142Y-106747619D01*
X102709523Y-106709523D01*
X102785714Y-106671428D01*
X102823809Y-106633333D01*
X102861904Y-106557142D01*
X102861904Y-106480952D01*
X102823809Y-106404761D01*
X102785714Y-106366666D01*
X102709523Y-106328571D01*
X102557142Y-106290476D01*
X102366666Y-106290476D01*
X102214285Y-106328571D01*
X102138095Y-106366666D01*
X102100000Y-106404761D01*
X102061904Y-106480952D01*
X102061904Y-107471428D02*
X102061904Y-107090476D01*
X102442857Y-107052380D01*
X102404761Y-107090476D01*
X102366666Y-107166666D01*
X102366666Y-107357142D01*
X102404761Y-107433333D01*
X102442857Y-107471428D01*
X102519047Y-107509523D01*
X102709523Y-107509523D01*
X102785714Y-107471428D01*
X102823809Y-107433333D01*
X102861904Y-107357142D01*
X102861904Y-107166666D01*
X102823809Y-107090476D01*
X102785714Y-107052380D01*
X102328571Y-108195238D02*
X102861904Y-108195238D01*
X102023809Y-108004761D02*
X102595238Y-107814285D01*
X102595238Y-108309523D01*
X81476190Y-69685714D02*
X81514285Y-69723809D01*
X81628571Y-69761904D01*
X81704761Y-69761904D01*
X81819047Y-69723809D01*
X81895238Y-69647619D01*
X81933333Y-69571428D01*
X81971428Y-69419047D01*
X81971428Y-69304761D01*
X81933333Y-69152380D01*
X81895238Y-69076190D01*
X81819047Y-69000000D01*
X81704761Y-68961904D01*
X81628571Y-68961904D01*
X81514285Y-69000000D01*
X81476190Y-69038095D01*
X80714285Y-69761904D02*
X81171428Y-69761904D01*
X80942857Y-69761904D02*
X80942857Y-68961904D01*
X81019047Y-69076190D01*
X81095238Y-69152380D01*
X81171428Y-69190476D01*
X80219047Y-68961904D02*
X80142857Y-68961904D01*
X80066666Y-69000000D01*
X80028571Y-69038095D01*
X79990476Y-69114285D01*
X79952380Y-69266666D01*
X79952380Y-69457142D01*
X79990476Y-69609523D01*
X80028571Y-69685714D01*
X80066666Y-69723809D01*
X80142857Y-69761904D01*
X80219047Y-69761904D01*
X80295238Y-69723809D01*
X80333333Y-69685714D01*
X80371428Y-69609523D01*
X80409523Y-69457142D01*
X80409523Y-69266666D01*
X80371428Y-69114285D01*
X80333333Y-69038095D01*
X80295238Y-69000000D01*
X80219047Y-68961904D01*
X79228571Y-68961904D02*
X79609523Y-68961904D01*
X79647619Y-69342857D01*
X79609523Y-69304761D01*
X79533333Y-69266666D01*
X79342857Y-69266666D01*
X79266666Y-69304761D01*
X79228571Y-69342857D01*
X79190476Y-69419047D01*
X79190476Y-69609523D01*
X79228571Y-69685714D01*
X79266666Y-69723809D01*
X79342857Y-69761904D01*
X79533333Y-69761904D01*
X79609523Y-69723809D01*
X79647619Y-69685714D01*
X78885714Y-69038095D02*
X78847619Y-69000000D01*
X78771428Y-68961904D01*
X78580952Y-68961904D01*
X78504761Y-69000000D01*
X78466666Y-69038095D01*
X78428571Y-69114285D01*
X78428571Y-69190476D01*
X78466666Y-69304761D01*
X78923809Y-69761904D01*
X78428571Y-69761904D01*
X74285714Y-109223809D02*
X74323809Y-109185714D01*
X74361904Y-109071428D01*
X74361904Y-108995238D01*
X74323809Y-108880952D01*
X74247619Y-108804761D01*
X74171428Y-108766666D01*
X74019047Y-108728571D01*
X73904761Y-108728571D01*
X73752380Y-108766666D01*
X73676190Y-108804761D01*
X73600000Y-108880952D01*
X73561904Y-108995238D01*
X73561904Y-109071428D01*
X73600000Y-109185714D01*
X73638095Y-109223809D01*
X74361904Y-109985714D02*
X74361904Y-109528571D01*
X74361904Y-109757142D02*
X73561904Y-109757142D01*
X73676190Y-109680952D01*
X73752380Y-109604761D01*
X73790476Y-109528571D01*
X73561904Y-110480952D02*
X73561904Y-110557142D01*
X73600000Y-110633333D01*
X73638095Y-110671428D01*
X73714285Y-110709523D01*
X73866666Y-110747619D01*
X74057142Y-110747619D01*
X74209523Y-110709523D01*
X74285714Y-110671428D01*
X74323809Y-110633333D01*
X74361904Y-110557142D01*
X74361904Y-110480952D01*
X74323809Y-110404761D01*
X74285714Y-110366666D01*
X74209523Y-110328571D01*
X74057142Y-110290476D01*
X73866666Y-110290476D01*
X73714285Y-110328571D01*
X73638095Y-110366666D01*
X73600000Y-110404761D01*
X73561904Y-110480952D01*
X73561904Y-111471428D02*
X73561904Y-111090476D01*
X73942857Y-111052380D01*
X73904761Y-111090476D01*
X73866666Y-111166666D01*
X73866666Y-111357142D01*
X73904761Y-111433333D01*
X73942857Y-111471428D01*
X74019047Y-111509523D01*
X74209523Y-111509523D01*
X74285714Y-111471428D01*
X74323809Y-111433333D01*
X74361904Y-111357142D01*
X74361904Y-111166666D01*
X74323809Y-111090476D01*
X74285714Y-111052380D01*
X73561904Y-111776190D02*
X73561904Y-112271428D01*
X73866666Y-112004761D01*
X73866666Y-112119047D01*
X73904761Y-112195238D01*
X73942857Y-112233333D01*
X74019047Y-112271428D01*
X74209523Y-112271428D01*
X74285714Y-112233333D01*
X74323809Y-112195238D01*
X74361904Y-112119047D01*
X74361904Y-111890476D01*
X74323809Y-111814285D01*
X74285714Y-111776190D01*
%LPC*%
D14*
X4500000Y-15500060D03*
X4500000Y-11999940D03*
D15*
X33000000Y-89400000D03*
D16*
X33000000Y-22600000D03*
D17*
X98627000Y-84040000D03*
D18*
X98373000Y-81500000D03*
X98627000Y-78960000D03*
D19*
X121460000Y-197151000D03*
X124000000Y-196897000D03*
X126540000Y-197151000D03*
X121460000Y-194103000D03*
X124000000Y-193849000D03*
X126540000Y-194103000D03*
D17*
X195377000Y-79190000D03*
D18*
X195123000Y-81730000D03*
X195123000Y-84270000D03*
X195377000Y-86810000D03*
D17*
X3873000Y-118460000D03*
D18*
X4127000Y-121000000D03*
X3873000Y-123540000D03*
D10*
G36*
X94826683Y-20059984D02*
X95745349Y-17535969D01*
X97553317Y-18194016D01*
X96634651Y-20718031D01*
X94826683Y-20059984D01*
X94826683Y-20059984D01*
G37*
D20*
X98860310Y-18514977D02*
X98599690Y-19231023D01*
X101400310Y-18768977D02*
X101139690Y-19485023D01*
X103940310Y-18514977D02*
X103679690Y-19231023D01*
D21*
X101270000Y-16840000D03*
D17*
X101222000Y-28920000D03*
D18*
X101476000Y-31460000D03*
X101222000Y-34000000D03*
X101476000Y-36540000D03*
X101222000Y-39080000D03*
X104270000Y-28920000D03*
X104524000Y-31460000D03*
X104270000Y-34000000D03*
X104524000Y-36540000D03*
X104270000Y-39080000D03*
D22*
X3190000Y-169110000D03*
X3190000Y-171650000D03*
X3190000Y-174190000D03*
X3190000Y-176730000D03*
X3190000Y-179270000D03*
X3190000Y-181810000D03*
X3190000Y-184350000D03*
X3190000Y-186890000D03*
X10810000Y-186890000D03*
X10810000Y-184350000D03*
X10810000Y-181810000D03*
X10810000Y-179270000D03*
X10810000Y-176730000D03*
X10810000Y-174190000D03*
X10810000Y-171650000D03*
X10810000Y-169110000D03*
D23*
X33000000Y-182000000D03*
D24*
X34250000Y-193650000D03*
X36250000Y-192650000D03*
X34250000Y-191650000D03*
X36250000Y-190650000D03*
X34250000Y-189650000D03*
X36250000Y-188650000D03*
X34250000Y-187650000D03*
X36250000Y-186650000D03*
X34250000Y-185650000D03*
X36250000Y-184650000D03*
X34250000Y-183650000D03*
D25*
X31750000Y-193650000D03*
D24*
X29750000Y-192650000D03*
X31750000Y-191650000D03*
X29750000Y-190650000D03*
X31750000Y-189650000D03*
X29750000Y-188650000D03*
X31750000Y-187650000D03*
X29750000Y-186650000D03*
X31750000Y-185650000D03*
X29750000Y-184650000D03*
X31750000Y-183650000D03*
X36250000Y-180650000D03*
X34250000Y-179650000D03*
X36250000Y-178650000D03*
X34250000Y-177650000D03*
X36250000Y-176650000D03*
X34250000Y-175650000D03*
X36250000Y-174650000D03*
X34250000Y-173650000D03*
X36250000Y-172650000D03*
X34250000Y-171650000D03*
X36250000Y-170650000D03*
X34250000Y-169650000D03*
X36250000Y-168650000D03*
X34250000Y-167650000D03*
X36250000Y-166650000D03*
X34250000Y-165650000D03*
X36250000Y-164650000D03*
X34250000Y-163650000D03*
X36250000Y-162650000D03*
X34250000Y-161650000D03*
X36250000Y-160650000D03*
X34250000Y-159650000D03*
X36250000Y-158650000D03*
X34250000Y-157650000D03*
X36250000Y-156650000D03*
X34250000Y-155650000D03*
X36250000Y-154650000D03*
X34250000Y-153650000D03*
X36250000Y-152650000D03*
X34250000Y-151650000D03*
X36250000Y-150650000D03*
X34250000Y-149650000D03*
X36250000Y-148650000D03*
X34250000Y-147650000D03*
X36250000Y-146650000D03*
X34250000Y-145650000D03*
X36250000Y-144650000D03*
X34250000Y-143650000D03*
X29750000Y-180650000D03*
X31750000Y-179650000D03*
X29750000Y-178650000D03*
X31750000Y-177650000D03*
X29750000Y-176650000D03*
X31750000Y-175650000D03*
X29750000Y-174650000D03*
X31750000Y-173650000D03*
X29750000Y-172650000D03*
X31750000Y-171650000D03*
X29750000Y-170650000D03*
X31750000Y-169650000D03*
X29750000Y-168650000D03*
X31750000Y-167650000D03*
X29750000Y-166650000D03*
X31750000Y-165650000D03*
X29750000Y-164650000D03*
X31750000Y-163650000D03*
X29750000Y-162650000D03*
X31750000Y-161650000D03*
X29750000Y-160650000D03*
X31750000Y-159650000D03*
X29750000Y-158650000D03*
X31750000Y-157650000D03*
X29750000Y-156650000D03*
X31750000Y-155650000D03*
X29750000Y-154650000D03*
X31750000Y-153650000D03*
X29750000Y-152650000D03*
X31750000Y-151650000D03*
X29750000Y-150650000D03*
X31750000Y-149650000D03*
X29750000Y-148650000D03*
X31750000Y-147650000D03*
X29750000Y-146650000D03*
X31750000Y-145650000D03*
X29750000Y-144650000D03*
X31750000Y-143650000D03*
D23*
X33000000Y-141850000D03*
D26*
X14500000Y-14000000D03*
D27*
X14500000Y-8000000D03*
D28*
X71750000Y-1300000D03*
X64750000Y-1300000D03*
D29*
X70750000Y-4000000D03*
X65750000Y-4000000D03*
D30*
X180000000Y-30000000D03*
D31*
X176190000Y-92865000D03*
X181270000Y-92865000D03*
D30*
X180000000Y-94770000D03*
D31*
X178730000Y-91595000D03*
X183810000Y-91595000D03*
X176190000Y-90325000D03*
X176190000Y-87785000D03*
X176190000Y-85245000D03*
X176190000Y-82705000D03*
X176190000Y-80165000D03*
X176190000Y-77625000D03*
X176190000Y-75085000D03*
X176190000Y-72545000D03*
X176190000Y-70005000D03*
X176190000Y-67465000D03*
X176190000Y-64925000D03*
X176190000Y-62385000D03*
X176190000Y-59845000D03*
X176190000Y-57305000D03*
X176190000Y-54765000D03*
X178730000Y-89055000D03*
X178730000Y-86515000D03*
X178730000Y-83975000D03*
X178730000Y-81435000D03*
X178730000Y-78895000D03*
X178730000Y-76355000D03*
X178730000Y-73815000D03*
X178730000Y-71275000D03*
X178730000Y-68735000D03*
X178730000Y-66195000D03*
X178730000Y-63655000D03*
X178730000Y-61115000D03*
X178730000Y-58575000D03*
X178730000Y-56035000D03*
X178730000Y-53495000D03*
X176190000Y-52225000D03*
X178730000Y-50955000D03*
X176190000Y-49685000D03*
X178730000Y-48415000D03*
X176190000Y-47145000D03*
X178730000Y-45875000D03*
X176190000Y-44605000D03*
X178730000Y-43335000D03*
X176190000Y-42065000D03*
X178730000Y-40795000D03*
X176190000Y-39525000D03*
X178730000Y-38255000D03*
X176190000Y-36985000D03*
X178730000Y-35715000D03*
X176190000Y-34445000D03*
X178730000Y-33175000D03*
X176190000Y-31905000D03*
X178730000Y-28095000D03*
X176190000Y-26825000D03*
X178730000Y-25555000D03*
X176190000Y-24285000D03*
X178730000Y-23015000D03*
X176190000Y-21745000D03*
X178730000Y-20475000D03*
X176190000Y-19205000D03*
X178730000Y-17935000D03*
X176190000Y-16665000D03*
X178730000Y-15395000D03*
X181270000Y-90325000D03*
X183810000Y-89055000D03*
X181270000Y-87785000D03*
X183810000Y-86515000D03*
X181270000Y-85245000D03*
X183810000Y-83975000D03*
X181270000Y-82705000D03*
X183810000Y-81435000D03*
X181270000Y-80165000D03*
X183810000Y-78895000D03*
X181270000Y-77625000D03*
X183810000Y-76355000D03*
X181270000Y-75085000D03*
X183810000Y-73815000D03*
X181270000Y-72545000D03*
X183810000Y-71275000D03*
X181270000Y-70005000D03*
X183810000Y-68735000D03*
X181270000Y-67465000D03*
X183810000Y-66195000D03*
X181270000Y-64925000D03*
X183810000Y-63655000D03*
X181270000Y-62385000D03*
X183810000Y-61115000D03*
X181270000Y-59845000D03*
X183810000Y-58575000D03*
X181270000Y-57305000D03*
X183810000Y-56035000D03*
X181270000Y-54765000D03*
X183810000Y-53495000D03*
X181270000Y-52225000D03*
X183810000Y-50955000D03*
X181270000Y-49685000D03*
X183810000Y-48415000D03*
X181270000Y-47145000D03*
X183810000Y-45875000D03*
X181270000Y-44605000D03*
X183810000Y-43335000D03*
X181270000Y-42065000D03*
X183810000Y-40795000D03*
X181270000Y-39525000D03*
X183810000Y-38255000D03*
X181270000Y-36985000D03*
X183810000Y-35715000D03*
X181270000Y-34445000D03*
X183810000Y-33175000D03*
X181270000Y-31905000D03*
X183810000Y-28095000D03*
X181270000Y-26825000D03*
X183810000Y-25555000D03*
X181270000Y-24285000D03*
X183810000Y-23015000D03*
X181270000Y-21745000D03*
X183810000Y-20475000D03*
X181270000Y-19205000D03*
X183810000Y-17935000D03*
X181270000Y-16665000D03*
X183810000Y-15395000D03*
D30*
X159680000Y-30000000D03*
D31*
X155870000Y-92865000D03*
X160950000Y-92865000D03*
D30*
X159680000Y-94770000D03*
D31*
X158410000Y-91595000D03*
X163490000Y-91595000D03*
X155870000Y-90325000D03*
X155870000Y-87785000D03*
X155870000Y-85245000D03*
X155870000Y-82705000D03*
X155870000Y-80165000D03*
X155870000Y-77625000D03*
X155870000Y-75085000D03*
X155870000Y-72545000D03*
X155870000Y-70005000D03*
X155870000Y-67465000D03*
X155870000Y-64925000D03*
X155870000Y-62385000D03*
X155870000Y-59845000D03*
X155870000Y-57305000D03*
X155870000Y-54765000D03*
X158410000Y-89055000D03*
X158410000Y-86515000D03*
X158410000Y-83975000D03*
X158410000Y-81435000D03*
X158410000Y-78895000D03*
X158410000Y-76355000D03*
X158410000Y-73815000D03*
X158410000Y-71275000D03*
X158410000Y-68735000D03*
X158410000Y-66195000D03*
X158410000Y-63655000D03*
X158410000Y-61115000D03*
X158410000Y-58575000D03*
X158410000Y-56035000D03*
X158410000Y-53495000D03*
X155870000Y-52225000D03*
X158410000Y-50955000D03*
X155870000Y-49685000D03*
X158410000Y-48415000D03*
X155870000Y-47145000D03*
X158410000Y-45875000D03*
X155870000Y-44605000D03*
X158410000Y-43335000D03*
X155870000Y-42065000D03*
X158410000Y-40795000D03*
X155870000Y-39525000D03*
X158410000Y-38255000D03*
X155870000Y-36985000D03*
X158410000Y-35715000D03*
X155870000Y-34445000D03*
X158410000Y-33175000D03*
X155870000Y-31905000D03*
X158410000Y-28095000D03*
X155870000Y-26825000D03*
X158410000Y-25555000D03*
X155870000Y-24285000D03*
X158410000Y-23015000D03*
X155870000Y-21745000D03*
X158410000Y-20475000D03*
X155870000Y-19205000D03*
X158410000Y-17935000D03*
X155870000Y-16665000D03*
X158410000Y-15395000D03*
X160950000Y-90325000D03*
X163490000Y-89055000D03*
X160950000Y-87785000D03*
X163490000Y-86515000D03*
X160950000Y-85245000D03*
X163490000Y-83975000D03*
X160950000Y-82705000D03*
X163490000Y-81435000D03*
X160950000Y-80165000D03*
X163490000Y-78895000D03*
X160950000Y-77625000D03*
X163490000Y-76355000D03*
X160950000Y-75085000D03*
X163490000Y-73815000D03*
X160950000Y-72545000D03*
X163490000Y-71275000D03*
X160950000Y-70005000D03*
X163490000Y-68735000D03*
X160950000Y-67465000D03*
X163490000Y-66195000D03*
X160950000Y-64925000D03*
X163490000Y-63655000D03*
X160950000Y-62385000D03*
X163490000Y-61115000D03*
X160950000Y-59845000D03*
X163490000Y-58575000D03*
X160950000Y-57305000D03*
X163490000Y-56035000D03*
X160950000Y-54765000D03*
X163490000Y-53495000D03*
X160950000Y-52225000D03*
X163490000Y-50955000D03*
X160950000Y-49685000D03*
X163490000Y-48415000D03*
X160950000Y-47145000D03*
X163490000Y-45875000D03*
X160950000Y-44605000D03*
X163490000Y-43335000D03*
X160950000Y-42065000D03*
X163490000Y-40795000D03*
X160950000Y-39525000D03*
X163490000Y-38255000D03*
X160950000Y-36985000D03*
X163490000Y-35715000D03*
X160950000Y-34445000D03*
X163490000Y-33175000D03*
X160950000Y-31905000D03*
X163490000Y-28095000D03*
X160950000Y-26825000D03*
X163490000Y-25555000D03*
X160950000Y-24285000D03*
X163490000Y-23015000D03*
X160950000Y-21745000D03*
X163490000Y-20475000D03*
X160950000Y-19205000D03*
X163490000Y-17935000D03*
X160950000Y-16665000D03*
X163490000Y-15395000D03*
D30*
X139360000Y-30000000D03*
D31*
X135550000Y-92865000D03*
X140630000Y-92865000D03*
D30*
X139360000Y-94770000D03*
D31*
X138090000Y-91595000D03*
X143170000Y-91595000D03*
X135550000Y-90325000D03*
X135550000Y-87785000D03*
X135550000Y-85245000D03*
X135550000Y-82705000D03*
X135550000Y-80165000D03*
X135550000Y-77625000D03*
X135550000Y-75085000D03*
X135550000Y-72545000D03*
X135550000Y-70005000D03*
X135550000Y-67465000D03*
X135550000Y-64925000D03*
X135550000Y-62385000D03*
X135550000Y-59845000D03*
X135550000Y-57305000D03*
X135550000Y-54765000D03*
X138090000Y-89055000D03*
X138090000Y-86515000D03*
X138090000Y-83975000D03*
X138090000Y-81435000D03*
X138090000Y-78895000D03*
X138090000Y-76355000D03*
X138090000Y-73815000D03*
X138090000Y-71275000D03*
X138090000Y-68735000D03*
X138090000Y-66195000D03*
X138090000Y-63655000D03*
X138090000Y-61115000D03*
X138090000Y-58575000D03*
X138090000Y-56035000D03*
X138090000Y-53495000D03*
X135550000Y-52225000D03*
X138090000Y-50955000D03*
X135550000Y-49685000D03*
X138090000Y-48415000D03*
X135550000Y-47145000D03*
X138090000Y-45875000D03*
X135550000Y-44605000D03*
X138090000Y-43335000D03*
X135550000Y-42065000D03*
X138090000Y-40795000D03*
X135550000Y-39525000D03*
X138090000Y-38255000D03*
X135550000Y-36985000D03*
X138090000Y-35715000D03*
X135550000Y-34445000D03*
X138090000Y-33175000D03*
X135550000Y-31905000D03*
X138090000Y-28095000D03*
X135550000Y-26825000D03*
X138090000Y-25555000D03*
X135550000Y-24285000D03*
X138090000Y-23015000D03*
X135550000Y-21745000D03*
X138090000Y-20475000D03*
X135550000Y-19205000D03*
X138090000Y-17935000D03*
X135550000Y-16665000D03*
X138090000Y-15395000D03*
X140630000Y-90325000D03*
X143170000Y-89055000D03*
X140630000Y-87785000D03*
X143170000Y-86515000D03*
X140630000Y-85245000D03*
X143170000Y-83975000D03*
X140630000Y-82705000D03*
X143170000Y-81435000D03*
X140630000Y-80165000D03*
X143170000Y-78895000D03*
X140630000Y-77625000D03*
X143170000Y-76355000D03*
X140630000Y-75085000D03*
X143170000Y-73815000D03*
X140630000Y-72545000D03*
X143170000Y-71275000D03*
X140630000Y-70005000D03*
X143170000Y-68735000D03*
X140630000Y-67465000D03*
X143170000Y-66195000D03*
X140630000Y-64925000D03*
X143170000Y-63655000D03*
X140630000Y-62385000D03*
X143170000Y-61115000D03*
X140630000Y-59845000D03*
X143170000Y-58575000D03*
X140630000Y-57305000D03*
X143170000Y-56035000D03*
X140630000Y-54765000D03*
X143170000Y-53495000D03*
X140630000Y-52225000D03*
X143170000Y-50955000D03*
X140630000Y-49685000D03*
X143170000Y-48415000D03*
X140630000Y-47145000D03*
X143170000Y-45875000D03*
X140630000Y-44605000D03*
X143170000Y-43335000D03*
X140630000Y-42065000D03*
X143170000Y-40795000D03*
X140630000Y-39525000D03*
X143170000Y-38255000D03*
X140630000Y-36985000D03*
X143170000Y-35715000D03*
X140630000Y-34445000D03*
X143170000Y-33175000D03*
X140630000Y-31905000D03*
X143170000Y-28095000D03*
X140630000Y-26825000D03*
X143170000Y-25555000D03*
X140630000Y-24285000D03*
X143170000Y-23015000D03*
X140630000Y-21745000D03*
X143170000Y-20475000D03*
X140630000Y-19205000D03*
X143170000Y-17935000D03*
X140630000Y-16665000D03*
X143170000Y-15395000D03*
D30*
X119040000Y-30000000D03*
D31*
X115230000Y-92865000D03*
X120310000Y-92865000D03*
D30*
X119040000Y-94770000D03*
D31*
X117770000Y-91595000D03*
X122850000Y-91595000D03*
X115230000Y-90325000D03*
X115230000Y-87785000D03*
X115230000Y-85245000D03*
X115230000Y-82705000D03*
X115230000Y-80165000D03*
X115230000Y-77625000D03*
X115230000Y-75085000D03*
X115230000Y-72545000D03*
X115230000Y-70005000D03*
X115230000Y-67465000D03*
X115230000Y-64925000D03*
X115230000Y-62385000D03*
X115230000Y-59845000D03*
X115230000Y-57305000D03*
X115230000Y-54765000D03*
X117770000Y-89055000D03*
X117770000Y-86515000D03*
X117770000Y-83975000D03*
X117770000Y-81435000D03*
X117770000Y-78895000D03*
X117770000Y-76355000D03*
X117770000Y-73815000D03*
X117770000Y-71275000D03*
X117770000Y-68735000D03*
X117770000Y-66195000D03*
X117770000Y-63655000D03*
X117770000Y-61115000D03*
X117770000Y-58575000D03*
X117770000Y-56035000D03*
X117770000Y-53495000D03*
X115230000Y-52225000D03*
X117770000Y-50955000D03*
X115230000Y-49685000D03*
X117770000Y-48415000D03*
X115230000Y-47145000D03*
X117770000Y-45875000D03*
X115230000Y-44605000D03*
X117770000Y-43335000D03*
X115230000Y-42065000D03*
X117770000Y-40795000D03*
X115230000Y-39525000D03*
X117770000Y-38255000D03*
X115230000Y-36985000D03*
X117770000Y-35715000D03*
X115230000Y-34445000D03*
X117770000Y-33175000D03*
X115230000Y-31905000D03*
X117770000Y-28095000D03*
X115230000Y-26825000D03*
X117770000Y-25555000D03*
X115230000Y-24285000D03*
X117770000Y-23015000D03*
X115230000Y-21745000D03*
X117770000Y-20475000D03*
X115230000Y-19205000D03*
X117770000Y-17935000D03*
X115230000Y-16665000D03*
X117770000Y-15395000D03*
X120310000Y-90325000D03*
X122850000Y-89055000D03*
X120310000Y-87785000D03*
X122850000Y-86515000D03*
X120310000Y-85245000D03*
X122850000Y-83975000D03*
X120310000Y-82705000D03*
X122850000Y-81435000D03*
X120310000Y-80165000D03*
X122850000Y-78895000D03*
X120310000Y-77625000D03*
X122850000Y-76355000D03*
X120310000Y-75085000D03*
X122850000Y-73815000D03*
X120310000Y-72545000D03*
X122850000Y-71275000D03*
X120310000Y-70005000D03*
X122850000Y-68735000D03*
X120310000Y-67465000D03*
X122850000Y-66195000D03*
X120310000Y-64925000D03*
X122850000Y-63655000D03*
X120310000Y-62385000D03*
X122850000Y-61115000D03*
X120310000Y-59845000D03*
X122850000Y-58575000D03*
X120310000Y-57305000D03*
X122850000Y-56035000D03*
X120310000Y-54765000D03*
X122850000Y-53495000D03*
X120310000Y-52225000D03*
X122850000Y-50955000D03*
X120310000Y-49685000D03*
X122850000Y-48415000D03*
X120310000Y-47145000D03*
X122850000Y-45875000D03*
X120310000Y-44605000D03*
X122850000Y-43335000D03*
X120310000Y-42065000D03*
X122850000Y-40795000D03*
X120310000Y-39525000D03*
X122850000Y-38255000D03*
X120310000Y-36985000D03*
X122850000Y-35715000D03*
X120310000Y-34445000D03*
X122850000Y-33175000D03*
X120310000Y-31905000D03*
X122850000Y-28095000D03*
X120310000Y-26825000D03*
X122850000Y-25555000D03*
X120310000Y-24285000D03*
X122850000Y-23015000D03*
X120310000Y-21745000D03*
X122850000Y-20475000D03*
X120310000Y-19205000D03*
X122850000Y-17935000D03*
X120310000Y-16665000D03*
X122850000Y-15395000D03*
D14*
X150000000Y-27750320D03*
D32*
X150000000Y-30249680D03*
D14*
X191000000Y-27750320D03*
D32*
X191000000Y-30249680D03*
D14*
X191000000Y-20750320D03*
D32*
X191000000Y-23249680D03*
D14*
X170000000Y-66250320D03*
D32*
X170000000Y-68749680D03*
D14*
X170500000Y-34750320D03*
D32*
X170500000Y-37249680D03*
D14*
X170500000Y-27750320D03*
D32*
X170500000Y-30249680D03*
D14*
X170500000Y-20750320D03*
D32*
X170500000Y-23249680D03*
D14*
X149500000Y-66250320D03*
D32*
X149500000Y-68749680D03*
D14*
X150000000Y-34750320D03*
D32*
X150000000Y-37249680D03*
D14*
X150000000Y-20750320D03*
D32*
X150000000Y-23249680D03*
D14*
X129500000Y-66250320D03*
D32*
X129500000Y-68749680D03*
D14*
X130000000Y-34750320D03*
D32*
X130000000Y-37249680D03*
D14*
X130000000Y-27750320D03*
D32*
X130000000Y-30249680D03*
D14*
X130000000Y-20750320D03*
D32*
X130000000Y-23249680D03*
D14*
X190500000Y-66250320D03*
D32*
X190500000Y-68749680D03*
D14*
X130000000Y-13750320D03*
D32*
X130000000Y-16249680D03*
D14*
X150000000Y-13750320D03*
D32*
X150000000Y-16249680D03*
D14*
X170500000Y-13750320D03*
D32*
X170500000Y-16249680D03*
D14*
X191000000Y-34750320D03*
D32*
X191000000Y-37249680D03*
D14*
X191000000Y-13750320D03*
D32*
X191000000Y-16249680D03*
D33*
X174000000Y-76800000D03*
X174000000Y-77700000D03*
X153750000Y-76800000D03*
X153750000Y-77700000D03*
X113250000Y-76550000D03*
X113250000Y-77450000D03*
D34*
X176950000Y-30250000D03*
X176050000Y-30250000D03*
X176950000Y-28750000D03*
X176050000Y-28750000D03*
X156450000Y-30250000D03*
X155550000Y-30250000D03*
X156450000Y-28750000D03*
X155550000Y-28750000D03*
X136200000Y-30250000D03*
X135300000Y-30250000D03*
X136200000Y-28750000D03*
X135300000Y-28750000D03*
X115700000Y-30250000D03*
X114800000Y-30250000D03*
X115700000Y-28750000D03*
X114800000Y-28750000D03*
D33*
X133500000Y-76800000D03*
X133500000Y-77700000D03*
D14*
X191000000Y-91750320D03*
D32*
X191000000Y-94249680D03*
D14*
X170000000Y-91750320D03*
D32*
X170000000Y-94249680D03*
D14*
X149500000Y-91750320D03*
D32*
X149500000Y-94249680D03*
D14*
X129500000Y-91750320D03*
D32*
X129500000Y-94249680D03*
D14*
X22000000Y-162249940D03*
D32*
X22000000Y-165750060D03*
D14*
X22000000Y-151249940D03*
D32*
X22000000Y-154750060D03*
D14*
X22000000Y-186249940D03*
D32*
X22000000Y-189750060D03*
D14*
X22000000Y-172249940D03*
D32*
X22000000Y-175750060D03*
D35*
X119000000Y-104000000D03*
D24*
X122000000Y-104000000D03*
X120500000Y-106600000D03*
X117500000Y-106600000D03*
X116000000Y-104000000D03*
X117500000Y-101400000D03*
X120500000Y-101400000D03*
D35*
X78000000Y-130000000D03*
D24*
X81000000Y-130000000D03*
X79500000Y-132600000D03*
X76500000Y-132600000D03*
X75000000Y-130000000D03*
X76500000Y-127400000D03*
X79500000Y-127400000D03*
D35*
X33000000Y-104000000D03*
D24*
X36000000Y-104000000D03*
X34500000Y-106600000D03*
X31500000Y-106600000D03*
X30000000Y-104000000D03*
X31500000Y-101400000D03*
X34500000Y-101400000D03*
D35*
X92000000Y-32000000D03*
D24*
X95000000Y-32000000D03*
X93500000Y-34600000D03*
X90500000Y-34600000D03*
X89000000Y-32000000D03*
X90500000Y-29400000D03*
X93500000Y-29400000D03*
D36*
X61700000Y-196160000D03*
X61700000Y-193620000D03*
X61700000Y-180920000D03*
X61700000Y-178380000D03*
X61700000Y-175840000D03*
X50700000Y-196160000D03*
X50700000Y-193620000D03*
X50700000Y-180920000D03*
X50700000Y-178380000D03*
X50700000Y-175840000D03*
D37*
X49827000Y-9500000D03*
X24427000Y-9500000D03*
D38*
X42588000Y-10770000D03*
D39*
X39794000Y-10770000D03*
X37000000Y-10770000D03*
X34333000Y-10770000D03*
X31539000Y-10770000D03*
X32936000Y-8230000D03*
X35730000Y-8230000D03*
X38397000Y-8230000D03*
X41191000Y-8230000D03*
D35*
X150000000Y-6000000D03*
D24*
X153000000Y-6000000D03*
X151500000Y-8600000D03*
X148500000Y-8600000D03*
X147000000Y-6000000D03*
X148500000Y-3400000D03*
X151500000Y-3400000D03*
D35*
X193000000Y-124000000D03*
D24*
X196000000Y-124000000D03*
X194500000Y-126600000D03*
X191500000Y-126600000D03*
X190000000Y-124000000D03*
X191500000Y-121400000D03*
X194500000Y-121400000D03*
D35*
X73000000Y-187000000D03*
D24*
X76000000Y-187000000D03*
X74500000Y-189600000D03*
X71500000Y-189600000D03*
X70000000Y-187000000D03*
X71500000Y-184400000D03*
X74500000Y-184400000D03*
D40*
X78000000Y-48550000D03*
X78000000Y-49250000D03*
D41*
X67100000Y-48000000D03*
X66400000Y-48000000D03*
D40*
X71000000Y-52650000D03*
X71000000Y-53350000D03*
X67300000Y-63150000D03*
X67300000Y-63850000D03*
X79250000Y-60150000D03*
X79250000Y-60850000D03*
X85750000Y-64900000D03*
X85750000Y-65600000D03*
D41*
X82650000Y-62650000D03*
X83350000Y-62650000D03*
D40*
X88250000Y-63650000D03*
X88250000Y-64350000D03*
X88700000Y-46950000D03*
X88700000Y-46250000D03*
X71000000Y-57650000D03*
X71000000Y-58350000D03*
D41*
X85400000Y-44000000D03*
X86100000Y-44000000D03*
D40*
X88000000Y-53350000D03*
X88000000Y-52650000D03*
D41*
X75650000Y-46000000D03*
X76350000Y-46000000D03*
X87650000Y-67100000D03*
X88350000Y-67100000D03*
X71150000Y-56400000D03*
X71850000Y-56400000D03*
X67550000Y-48900000D03*
X68250000Y-48900000D03*
D40*
X77000000Y-55650000D03*
X77000000Y-56350000D03*
D41*
X78350000Y-54000000D03*
X77650000Y-54000000D03*
X78350000Y-59000000D03*
X77650000Y-59000000D03*
X77650000Y-53000000D03*
X78350000Y-53000000D03*
D40*
X79000000Y-56350000D03*
X79000000Y-55650000D03*
D41*
X77650000Y-58000000D03*
X78350000Y-58000000D03*
D40*
X75000000Y-55650000D03*
X75000000Y-56350000D03*
X81000000Y-56350000D03*
X81000000Y-55650000D03*
X71750000Y-51600000D03*
X71750000Y-50900000D03*
D41*
X74100000Y-53750000D03*
X73400000Y-53750000D03*
D10*
G36*
X70234835Y-49330850D02*
X69669150Y-48765165D01*
X70270191Y-48164124D01*
X70835876Y-48729809D01*
X70234835Y-49330850D01*
X70234835Y-49330850D01*
G37*
G36*
X70729809Y-48835876D02*
X70164124Y-48270191D01*
X70765165Y-47669150D01*
X71330850Y-48234835D01*
X70729809Y-48835876D01*
X70729809Y-48835876D01*
G37*
D41*
X73650000Y-63000000D03*
X74350000Y-63000000D03*
X69100000Y-56250000D03*
X68400000Y-56250000D03*
X71150000Y-68000000D03*
X71850000Y-68000000D03*
X67750000Y-45800000D03*
X68450000Y-45800000D03*
X81100000Y-62250000D03*
X80400000Y-62250000D03*
D40*
X68000000Y-59650000D03*
X68000000Y-60350000D03*
X73000000Y-56650000D03*
X73000000Y-57350000D03*
D41*
X70750000Y-61750000D03*
X71450000Y-61750000D03*
X71550000Y-46000000D03*
X72250000Y-46000000D03*
X72450000Y-63300000D03*
X71750000Y-63300000D03*
D40*
X78000000Y-50400000D03*
X78000000Y-51100000D03*
D41*
X73650000Y-49000000D03*
X74350000Y-49000000D03*
X67650000Y-66750000D03*
X68350000Y-66750000D03*
X75400000Y-59750000D03*
X76100000Y-59750000D03*
D40*
X74000000Y-60350000D03*
X74000000Y-59650000D03*
D41*
X84100000Y-58250000D03*
X83400000Y-58250000D03*
X73850000Y-51250000D03*
X73150000Y-51250000D03*
X87400000Y-56250000D03*
X88100000Y-56250000D03*
D40*
X70575000Y-49750000D03*
X70575000Y-50450000D03*
X85000000Y-53650000D03*
X85000000Y-54350000D03*
D10*
G36*
X86830850Y-60265165D02*
X86265165Y-60830850D01*
X85664124Y-60229809D01*
X86229809Y-59664124D01*
X86830850Y-60265165D01*
X86830850Y-60265165D01*
G37*
G36*
X86335876Y-59770191D02*
X85770191Y-60335876D01*
X85169150Y-59734835D01*
X85734835Y-59169150D01*
X86335876Y-59770191D01*
X86335876Y-59770191D01*
G37*
G36*
X84169150Y-60734835D02*
X84734835Y-60169150D01*
X85335876Y-60770191D01*
X84770191Y-61335876D01*
X84169150Y-60734835D01*
X84169150Y-60734835D01*
G37*
G36*
X84664124Y-61229809D02*
X85229809Y-60664124D01*
X85830850Y-61265165D01*
X85265165Y-61830850D01*
X84664124Y-61229809D01*
X84664124Y-61229809D01*
G37*
D40*
X89750000Y-59900000D03*
X89750000Y-60600000D03*
D41*
X81900000Y-57250000D03*
X82600000Y-57250000D03*
X81750000Y-54000000D03*
X82450000Y-54000000D03*
X61650000Y-109000000D03*
X62350000Y-109000000D03*
X61650000Y-107000000D03*
X62350000Y-107000000D03*
X62350000Y-111000000D03*
X61650000Y-111000000D03*
X62350000Y-113000000D03*
X61650000Y-113000000D03*
D40*
X64000000Y-109650000D03*
X64000000Y-110350000D03*
X60000000Y-110350000D03*
X60000000Y-109650000D03*
X65000000Y-110350000D03*
X65000000Y-109650000D03*
X59000000Y-109650000D03*
X59000000Y-110350000D03*
X91000000Y-109650000D03*
X91000000Y-110350000D03*
X92000000Y-110350000D03*
X92000000Y-109650000D03*
D41*
X94350000Y-113000000D03*
X93650000Y-113000000D03*
D40*
X97000000Y-110350000D03*
X97000000Y-109650000D03*
D41*
X94350000Y-111000000D03*
X93650000Y-111000000D03*
D40*
X96000000Y-109650000D03*
X96000000Y-110350000D03*
D41*
X93650000Y-107000000D03*
X94350000Y-107000000D03*
X93650000Y-109000000D03*
X94350000Y-109000000D03*
X93850000Y-103750000D03*
X93150000Y-103750000D03*
X52650000Y-100000000D03*
X53350000Y-100000000D03*
D10*
G36*
X101830850Y-104265165D02*
X101265165Y-104830850D01*
X100664124Y-104229809D01*
X101229809Y-103664124D01*
X101830850Y-104265165D01*
X101830850Y-104265165D01*
G37*
G36*
X101335876Y-103770191D02*
X100770191Y-104335876D01*
X100169150Y-103734835D01*
X100734835Y-103169150D01*
X101335876Y-103770191D01*
X101335876Y-103770191D01*
G37*
D41*
X98350000Y-103000000D03*
X97650000Y-103000000D03*
D40*
X95750000Y-106100000D03*
X95750000Y-105400000D03*
D41*
X100350000Y-100500000D03*
X99650000Y-100500000D03*
D10*
G36*
X69830850Y-104265165D02*
X69265165Y-104830850D01*
X68664124Y-104229809D01*
X69229809Y-103664124D01*
X69830850Y-104265165D01*
X69830850Y-104265165D01*
G37*
G36*
X69335876Y-103770191D02*
X68770191Y-104335876D01*
X68169150Y-103734835D01*
X68734835Y-103169150D01*
X69335876Y-103770191D01*
X69335876Y-103770191D01*
G37*
D40*
X90750000Y-102350000D03*
X90750000Y-101650000D03*
X94750000Y-102600000D03*
X94750000Y-101900000D03*
D41*
X69350000Y-102000000D03*
X68650000Y-102000000D03*
X89350000Y-103000000D03*
X88650000Y-103000000D03*
X68350000Y-100000000D03*
X67650000Y-100000000D03*
X104350000Y-99750000D03*
X103650000Y-99750000D03*
X85400000Y-101750000D03*
X86100000Y-101750000D03*
X66350000Y-103000000D03*
X65650000Y-103000000D03*
X61150000Y-100000000D03*
X61850000Y-100000000D03*
X101350000Y-102000000D03*
X100650000Y-102000000D03*
X64600000Y-105000000D03*
X63900000Y-105000000D03*
X72350000Y-100000000D03*
X71650000Y-100000000D03*
X61850000Y-103750000D03*
X61150000Y-103750000D03*
X56650000Y-100000000D03*
X57350000Y-100000000D03*
D10*
G36*
X54169150Y-102734835D02*
X54734835Y-102169150D01*
X55335876Y-102770191D01*
X54770191Y-103335876D01*
X54169150Y-102734835D01*
X54169150Y-102734835D01*
G37*
G36*
X54664124Y-103229809D02*
X55229809Y-102664124D01*
X55830850Y-103265165D01*
X55265165Y-103830850D01*
X54664124Y-103229809D01*
X54664124Y-103229809D01*
G37*
D40*
X90750000Y-103400000D03*
X90750000Y-104100000D03*
X88000000Y-107650000D03*
X88000000Y-108350000D03*
X90000000Y-109350000D03*
X90000000Y-108650000D03*
X84000000Y-107650000D03*
X84000000Y-108350000D03*
D41*
X88150000Y-112750000D03*
X88850000Y-112750000D03*
D40*
X87000000Y-107350000D03*
X87000000Y-106650000D03*
X83250000Y-99900000D03*
X83250000Y-100600000D03*
X89000000Y-105650000D03*
X89000000Y-106350000D03*
D41*
X84650000Y-103000000D03*
X85350000Y-103000000D03*
X85350000Y-105000000D03*
X84650000Y-105000000D03*
D40*
X87000000Y-102650000D03*
X87000000Y-103350000D03*
X56000000Y-110350000D03*
X56000000Y-109650000D03*
D10*
G36*
X54265165Y-101169150D02*
X54830850Y-101734835D01*
X54229809Y-102335876D01*
X53664124Y-101770191D01*
X54265165Y-101169150D01*
X54265165Y-101169150D01*
G37*
G36*
X53770191Y-101664124D02*
X54335876Y-102229809D01*
X53734835Y-102830850D01*
X53169150Y-102265165D01*
X53770191Y-101664124D01*
X53770191Y-101664124D01*
G37*
D40*
X57000000Y-110650000D03*
X57000000Y-111350000D03*
X55000000Y-112350000D03*
X55000000Y-111650000D03*
D41*
X55900000Y-108000000D03*
X56600000Y-108000000D03*
D40*
X52000000Y-110850000D03*
X52000000Y-110150000D03*
D10*
G36*
X53484835Y-105080850D02*
X52919150Y-104515165D01*
X53520191Y-103914124D01*
X54085876Y-104479809D01*
X53484835Y-105080850D01*
X53484835Y-105080850D01*
G37*
G36*
X53979809Y-104585876D02*
X53414124Y-104020191D01*
X54015165Y-103419150D01*
X54580850Y-103984835D01*
X53979809Y-104585876D01*
X53979809Y-104585876D01*
G37*
D40*
X87000000Y-112350000D03*
X87000000Y-111650000D03*
X52000000Y-102350000D03*
X52000000Y-101650000D03*
D10*
G36*
X58984835Y-106580850D02*
X58419150Y-106015165D01*
X59020191Y-105414124D01*
X59585876Y-105979809D01*
X58984835Y-106580850D01*
X58984835Y-106580850D01*
G37*
G36*
X59479809Y-106085876D02*
X58914124Y-105520191D01*
X59515165Y-104919150D01*
X60080850Y-105484835D01*
X59479809Y-106085876D01*
X59479809Y-106085876D01*
G37*
G36*
X56265165Y-105169150D02*
X56830850Y-105734835D01*
X56229809Y-106335876D01*
X55664124Y-105770191D01*
X56265165Y-105169150D01*
X56265165Y-105169150D01*
G37*
G36*
X55770191Y-105664124D02*
X56335876Y-106229809D01*
X55734835Y-106830850D01*
X55169150Y-106265165D01*
X55770191Y-105664124D01*
X55770191Y-105664124D01*
G37*
D40*
X52000000Y-103650000D03*
X52000000Y-104350000D03*
X58750000Y-103150000D03*
X58750000Y-103850000D03*
D41*
X88650000Y-110250000D03*
X89350000Y-110250000D03*
D40*
X94000000Y-114850000D03*
X94000000Y-114150000D03*
X93000000Y-118350000D03*
X93000000Y-117650000D03*
D41*
X93150000Y-119750000D03*
X93850000Y-119750000D03*
X89350000Y-117000000D03*
X88650000Y-117000000D03*
D40*
X91000000Y-117400000D03*
X91000000Y-118100000D03*
D41*
X88350000Y-119000000D03*
X87650000Y-119000000D03*
D40*
X84000000Y-110850000D03*
X84000000Y-110150000D03*
D41*
X96900000Y-119750000D03*
X97600000Y-119750000D03*
D40*
X84000000Y-115350000D03*
X84000000Y-114650000D03*
D41*
X99650000Y-116000000D03*
X100350000Y-116000000D03*
X86150000Y-115750000D03*
X86850000Y-115750000D03*
X65650000Y-112250000D03*
X66350000Y-112250000D03*
X56350000Y-119000000D03*
X55650000Y-119000000D03*
X57350000Y-116750000D03*
X56650000Y-116750000D03*
D40*
X52000000Y-116650000D03*
X52000000Y-117350000D03*
D41*
X60350000Y-119000000D03*
X59650000Y-119000000D03*
X66350000Y-116500000D03*
X65650000Y-116500000D03*
X63350000Y-119000000D03*
X62650000Y-119000000D03*
D40*
X52000000Y-112650000D03*
X52000000Y-113350000D03*
D41*
X65150000Y-114750000D03*
X65850000Y-114750000D03*
D40*
X62000000Y-114850000D03*
X62000000Y-114150000D03*
D10*
G36*
X69169150Y-113734835D02*
X69734835Y-113169150D01*
X70335876Y-113770191D01*
X69770191Y-114335876D01*
X69169150Y-113734835D01*
X69169150Y-113734835D01*
G37*
G36*
X69664124Y-114229809D02*
X70229809Y-113664124D01*
X70830850Y-114265165D01*
X70265165Y-114830850D01*
X69664124Y-114229809D01*
X69664124Y-114229809D01*
G37*
D41*
X67350000Y-119000000D03*
X66650000Y-119000000D03*
D40*
X104000000Y-116900000D03*
X104000000Y-117600000D03*
X104000000Y-107650000D03*
X104000000Y-108350000D03*
D41*
X97900000Y-111750000D03*
X98600000Y-111750000D03*
D40*
X104750000Y-102850000D03*
X104750000Y-102150000D03*
X101000000Y-110150000D03*
X101000000Y-110850000D03*
D41*
X100850000Y-108250000D03*
X100150000Y-108250000D03*
X104600000Y-120000000D03*
X103900000Y-120000000D03*
D40*
X98750000Y-108150000D03*
X98750000Y-108850000D03*
X98000000Y-112650000D03*
X98000000Y-113350000D03*
X104000000Y-112650000D03*
X104000000Y-113350000D03*
X100000000Y-118350000D03*
X100000000Y-117650000D03*
D41*
X103350000Y-115000000D03*
X102650000Y-115000000D03*
X68650000Y-119000000D03*
X69350000Y-119000000D03*
D40*
X72750000Y-102850000D03*
X72750000Y-102150000D03*
X72000000Y-106350000D03*
X72000000Y-105650000D03*
X66000000Y-105650000D03*
X66000000Y-106350000D03*
X66000000Y-109650000D03*
X66000000Y-110350000D03*
X69000000Y-105650000D03*
X69000000Y-106350000D03*
D41*
X70350000Y-116000000D03*
X69650000Y-116000000D03*
X68850000Y-108250000D03*
X68150000Y-108250000D03*
D40*
X68750000Y-113350000D03*
X68750000Y-112650000D03*
X72000000Y-107650000D03*
X72000000Y-108350000D03*
X71250000Y-118850000D03*
X71250000Y-118150000D03*
X72000000Y-112650000D03*
X72000000Y-113350000D03*
D42*
X99100000Y-106500000D03*
X100900000Y-106500000D03*
X81100000Y-60250000D03*
X82900000Y-60250000D03*
X68100000Y-110500000D03*
X69900000Y-110500000D03*
D40*
X75000000Y-50400000D03*
X75000000Y-51100000D03*
X78250000Y-60850000D03*
X78250000Y-60150000D03*
D32*
X83750000Y-189000000D03*
X90250000Y-189000000D03*
D43*
G36*
X16535070Y-32314676D02*
X17685324Y-33464930D01*
X18069092Y-35000000D01*
X17685324Y-36535070D01*
X16535070Y-37685324D01*
X15000000Y-38069092D01*
X13464930Y-37685324D01*
X12314676Y-36535070D01*
X11930909Y-35000000D01*
X12314676Y-33464930D01*
X13464930Y-32314676D01*
X15000000Y-31930909D01*
X16535070Y-32314676D01*
X16535070Y-32314676D01*
G37*
X16535070Y-32314676D02*
X17685324Y-33464930D01*
X18069092Y-35000000D01*
X17685324Y-36535070D01*
X16535070Y-37685324D01*
X15000000Y-38069092D01*
X13464930Y-37685324D01*
X12314676Y-36535070D01*
X11930909Y-35000000D01*
X12314676Y-33464930D01*
X13464930Y-32314676D01*
X15000000Y-31930909D01*
X16535070Y-32314676D01*
M02*
