G04 #@! TF.FileFunction,Soldermask,Top*
%FSLAX46Y46*%
G04 Gerber Fmt 4.6, Leading zero omitted, Abs format (unit mm)*
G04 Created by KiCad (PCBNEW (2016-09-03 BZR 7112, Git 24f6c4b)-product) date Mon Sep  5 22:12:06 2016*
%MOMM*%
%LPD*%
G01*
G04 APERTURE LIST*
%ADD10C,0.100000*%
%ADD11C,0.300000*%
%ADD12R,1.900000X1.900000*%
%ADD13C,2.000000*%
%ADD14C,1.500000*%
%ADD15R,5.000000X3.900000*%
%ADD16R,2.400000X0.750000*%
%ADD17R,1.100000X2.150000*%
%ADD18R,1.700000X1.900000*%
%ADD19R,1.200000X1.900000*%
%ADD20R,1.850000X1.400000*%
%ADD21R,1.400000X1.950000*%
%ADD22R,1.200000X1.800000*%
%ADD23R,2.686000X1.924000*%
%ADD24O,2.686000X1.924000*%
%ADD25O,1.924000X2.686000*%
%ADD26C,1.924000*%
%ADD27C,1.650000*%
%ADD28O,1.800000X0.700000*%
%ADD29R,2.600000X3.500000*%
%ADD30C,0.500200*%
%ADD31O,2.178000X1.700000*%
%ADD32R,3.600000X4.600000*%
%ADD33R,1.000000X1.000000*%
%ADD34R,1.160000X2.800000*%
%ADD35O,0.700000X1.900000*%
%ADD36O,1.900000X0.700000*%
%ADD37C,2.750000*%
%ADD38C,1.400000*%
%ADD39R,1.400000X1.400000*%
%ADD40O,1.650000X0.950000*%
%ADD41R,4.900000X2.400000*%
%ADD42O,5.400000X2.400000*%
%ADD43R,0.800000X1.750000*%
%ADD44O,1.950000X1.950000*%
%ADD45O,1.650000X1.650000*%
%ADD46C,2.851100*%
%ADD47C,1.901140*%
%ADD48C,1.900000*%
%ADD49R,1.850000X2.850000*%
%ADD50R,7.350000X7.350000*%
%ADD51R,2.850000X1.850000*%
%ADD52R,1.000000X1.050000*%
%ADD53R,1.200100X1.299160*%
%ADD54R,1.050000X1.000000*%
%ADD55C,9.400000*%
%ADD56O,2.900000X2.300000*%
%ADD57R,3.900000X1.800000*%
%ADD58R,1.950000X1.700000*%
%ADD59R,1.250000X1.400000*%
%ADD60O,0.850000X2.100000*%
%ADD61R,1.600000X1.000000*%
%ADD62O,0.750000X1.250000*%
%ADD63R,3.500000X3.000000*%
%ADD64R,1.500000X1.000000*%
%ADD65O,1.850000X0.850000*%
%ADD66R,1.300000X1.350000*%
%ADD67R,1.350000X1.300000*%
%ADD68R,1.400000X4.500000*%
%ADD69O,0.850000X1.800000*%
%ADD70R,0.850000X0.750000*%
%ADD71R,0.750000X0.750000*%
%ADD72R,0.730000X0.900000*%
%ADD73R,1.800000X1.600000*%
%ADD74O,0.800000X1.850000*%
%ADD75R,0.900000X0.730000*%
%ADD76R,1.600000X2.200000*%
%ADD77R,0.750000X0.850000*%
%ADD78C,4.400000*%
%ADD79R,1.924000X1.924000*%
%ADD80C,1.924000*%
%ADD81R,1.700000X1.300000*%
%ADD82R,1.700000X1.200000*%
%ADD83R,1.150000X0.800000*%
%ADD84C,0.750000*%
%ADD85R,2.200000X1.600000*%
%ADD86R,1.400000X1.250000*%
%ADD87R,1.850000X1.350000*%
%ADD88R,2.200000X1.450000*%
%ADD89R,1.350000X1.850000*%
%ADD90O,0.850000X1.850000*%
%ADD91R,2.650000X2.200000*%
%ADD92R,1.550000X1.850000*%
%ADD93R,1.850000X1.550000*%
%ADD94C,1.600000*%
%ADD95R,2.000000X3.400000*%
%ADD96R,5.100000X3.830000*%
%ADD97R,1.450000X2.200000*%
%ADD98R,1.600000X1.600000*%
%ADD99R,1.900000X2.000000*%
%ADD100R,0.800000X1.000000*%
%ADD101C,0.254000*%
G04 APERTURE END LIST*
D10*
D11*
X106500000Y-121750000D02*
X103500000Y-121750000D01*
X105750000Y-120250000D02*
X105750000Y-123000000D01*
X84000000Y-121750000D02*
X81500000Y-121750000D01*
X82250000Y-122500000D02*
X82250000Y-119250000D01*
X107250000Y-98250000D02*
X103000000Y-98250000D01*
X105750000Y-101000000D02*
X105750000Y-96500000D01*
X82250000Y-98250000D02*
X82250000Y-100250000D01*
X84000000Y-98250000D02*
X81750000Y-98250000D01*
X90250000Y-67750000D02*
X88000000Y-67750000D01*
X89750000Y-66250000D02*
X89750000Y-68250000D01*
X74750000Y-98250000D02*
X71500000Y-98250000D01*
X73750000Y-100500000D02*
X73750000Y-96750000D01*
X50250000Y-120500000D02*
X50250000Y-122500000D01*
X49250000Y-121750000D02*
X51750000Y-121750000D01*
X73750000Y-120000000D02*
X73750000Y-122500000D01*
X72000000Y-121750000D02*
X74500000Y-121750000D01*
X49250000Y-98250000D02*
X52000000Y-98250000D01*
X50250000Y-100500000D02*
X50250000Y-97000000D01*
X89750000Y-45500000D02*
X89750000Y-43250000D01*
X88500000Y-44250000D02*
X90750000Y-44250000D01*
X64250000Y-44250000D02*
X68500000Y-44250000D01*
X66250000Y-46500000D02*
X66250000Y-42500000D01*
X66250000Y-67750000D02*
X65250000Y-67750000D01*
X66250000Y-68750000D02*
X66250000Y-67750000D01*
X66250000Y-67750000D02*
X67500000Y-67750000D01*
X66250000Y-66500000D02*
X66250000Y-67750000D01*
D12*
X4500000Y-15500060D03*
X4500000Y-11999940D03*
D13*
X33000000Y-89400000D03*
D14*
X33000000Y-22600000D03*
D15*
X21000000Y-23200000D03*
X21000000Y-88800000D03*
D16*
X37100000Y-87650000D03*
X37100000Y-87050000D03*
X37100000Y-86450000D03*
X37100000Y-85850000D03*
X37100000Y-85250000D03*
X37100000Y-84650000D03*
X37100000Y-84050000D03*
X37100000Y-83450000D03*
X37100000Y-82850000D03*
X37100000Y-82250000D03*
X37100000Y-81650000D03*
X37100000Y-81050000D03*
X37100000Y-80450000D03*
X37100000Y-79850000D03*
X37100000Y-79250000D03*
X37100000Y-78650000D03*
X37100000Y-78050000D03*
X37100000Y-77450000D03*
X37100000Y-76850000D03*
X37100000Y-76250000D03*
X37100000Y-75650000D03*
X37100000Y-75050000D03*
X37100000Y-74450000D03*
X37100000Y-73850000D03*
X37100000Y-73250000D03*
X37100000Y-72650000D03*
X37100000Y-72050000D03*
X37100000Y-71450000D03*
X37100000Y-70850000D03*
X37100000Y-70250000D03*
X37100000Y-69650000D03*
X37100000Y-69050000D03*
X37100000Y-68450000D03*
X37100000Y-67850000D03*
X37100000Y-67250000D03*
X37100000Y-66650000D03*
X37100000Y-63650000D03*
X37100000Y-63050000D03*
X37100000Y-62450000D03*
X37100000Y-61850000D03*
X37100000Y-61250000D03*
X37100000Y-60650000D03*
X37100000Y-60050000D03*
X37100000Y-59450000D03*
X37100000Y-58850000D03*
X37100000Y-58250000D03*
X37100000Y-57650000D03*
X37100000Y-57050000D03*
X37100000Y-56450000D03*
X37100000Y-55850000D03*
X37100000Y-55250000D03*
X37100000Y-54650000D03*
X37100000Y-54050000D03*
X37100000Y-53450000D03*
X37100000Y-52850000D03*
X37100000Y-52250000D03*
X37100000Y-51650000D03*
X37100000Y-51050000D03*
X37100000Y-50450000D03*
X37100000Y-49850000D03*
X37100000Y-49250000D03*
X37100000Y-48650000D03*
X37100000Y-48050000D03*
X37100000Y-47450000D03*
X37100000Y-46850000D03*
X37100000Y-46250000D03*
X37100000Y-45650000D03*
X37100000Y-45050000D03*
X37100000Y-44450000D03*
X37100000Y-43850000D03*
X37100000Y-43250000D03*
X37100000Y-42650000D03*
X37100000Y-42050000D03*
X37100000Y-41450000D03*
X37100000Y-40850000D03*
X37100000Y-40250000D03*
X37100000Y-39650000D03*
X37100000Y-39050000D03*
X37100000Y-38450000D03*
X37100000Y-37850000D03*
X37100000Y-37250000D03*
X37100000Y-36650000D03*
X37100000Y-36050000D03*
X37100000Y-35450000D03*
X37100000Y-34850000D03*
X37100000Y-34250000D03*
X37100000Y-33650000D03*
X37100000Y-33050000D03*
X37100000Y-32450000D03*
X37100000Y-31850000D03*
X37100000Y-31250000D03*
X37100000Y-30650000D03*
X37100000Y-30050000D03*
X37100000Y-29450000D03*
X37100000Y-28850000D03*
X37100000Y-28250000D03*
X37100000Y-27650000D03*
X37100000Y-27050000D03*
X37100000Y-26450000D03*
X37100000Y-25850000D03*
X37100000Y-25250000D03*
X37100000Y-24650000D03*
X28900000Y-87350000D03*
X28900000Y-86750000D03*
X28900000Y-86150000D03*
X28900000Y-85550000D03*
X28900000Y-84950000D03*
X28900000Y-84350000D03*
X28900000Y-83750000D03*
X28900000Y-83150000D03*
X28900000Y-82550000D03*
X28900000Y-81950000D03*
X28900000Y-81350000D03*
X28900000Y-80750000D03*
X28900000Y-80150000D03*
X28900000Y-79550000D03*
X28900000Y-78950000D03*
X28900000Y-78350000D03*
X28900000Y-77750000D03*
X28900000Y-77150000D03*
X28900000Y-76550000D03*
X28900000Y-75950000D03*
X28900000Y-75350000D03*
X28900000Y-74750000D03*
X28900000Y-74150000D03*
X28900000Y-73550000D03*
X28900000Y-72950000D03*
X28900000Y-72350000D03*
X28900000Y-71750000D03*
X28900000Y-71150000D03*
X28900000Y-70550000D03*
X28900000Y-69950000D03*
X28900000Y-69350000D03*
X28900000Y-68750000D03*
X28900000Y-68150000D03*
X28900000Y-67550000D03*
X28900000Y-66950000D03*
X28900000Y-66350000D03*
X28900000Y-63350000D03*
X28900000Y-62750000D03*
X28900000Y-62150000D03*
X28900000Y-61550000D03*
X28900000Y-60950000D03*
X28900000Y-60350000D03*
X28900000Y-59750000D03*
X28900000Y-59150000D03*
X28900000Y-58550000D03*
X28900000Y-57950000D03*
X28900000Y-57350000D03*
X28900000Y-56750000D03*
X28900000Y-56150000D03*
X28900000Y-55550000D03*
X28900000Y-54950000D03*
X28900000Y-54350000D03*
X28900000Y-53750000D03*
X28900000Y-53150000D03*
X28900000Y-52550000D03*
X28900000Y-51950000D03*
X28900000Y-51350000D03*
X28900000Y-50750000D03*
X28900000Y-50150000D03*
X28900000Y-49550000D03*
X28900000Y-48950000D03*
X28900000Y-48350000D03*
X28900000Y-47750000D03*
X28900000Y-47150000D03*
X28900000Y-46550000D03*
X28900000Y-45950000D03*
X28900000Y-45350000D03*
X28900000Y-44750000D03*
X28900000Y-44150000D03*
X28900000Y-43550000D03*
X28900000Y-42950000D03*
X28900000Y-42350000D03*
X28900000Y-41750000D03*
X28900000Y-41150000D03*
X28900000Y-40550000D03*
X28900000Y-39950000D03*
X28900000Y-39350000D03*
X28900000Y-38750000D03*
X28900000Y-38150000D03*
X28900000Y-37550000D03*
X28900000Y-36950000D03*
X28900000Y-36350000D03*
X28900000Y-35750000D03*
X28900000Y-35150000D03*
X28900000Y-34550000D03*
X28900000Y-33950000D03*
X28900000Y-33350000D03*
X28900000Y-32750000D03*
X28900000Y-32150000D03*
X28900000Y-31550000D03*
X28900000Y-30950000D03*
X28900000Y-30350000D03*
X28900000Y-29750000D03*
X28900000Y-29150000D03*
X28900000Y-28550000D03*
X28900000Y-27950000D03*
X28900000Y-27350000D03*
X28900000Y-26750000D03*
X28900000Y-26150000D03*
X28900000Y-25550000D03*
X28900000Y-24950000D03*
X28900000Y-24350000D03*
D17*
X96800000Y-2375000D03*
X97900000Y-2375000D03*
X99000000Y-2375000D03*
X100100000Y-2375000D03*
X101200000Y-2375000D03*
X102300000Y-2375000D03*
X103400000Y-2375000D03*
X104500000Y-2375000D03*
D18*
X105700000Y-2500000D03*
D12*
X94350000Y-2500000D03*
D19*
X105950000Y-10100000D03*
D20*
X105625000Y-11600000D03*
D21*
X94100000Y-13175000D03*
D22*
X94000000Y-10750000D03*
D23*
X98627000Y-84040000D03*
D24*
X98373000Y-81500000D03*
X98627000Y-78960000D03*
D25*
X121460000Y-197151000D03*
X124000000Y-196897000D03*
X126540000Y-197151000D03*
X121460000Y-194103000D03*
X124000000Y-193849000D03*
X126540000Y-194103000D03*
D23*
X195377000Y-79190000D03*
D24*
X195123000Y-81730000D03*
X195123000Y-84270000D03*
X195377000Y-86810000D03*
D23*
X3873000Y-118460000D03*
D24*
X4127000Y-121000000D03*
X3873000Y-123540000D03*
D10*
G36*
X94826683Y-20059984D02*
X95745349Y-17535969D01*
X97553317Y-18194016D01*
X96634651Y-20718031D01*
X94826683Y-20059984D01*
X94826683Y-20059984D01*
G37*
D26*
X98860310Y-18514977D02*
X98599690Y-19231023D01*
X101400310Y-18768977D02*
X101139690Y-19485023D01*
X103940310Y-18514977D02*
X103679690Y-19231023D01*
D27*
X101270000Y-16840000D03*
D23*
X101222000Y-28920000D03*
D24*
X101476000Y-31460000D03*
X101222000Y-34000000D03*
X101476000Y-36540000D03*
X101222000Y-39080000D03*
X104270000Y-28920000D03*
X104524000Y-31460000D03*
X104270000Y-34000000D03*
X104524000Y-36540000D03*
X104270000Y-39080000D03*
D28*
X48200000Y-93729290D03*
X48200000Y-93229290D03*
X48200000Y-92729290D03*
X48200000Y-92229290D03*
X48200000Y-91729290D03*
X43800000Y-91729290D03*
X43800000Y-92229290D03*
X43800000Y-92729290D03*
X43800000Y-93229290D03*
X43800000Y-93729290D03*
D29*
X46000000Y-92729290D03*
D30*
X46000000Y-92729290D03*
X46500000Y-93229290D03*
X45500000Y-93229290D03*
X45500000Y-92229290D03*
X46500000Y-92229290D03*
D31*
X3190000Y-169110000D03*
X3190000Y-171650000D03*
X3190000Y-174190000D03*
X3190000Y-176730000D03*
X3190000Y-179270000D03*
X3190000Y-181810000D03*
X3190000Y-184350000D03*
X3190000Y-186890000D03*
X10810000Y-186890000D03*
X10810000Y-184350000D03*
X10810000Y-181810000D03*
X10810000Y-179270000D03*
X10810000Y-176730000D03*
X10810000Y-174190000D03*
X10810000Y-171650000D03*
X10810000Y-169110000D03*
D32*
X186150000Y-138000000D03*
X156850000Y-138000000D03*
D33*
X110950000Y-25000000D03*
X110050000Y-25000000D03*
D34*
X115960000Y-7950000D03*
X115960000Y-4050000D03*
X117230000Y-7950000D03*
X117230000Y-4050000D03*
X118500000Y-7950000D03*
X118500000Y-4050000D03*
X119770000Y-4050000D03*
X121040000Y-7950000D03*
X121040000Y-4050000D03*
X119770000Y-7950000D03*
D35*
X72000000Y-22700000D03*
X72500000Y-22700000D03*
X73000000Y-22700000D03*
X73500000Y-22700000D03*
X74000000Y-22700000D03*
X74500000Y-22700000D03*
X75000000Y-22700000D03*
X75500000Y-22700000D03*
X76000000Y-22700000D03*
X76500000Y-22700000D03*
X77000000Y-22700000D03*
X77500000Y-22700000D03*
X78000000Y-22700000D03*
X78500000Y-22700000D03*
X79000000Y-22700000D03*
X79500000Y-22700000D03*
X80000000Y-22700000D03*
X80500000Y-22700000D03*
X81000000Y-22700000D03*
X81500000Y-22700000D03*
X82000000Y-22700000D03*
X82500000Y-22700000D03*
X83000000Y-22700000D03*
X83500000Y-22700000D03*
X84000000Y-22700000D03*
D36*
X85700000Y-21000000D03*
X85700000Y-20500000D03*
X85700000Y-20000000D03*
X85700000Y-19500000D03*
X85700000Y-19000000D03*
X85700000Y-18500000D03*
X85700000Y-18000000D03*
X85700000Y-17500000D03*
X85700000Y-17000000D03*
X85700000Y-16500000D03*
X85700000Y-16000000D03*
X85700000Y-15500000D03*
X85700000Y-15000000D03*
X85700000Y-14500000D03*
X85700000Y-14000000D03*
X85700000Y-13500000D03*
X85700000Y-13000000D03*
X85700000Y-12500000D03*
X85700000Y-12000000D03*
X85700000Y-11500000D03*
X85700000Y-11000000D03*
X85700000Y-10500000D03*
X85700000Y-10000000D03*
X85700000Y-9500000D03*
X85700000Y-9000000D03*
D35*
X84000000Y-7300000D03*
X83500000Y-7300000D03*
X83000000Y-7300000D03*
X82500000Y-7300000D03*
X82000000Y-7300000D03*
X81500000Y-7300000D03*
X81000000Y-7300000D03*
X80500000Y-7300000D03*
X80000000Y-7300000D03*
X79500000Y-7300000D03*
X79000000Y-7300000D03*
X78500000Y-7300000D03*
X78000000Y-7300000D03*
X77500000Y-7300000D03*
X77000000Y-7300000D03*
X76500000Y-7300000D03*
X76000000Y-7300000D03*
X75500000Y-7300000D03*
X75000000Y-7300000D03*
X74500000Y-7300000D03*
X74000000Y-7300000D03*
X73500000Y-7300000D03*
X73000000Y-7300000D03*
X72500000Y-7300000D03*
X72000000Y-7300000D03*
D36*
X70300000Y-9000000D03*
X70300000Y-9500000D03*
X70300000Y-10000000D03*
X70300000Y-10500000D03*
X70300000Y-11000000D03*
X70300000Y-11500000D03*
X70300000Y-12000000D03*
X70300000Y-12500000D03*
X70300000Y-13000000D03*
X70300000Y-13500000D03*
X70300000Y-14000000D03*
X70300000Y-14500000D03*
X70300000Y-15000000D03*
X70300000Y-15500000D03*
X70300000Y-16000000D03*
X70300000Y-16500000D03*
X70300000Y-17000000D03*
X70300000Y-17500000D03*
X70300000Y-18000000D03*
X70300000Y-18500000D03*
X70300000Y-19000000D03*
X70300000Y-19500000D03*
X70300000Y-20000000D03*
X70300000Y-20500000D03*
X70300000Y-21000000D03*
D37*
X33000000Y-182000000D03*
D38*
X34250000Y-193650000D03*
X36250000Y-192650000D03*
X34250000Y-191650000D03*
X36250000Y-190650000D03*
X34250000Y-189650000D03*
X36250000Y-188650000D03*
X34250000Y-187650000D03*
X36250000Y-186650000D03*
X34250000Y-185650000D03*
X36250000Y-184650000D03*
X34250000Y-183650000D03*
D39*
X31750000Y-193650000D03*
D38*
X29750000Y-192650000D03*
X31750000Y-191650000D03*
X29750000Y-190650000D03*
X31750000Y-189650000D03*
X29750000Y-188650000D03*
X31750000Y-187650000D03*
X29750000Y-186650000D03*
X31750000Y-185650000D03*
X29750000Y-184650000D03*
X31750000Y-183650000D03*
X36250000Y-180650000D03*
X34250000Y-179650000D03*
X36250000Y-178650000D03*
X34250000Y-177650000D03*
X36250000Y-176650000D03*
X34250000Y-175650000D03*
X36250000Y-174650000D03*
X34250000Y-173650000D03*
X36250000Y-172650000D03*
X34250000Y-171650000D03*
X36250000Y-170650000D03*
X34250000Y-169650000D03*
X36250000Y-168650000D03*
X34250000Y-167650000D03*
X36250000Y-166650000D03*
X34250000Y-165650000D03*
X36250000Y-164650000D03*
X34250000Y-163650000D03*
X36250000Y-162650000D03*
X34250000Y-161650000D03*
X36250000Y-160650000D03*
X34250000Y-159650000D03*
X36250000Y-158650000D03*
X34250000Y-157650000D03*
X36250000Y-156650000D03*
X34250000Y-155650000D03*
X36250000Y-154650000D03*
X34250000Y-153650000D03*
X36250000Y-152650000D03*
X34250000Y-151650000D03*
X36250000Y-150650000D03*
X34250000Y-149650000D03*
X36250000Y-148650000D03*
X34250000Y-147650000D03*
X36250000Y-146650000D03*
X34250000Y-145650000D03*
X36250000Y-144650000D03*
X34250000Y-143650000D03*
X29750000Y-180650000D03*
X31750000Y-179650000D03*
X29750000Y-178650000D03*
X31750000Y-177650000D03*
X29750000Y-176650000D03*
X31750000Y-175650000D03*
X29750000Y-174650000D03*
X31750000Y-173650000D03*
X29750000Y-172650000D03*
X31750000Y-171650000D03*
X29750000Y-170650000D03*
X31750000Y-169650000D03*
X29750000Y-168650000D03*
X31750000Y-167650000D03*
X29750000Y-166650000D03*
X31750000Y-165650000D03*
X29750000Y-164650000D03*
X31750000Y-163650000D03*
X29750000Y-162650000D03*
X31750000Y-161650000D03*
X29750000Y-160650000D03*
X31750000Y-159650000D03*
X29750000Y-158650000D03*
X31750000Y-157650000D03*
X29750000Y-156650000D03*
X31750000Y-155650000D03*
X29750000Y-154650000D03*
X31750000Y-153650000D03*
X29750000Y-152650000D03*
X31750000Y-151650000D03*
X29750000Y-150650000D03*
X31750000Y-149650000D03*
X29750000Y-148650000D03*
X31750000Y-147650000D03*
X29750000Y-146650000D03*
X31750000Y-145650000D03*
X29750000Y-144650000D03*
X31750000Y-143650000D03*
D37*
X33000000Y-141850000D03*
D40*
X56300000Y-127600000D03*
X56300000Y-128400000D03*
X56300000Y-129200000D03*
X56300000Y-130000000D03*
X56300000Y-130800000D03*
X56300000Y-131600000D03*
X56300000Y-132400000D03*
X56300000Y-133200000D03*
X56300000Y-134000000D03*
X56300000Y-134800000D03*
X56300000Y-135600000D03*
X56300000Y-136400000D03*
X56300000Y-137200000D03*
X56300000Y-138000000D03*
X56300000Y-138800000D03*
X56300000Y-139600000D03*
X56300000Y-140400000D03*
X56300000Y-141200000D03*
X56300000Y-142000000D03*
X56300000Y-142800000D03*
X56300000Y-143600000D03*
X56300000Y-144400000D03*
X67700000Y-144400000D03*
X67700000Y-143600000D03*
X67700000Y-142800000D03*
X67700000Y-142000000D03*
X67700000Y-141200000D03*
X67700000Y-140400000D03*
X67700000Y-139600000D03*
X67700000Y-138800000D03*
X67700000Y-138000000D03*
X67700000Y-137200000D03*
X67700000Y-136400000D03*
X67700000Y-135600000D03*
X67700000Y-134800000D03*
X67700000Y-134000000D03*
X67700000Y-133200000D03*
X67700000Y-132400000D03*
X67700000Y-131600000D03*
X67700000Y-130800000D03*
X67700000Y-130000000D03*
X67700000Y-129200000D03*
X67700000Y-128400000D03*
X67700000Y-127600000D03*
D41*
X14500000Y-14000000D03*
D42*
X14500000Y-8000000D03*
D43*
X69550000Y-4000000D03*
X68900000Y-4000000D03*
X68250000Y-4000000D03*
X67600000Y-4000000D03*
X66950000Y-4000000D03*
D44*
X71750000Y-1300000D03*
X64750000Y-1300000D03*
D45*
X70750000Y-4000000D03*
X65750000Y-4000000D03*
D46*
X180000000Y-30000000D03*
D47*
X176190000Y-92865000D03*
X181270000Y-92865000D03*
D46*
X180000000Y-94770000D03*
D47*
X178730000Y-91595000D03*
X183810000Y-91595000D03*
X176190000Y-90325000D03*
X176190000Y-87785000D03*
X176190000Y-85245000D03*
X176190000Y-82705000D03*
X176190000Y-80165000D03*
X176190000Y-77625000D03*
X176190000Y-75085000D03*
X176190000Y-72545000D03*
X176190000Y-70005000D03*
X176190000Y-67465000D03*
X176190000Y-64925000D03*
X176190000Y-62385000D03*
X176190000Y-59845000D03*
X176190000Y-57305000D03*
X176190000Y-54765000D03*
X178730000Y-89055000D03*
X178730000Y-86515000D03*
X178730000Y-83975000D03*
X178730000Y-81435000D03*
X178730000Y-78895000D03*
X178730000Y-76355000D03*
X178730000Y-73815000D03*
X178730000Y-71275000D03*
X178730000Y-68735000D03*
X178730000Y-66195000D03*
X178730000Y-63655000D03*
X178730000Y-61115000D03*
X178730000Y-58575000D03*
X178730000Y-56035000D03*
X178730000Y-53495000D03*
X176190000Y-52225000D03*
X178730000Y-50955000D03*
X176190000Y-49685000D03*
X178730000Y-48415000D03*
X176190000Y-47145000D03*
X178730000Y-45875000D03*
X176190000Y-44605000D03*
X178730000Y-43335000D03*
X176190000Y-42065000D03*
X178730000Y-40795000D03*
X176190000Y-39525000D03*
X178730000Y-38255000D03*
X176190000Y-36985000D03*
X178730000Y-35715000D03*
X176190000Y-34445000D03*
X178730000Y-33175000D03*
X176190000Y-31905000D03*
X178730000Y-28095000D03*
X176190000Y-26825000D03*
X178730000Y-25555000D03*
X176190000Y-24285000D03*
X178730000Y-23015000D03*
X176190000Y-21745000D03*
X178730000Y-20475000D03*
X176190000Y-19205000D03*
X178730000Y-17935000D03*
X176190000Y-16665000D03*
X178730000Y-15395000D03*
X181270000Y-90325000D03*
X183810000Y-89055000D03*
X181270000Y-87785000D03*
X183810000Y-86515000D03*
X181270000Y-85245000D03*
X183810000Y-83975000D03*
X181270000Y-82705000D03*
X183810000Y-81435000D03*
X181270000Y-80165000D03*
X183810000Y-78895000D03*
X181270000Y-77625000D03*
X183810000Y-76355000D03*
X181270000Y-75085000D03*
X183810000Y-73815000D03*
X181270000Y-72545000D03*
X183810000Y-71275000D03*
X181270000Y-70005000D03*
X183810000Y-68735000D03*
X181270000Y-67465000D03*
X183810000Y-66195000D03*
X181270000Y-64925000D03*
X183810000Y-63655000D03*
X181270000Y-62385000D03*
X183810000Y-61115000D03*
X181270000Y-59845000D03*
X183810000Y-58575000D03*
X181270000Y-57305000D03*
X183810000Y-56035000D03*
X181270000Y-54765000D03*
X183810000Y-53495000D03*
X181270000Y-52225000D03*
X183810000Y-50955000D03*
X181270000Y-49685000D03*
X183810000Y-48415000D03*
X181270000Y-47145000D03*
X183810000Y-45875000D03*
X181270000Y-44605000D03*
X183810000Y-43335000D03*
X181270000Y-42065000D03*
X183810000Y-40795000D03*
X181270000Y-39525000D03*
X183810000Y-38255000D03*
X181270000Y-36985000D03*
X183810000Y-35715000D03*
X181270000Y-34445000D03*
X183810000Y-33175000D03*
X181270000Y-31905000D03*
X183810000Y-28095000D03*
X181270000Y-26825000D03*
X183810000Y-25555000D03*
X181270000Y-24285000D03*
X183810000Y-23015000D03*
X181270000Y-21745000D03*
X183810000Y-20475000D03*
X181270000Y-19205000D03*
X183810000Y-17935000D03*
X181270000Y-16665000D03*
X183810000Y-15395000D03*
D46*
X159680000Y-30000000D03*
D47*
X155870000Y-92865000D03*
X160950000Y-92865000D03*
D46*
X159680000Y-94770000D03*
D47*
X158410000Y-91595000D03*
X163490000Y-91595000D03*
X155870000Y-90325000D03*
X155870000Y-87785000D03*
X155870000Y-85245000D03*
X155870000Y-82705000D03*
X155870000Y-80165000D03*
X155870000Y-77625000D03*
X155870000Y-75085000D03*
X155870000Y-72545000D03*
X155870000Y-70005000D03*
X155870000Y-67465000D03*
X155870000Y-64925000D03*
X155870000Y-62385000D03*
X155870000Y-59845000D03*
X155870000Y-57305000D03*
X155870000Y-54765000D03*
X158410000Y-89055000D03*
X158410000Y-86515000D03*
X158410000Y-83975000D03*
X158410000Y-81435000D03*
X158410000Y-78895000D03*
X158410000Y-76355000D03*
X158410000Y-73815000D03*
X158410000Y-71275000D03*
X158410000Y-68735000D03*
X158410000Y-66195000D03*
X158410000Y-63655000D03*
X158410000Y-61115000D03*
X158410000Y-58575000D03*
X158410000Y-56035000D03*
X158410000Y-53495000D03*
X155870000Y-52225000D03*
X158410000Y-50955000D03*
X155870000Y-49685000D03*
X158410000Y-48415000D03*
X155870000Y-47145000D03*
X158410000Y-45875000D03*
X155870000Y-44605000D03*
X158410000Y-43335000D03*
X155870000Y-42065000D03*
X158410000Y-40795000D03*
X155870000Y-39525000D03*
X158410000Y-38255000D03*
X155870000Y-36985000D03*
X158410000Y-35715000D03*
X155870000Y-34445000D03*
X158410000Y-33175000D03*
X155870000Y-31905000D03*
X158410000Y-28095000D03*
X155870000Y-26825000D03*
X158410000Y-25555000D03*
X155870000Y-24285000D03*
X158410000Y-23015000D03*
X155870000Y-21745000D03*
X158410000Y-20475000D03*
X155870000Y-19205000D03*
X158410000Y-17935000D03*
X155870000Y-16665000D03*
X158410000Y-15395000D03*
X160950000Y-90325000D03*
X163490000Y-89055000D03*
X160950000Y-87785000D03*
X163490000Y-86515000D03*
X160950000Y-85245000D03*
X163490000Y-83975000D03*
X160950000Y-82705000D03*
X163490000Y-81435000D03*
X160950000Y-80165000D03*
X163490000Y-78895000D03*
X160950000Y-77625000D03*
X163490000Y-76355000D03*
X160950000Y-75085000D03*
X163490000Y-73815000D03*
X160950000Y-72545000D03*
X163490000Y-71275000D03*
X160950000Y-70005000D03*
X163490000Y-68735000D03*
X160950000Y-67465000D03*
X163490000Y-66195000D03*
X160950000Y-64925000D03*
X163490000Y-63655000D03*
X160950000Y-62385000D03*
X163490000Y-61115000D03*
X160950000Y-59845000D03*
X163490000Y-58575000D03*
X160950000Y-57305000D03*
X163490000Y-56035000D03*
X160950000Y-54765000D03*
X163490000Y-53495000D03*
X160950000Y-52225000D03*
X163490000Y-50955000D03*
X160950000Y-49685000D03*
X163490000Y-48415000D03*
X160950000Y-47145000D03*
X163490000Y-45875000D03*
X160950000Y-44605000D03*
X163490000Y-43335000D03*
X160950000Y-42065000D03*
X163490000Y-40795000D03*
X160950000Y-39525000D03*
X163490000Y-38255000D03*
X160950000Y-36985000D03*
X163490000Y-35715000D03*
X160950000Y-34445000D03*
X163490000Y-33175000D03*
X160950000Y-31905000D03*
X163490000Y-28095000D03*
X160950000Y-26825000D03*
X163490000Y-25555000D03*
X160950000Y-24285000D03*
X163490000Y-23015000D03*
X160950000Y-21745000D03*
X163490000Y-20475000D03*
X160950000Y-19205000D03*
X163490000Y-17935000D03*
X160950000Y-16665000D03*
X163490000Y-15395000D03*
D46*
X139360000Y-30000000D03*
D47*
X135550000Y-92865000D03*
X140630000Y-92865000D03*
D46*
X139360000Y-94770000D03*
D47*
X138090000Y-91595000D03*
X143170000Y-91595000D03*
X135550000Y-90325000D03*
X135550000Y-87785000D03*
X135550000Y-85245000D03*
X135550000Y-82705000D03*
X135550000Y-80165000D03*
X135550000Y-77625000D03*
X135550000Y-75085000D03*
X135550000Y-72545000D03*
X135550000Y-70005000D03*
X135550000Y-67465000D03*
X135550000Y-64925000D03*
X135550000Y-62385000D03*
X135550000Y-59845000D03*
X135550000Y-57305000D03*
X135550000Y-54765000D03*
X138090000Y-89055000D03*
X138090000Y-86515000D03*
X138090000Y-83975000D03*
X138090000Y-81435000D03*
X138090000Y-78895000D03*
X138090000Y-76355000D03*
X138090000Y-73815000D03*
X138090000Y-71275000D03*
X138090000Y-68735000D03*
X138090000Y-66195000D03*
X138090000Y-63655000D03*
X138090000Y-61115000D03*
X138090000Y-58575000D03*
X138090000Y-56035000D03*
X138090000Y-53495000D03*
X135550000Y-52225000D03*
X138090000Y-50955000D03*
X135550000Y-49685000D03*
X138090000Y-48415000D03*
X135550000Y-47145000D03*
X138090000Y-45875000D03*
X135550000Y-44605000D03*
X138090000Y-43335000D03*
X135550000Y-42065000D03*
X138090000Y-40795000D03*
X135550000Y-39525000D03*
X138090000Y-38255000D03*
X135550000Y-36985000D03*
X138090000Y-35715000D03*
X135550000Y-34445000D03*
X138090000Y-33175000D03*
X135550000Y-31905000D03*
X138090000Y-28095000D03*
X135550000Y-26825000D03*
X138090000Y-25555000D03*
X135550000Y-24285000D03*
X138090000Y-23015000D03*
X135550000Y-21745000D03*
X138090000Y-20475000D03*
X135550000Y-19205000D03*
X138090000Y-17935000D03*
X135550000Y-16665000D03*
X138090000Y-15395000D03*
X140630000Y-90325000D03*
X143170000Y-89055000D03*
X140630000Y-87785000D03*
X143170000Y-86515000D03*
X140630000Y-85245000D03*
X143170000Y-83975000D03*
X140630000Y-82705000D03*
X143170000Y-81435000D03*
X140630000Y-80165000D03*
X143170000Y-78895000D03*
X140630000Y-77625000D03*
X143170000Y-76355000D03*
X140630000Y-75085000D03*
X143170000Y-73815000D03*
X140630000Y-72545000D03*
X143170000Y-71275000D03*
X140630000Y-70005000D03*
X143170000Y-68735000D03*
X140630000Y-67465000D03*
X143170000Y-66195000D03*
X140630000Y-64925000D03*
X143170000Y-63655000D03*
X140630000Y-62385000D03*
X143170000Y-61115000D03*
X140630000Y-59845000D03*
X143170000Y-58575000D03*
X140630000Y-57305000D03*
X143170000Y-56035000D03*
X140630000Y-54765000D03*
X143170000Y-53495000D03*
X140630000Y-52225000D03*
X143170000Y-50955000D03*
X140630000Y-49685000D03*
X143170000Y-48415000D03*
X140630000Y-47145000D03*
X143170000Y-45875000D03*
X140630000Y-44605000D03*
X143170000Y-43335000D03*
X140630000Y-42065000D03*
X143170000Y-40795000D03*
X140630000Y-39525000D03*
X143170000Y-38255000D03*
X140630000Y-36985000D03*
X143170000Y-35715000D03*
X140630000Y-34445000D03*
X143170000Y-33175000D03*
X140630000Y-31905000D03*
X143170000Y-28095000D03*
X140630000Y-26825000D03*
X143170000Y-25555000D03*
X140630000Y-24285000D03*
X143170000Y-23015000D03*
X140630000Y-21745000D03*
X143170000Y-20475000D03*
X140630000Y-19205000D03*
X143170000Y-17935000D03*
X140630000Y-16665000D03*
X143170000Y-15395000D03*
D46*
X119040000Y-30000000D03*
D47*
X115230000Y-92865000D03*
X120310000Y-92865000D03*
D46*
X119040000Y-94770000D03*
D47*
X117770000Y-91595000D03*
X122850000Y-91595000D03*
X115230000Y-90325000D03*
X115230000Y-87785000D03*
X115230000Y-85245000D03*
X115230000Y-82705000D03*
X115230000Y-80165000D03*
X115230000Y-77625000D03*
X115230000Y-75085000D03*
X115230000Y-72545000D03*
X115230000Y-70005000D03*
X115230000Y-67465000D03*
X115230000Y-64925000D03*
X115230000Y-62385000D03*
X115230000Y-59845000D03*
X115230000Y-57305000D03*
X115230000Y-54765000D03*
X117770000Y-89055000D03*
X117770000Y-86515000D03*
X117770000Y-83975000D03*
X117770000Y-81435000D03*
X117770000Y-78895000D03*
X117770000Y-76355000D03*
X117770000Y-73815000D03*
X117770000Y-71275000D03*
X117770000Y-68735000D03*
X117770000Y-66195000D03*
X117770000Y-63655000D03*
X117770000Y-61115000D03*
X117770000Y-58575000D03*
X117770000Y-56035000D03*
X117770000Y-53495000D03*
X115230000Y-52225000D03*
X117770000Y-50955000D03*
X115230000Y-49685000D03*
X117770000Y-48415000D03*
X115230000Y-47145000D03*
X117770000Y-45875000D03*
X115230000Y-44605000D03*
X117770000Y-43335000D03*
X115230000Y-42065000D03*
X117770000Y-40795000D03*
X115230000Y-39525000D03*
X117770000Y-38255000D03*
X115230000Y-36985000D03*
X117770000Y-35715000D03*
X115230000Y-34445000D03*
X117770000Y-33175000D03*
X115230000Y-31905000D03*
X117770000Y-28095000D03*
X115230000Y-26825000D03*
X117770000Y-25555000D03*
X115230000Y-24285000D03*
X117770000Y-23015000D03*
X115230000Y-21745000D03*
X117770000Y-20475000D03*
X115230000Y-19205000D03*
X117770000Y-17935000D03*
X115230000Y-16665000D03*
X117770000Y-15395000D03*
X120310000Y-90325000D03*
X122850000Y-89055000D03*
X120310000Y-87785000D03*
X122850000Y-86515000D03*
X120310000Y-85245000D03*
X122850000Y-83975000D03*
X120310000Y-82705000D03*
X122850000Y-81435000D03*
X120310000Y-80165000D03*
X122850000Y-78895000D03*
X120310000Y-77625000D03*
X122850000Y-76355000D03*
X120310000Y-75085000D03*
X122850000Y-73815000D03*
X120310000Y-72545000D03*
X122850000Y-71275000D03*
X120310000Y-70005000D03*
X122850000Y-68735000D03*
X120310000Y-67465000D03*
X122850000Y-66195000D03*
X120310000Y-64925000D03*
X122850000Y-63655000D03*
X120310000Y-62385000D03*
X122850000Y-61115000D03*
X120310000Y-59845000D03*
X122850000Y-58575000D03*
X120310000Y-57305000D03*
X122850000Y-56035000D03*
X120310000Y-54765000D03*
X122850000Y-53495000D03*
X120310000Y-52225000D03*
X122850000Y-50955000D03*
X120310000Y-49685000D03*
X122850000Y-48415000D03*
X120310000Y-47145000D03*
X122850000Y-45875000D03*
X120310000Y-44605000D03*
X122850000Y-43335000D03*
X120310000Y-42065000D03*
X122850000Y-40795000D03*
X120310000Y-39525000D03*
X122850000Y-38255000D03*
X120310000Y-36985000D03*
X122850000Y-35715000D03*
X120310000Y-34445000D03*
X122850000Y-33175000D03*
X120310000Y-31905000D03*
X122850000Y-28095000D03*
X120310000Y-26825000D03*
X122850000Y-25555000D03*
X120310000Y-24285000D03*
X122850000Y-23015000D03*
X120310000Y-21745000D03*
X122850000Y-20475000D03*
X120310000Y-19205000D03*
X122850000Y-17935000D03*
X120310000Y-16665000D03*
X122850000Y-15395000D03*
D12*
X150000000Y-27750320D03*
D48*
X150000000Y-30249680D03*
D12*
X191000000Y-27750320D03*
D48*
X191000000Y-30249680D03*
D12*
X191000000Y-20750320D03*
D48*
X191000000Y-23249680D03*
D12*
X170000000Y-66250320D03*
D48*
X170000000Y-68749680D03*
D12*
X170500000Y-34750320D03*
D48*
X170500000Y-37249680D03*
D12*
X170500000Y-27750320D03*
D48*
X170500000Y-30249680D03*
D12*
X170500000Y-20750320D03*
D48*
X170500000Y-23249680D03*
D12*
X149500000Y-66250320D03*
D48*
X149500000Y-68749680D03*
D12*
X150000000Y-34750320D03*
D48*
X150000000Y-37249680D03*
D12*
X150000000Y-20750320D03*
D48*
X150000000Y-23249680D03*
D12*
X129500000Y-66250320D03*
D48*
X129500000Y-68749680D03*
D12*
X130000000Y-34750320D03*
D48*
X130000000Y-37249680D03*
D12*
X130000000Y-27750320D03*
D48*
X130000000Y-30249680D03*
D12*
X130000000Y-20750320D03*
D48*
X130000000Y-23249680D03*
D12*
X190500000Y-66250320D03*
D48*
X190500000Y-68749680D03*
D12*
X130000000Y-13750320D03*
D48*
X130000000Y-16249680D03*
D12*
X150000000Y-13750320D03*
D48*
X150000000Y-16249680D03*
D12*
X170500000Y-13750320D03*
D48*
X170500000Y-16249680D03*
D12*
X191000000Y-34750320D03*
D48*
X191000000Y-37249680D03*
D12*
X191000000Y-13750320D03*
D48*
X191000000Y-16249680D03*
D12*
X191000000Y-91750320D03*
D48*
X191000000Y-94249680D03*
D12*
X170000000Y-91750320D03*
D48*
X170000000Y-94249680D03*
D12*
X149500000Y-91750320D03*
D48*
X149500000Y-94249680D03*
D12*
X129500000Y-91750320D03*
D48*
X129500000Y-94249680D03*
D49*
X16100000Y-117000000D03*
X11500000Y-117000000D03*
D50*
X13800000Y-123900000D03*
D51*
X11400000Y-107700000D03*
X11400000Y-112300000D03*
D50*
X18300000Y-110000000D03*
D52*
X19500000Y-122950000D03*
X19500000Y-122050000D03*
D53*
X135000000Y-188100840D03*
X135000000Y-189899160D03*
X135000000Y-183100840D03*
X135000000Y-184899160D03*
X151000000Y-188100840D03*
X151000000Y-189899160D03*
X152500000Y-178100840D03*
X152500000Y-179899160D03*
X145500000Y-178100840D03*
X145500000Y-179899160D03*
X137000000Y-188100840D03*
X137000000Y-189899160D03*
X137000000Y-183100840D03*
X137000000Y-184899160D03*
X137000000Y-178100840D03*
X137000000Y-179899160D03*
X137000000Y-168100840D03*
X137000000Y-169899160D03*
X137000000Y-163100840D03*
X137000000Y-164899160D03*
X137000000Y-173100840D03*
X137000000Y-174899160D03*
X135000000Y-178100840D03*
X135000000Y-179899160D03*
X135000000Y-173100840D03*
X135000000Y-174899160D03*
X135000000Y-168100840D03*
X135000000Y-169899160D03*
X135000000Y-163100840D03*
X135000000Y-164899160D03*
X163500000Y-188100840D03*
X163500000Y-189899160D03*
X163500000Y-183100840D03*
X163500000Y-184899160D03*
X163500000Y-178100840D03*
X163500000Y-179899160D03*
X163500000Y-173100840D03*
X163500000Y-174899160D03*
X163500000Y-168100840D03*
X163500000Y-169899160D03*
X163500000Y-163100840D03*
X163500000Y-164899160D03*
X161500000Y-188100840D03*
X161500000Y-189899160D03*
X161500000Y-183100840D03*
X161500000Y-184899160D03*
X161500000Y-178100840D03*
X161500000Y-179899160D03*
X161500000Y-173100840D03*
X161500000Y-174899160D03*
X161500000Y-168100840D03*
X161500000Y-169899160D03*
X161500000Y-163100840D03*
X161500000Y-164899160D03*
D52*
X151000000Y-156050000D03*
X151000000Y-156950000D03*
X91750000Y-2700000D03*
X91750000Y-1800000D03*
D12*
X22000000Y-162249940D03*
D48*
X22000000Y-165750060D03*
D12*
X22000000Y-151249940D03*
D48*
X22000000Y-154750060D03*
D12*
X22000000Y-186249940D03*
D48*
X22000000Y-189750060D03*
D12*
X22000000Y-172249940D03*
D48*
X22000000Y-175750060D03*
D54*
X40150000Y-63200000D03*
X41050000Y-63200000D03*
X40150000Y-52400000D03*
X41050000Y-52400000D03*
X25850000Y-53800000D03*
X24950000Y-53800000D03*
X25850000Y-46600000D03*
X24950000Y-46600000D03*
X40150000Y-61400000D03*
X41050000Y-61400000D03*
X40150000Y-50600000D03*
X41050000Y-50600000D03*
X25850000Y-55600000D03*
X24950000Y-55600000D03*
X40150000Y-87800000D03*
X41050000Y-87800000D03*
X40150000Y-59600000D03*
X41050000Y-59600000D03*
X40150000Y-48800000D03*
X41050000Y-48800000D03*
X25850000Y-57400000D03*
X24950000Y-57400000D03*
D52*
X40000000Y-23200000D03*
X40000000Y-22300000D03*
D54*
X40150000Y-57800000D03*
X41050000Y-57800000D03*
X25850000Y-48400000D03*
X24950000Y-48400000D03*
X25850000Y-59200000D03*
X24950000Y-59200000D03*
X25850000Y-24400000D03*
X24950000Y-24400000D03*
X40150000Y-56000000D03*
X41050000Y-56000000D03*
X25850000Y-50200000D03*
X24950000Y-50200000D03*
X25850000Y-61000000D03*
X24950000Y-61000000D03*
D52*
X40000000Y-26450000D03*
X40000000Y-25550000D03*
D54*
X40150000Y-54200000D03*
X41050000Y-54200000D03*
X25850000Y-52000000D03*
X24950000Y-52000000D03*
X25850000Y-62800000D03*
X24950000Y-62800000D03*
D55*
X119000000Y-104000000D03*
D38*
X122000000Y-104000000D03*
X120500000Y-106600000D03*
X117500000Y-106600000D03*
X116000000Y-104000000D03*
X117500000Y-101400000D03*
X120500000Y-101400000D03*
D55*
X78000000Y-130000000D03*
D38*
X81000000Y-130000000D03*
X79500000Y-132600000D03*
X76500000Y-132600000D03*
X75000000Y-130000000D03*
X76500000Y-127400000D03*
X79500000Y-127400000D03*
D55*
X33000000Y-104000000D03*
D38*
X36000000Y-104000000D03*
X34500000Y-106600000D03*
X31500000Y-106600000D03*
X30000000Y-104000000D03*
X31500000Y-101400000D03*
X34500000Y-101400000D03*
D55*
X92000000Y-32000000D03*
D38*
X95000000Y-32000000D03*
X93500000Y-34600000D03*
X90500000Y-34600000D03*
X89000000Y-32000000D03*
X90500000Y-29400000D03*
X93500000Y-29400000D03*
D40*
X88300000Y-127600000D03*
X88300000Y-128400000D03*
X88300000Y-129200000D03*
X88300000Y-130000000D03*
X88300000Y-130800000D03*
X88300000Y-131600000D03*
X88300000Y-132400000D03*
X88300000Y-133200000D03*
X88300000Y-134000000D03*
X88300000Y-134800000D03*
X88300000Y-135600000D03*
X88300000Y-136400000D03*
X88300000Y-137200000D03*
X88300000Y-138000000D03*
X88300000Y-138800000D03*
X88300000Y-139600000D03*
X88300000Y-140400000D03*
X88300000Y-141200000D03*
X88300000Y-142000000D03*
X88300000Y-142800000D03*
X88300000Y-143600000D03*
X88300000Y-144400000D03*
X99700000Y-144400000D03*
X99700000Y-143600000D03*
X99700000Y-142800000D03*
X99700000Y-142000000D03*
X99700000Y-141200000D03*
X99700000Y-140400000D03*
X99700000Y-139600000D03*
X99700000Y-138800000D03*
X99700000Y-138000000D03*
X99700000Y-137200000D03*
X99700000Y-136400000D03*
X99700000Y-135600000D03*
X99700000Y-134800000D03*
X99700000Y-134000000D03*
X99700000Y-133200000D03*
X99700000Y-132400000D03*
X99700000Y-131600000D03*
X99700000Y-130800000D03*
X99700000Y-130000000D03*
X99700000Y-129200000D03*
X99700000Y-128400000D03*
X99700000Y-127600000D03*
D56*
X61700000Y-196160000D03*
X61700000Y-193620000D03*
X61700000Y-180920000D03*
X61700000Y-178380000D03*
X61700000Y-175840000D03*
X50700000Y-196160000D03*
X50700000Y-193620000D03*
X50700000Y-180920000D03*
X50700000Y-178380000D03*
X50700000Y-175840000D03*
D57*
X42000000Y-192050000D03*
X42000000Y-187950000D03*
X42000000Y-179950000D03*
X42000000Y-184050000D03*
D54*
X42550000Y-178000000D03*
X43450000Y-178000000D03*
X42550000Y-194000000D03*
X43450000Y-194000000D03*
D52*
X65000000Y-193450000D03*
X65000000Y-192550000D03*
X54000000Y-193450000D03*
X54000000Y-192550000D03*
D58*
X175025000Y-198250000D03*
X182975000Y-198250000D03*
X175025000Y-193750000D03*
X182975000Y-193750000D03*
X143025000Y-198250000D03*
X150975000Y-198250000D03*
X143025000Y-193750000D03*
X150975000Y-193750000D03*
D52*
X171250000Y-196550000D03*
X171250000Y-197450000D03*
X139250000Y-196550000D03*
X139250000Y-197450000D03*
X54500000Y-135550000D03*
X54500000Y-136450000D03*
X69500000Y-136450000D03*
X69500000Y-135550000D03*
X86500000Y-135550000D03*
X86500000Y-136450000D03*
X101500000Y-136450000D03*
X101500000Y-135550000D03*
D49*
X169300000Y-114400000D03*
X164700000Y-114400000D03*
D50*
X167000000Y-121300000D03*
D49*
X187700000Y-117600000D03*
X192300000Y-117600000D03*
D50*
X190000000Y-110700000D03*
D59*
X158750000Y-124500000D03*
X157250000Y-124500000D03*
X158750000Y-122500000D03*
X157250000Y-122500000D03*
X155250000Y-128750000D03*
X153750000Y-128750000D03*
X158750000Y-120500000D03*
X157250000Y-120500000D03*
X155250000Y-120000000D03*
X153750000Y-120000000D03*
X155250000Y-122500000D03*
X153750000Y-122500000D03*
X155250000Y-126750000D03*
X153750000Y-126750000D03*
X155250000Y-124500000D03*
X153750000Y-124500000D03*
D33*
X136500000Y-129800000D03*
X136500000Y-130700000D03*
X145800000Y-127500000D03*
X146700000Y-127500000D03*
X133500000Y-120050000D03*
X133500000Y-120950000D03*
X135000000Y-129800000D03*
X135000000Y-130700000D03*
D51*
X183900000Y-119300000D03*
X183900000Y-114700000D03*
D50*
X177000000Y-117000000D03*
D60*
X135425000Y-127450000D03*
X136075000Y-127450000D03*
X136725000Y-127450000D03*
X137375000Y-127450000D03*
X138025000Y-127450000D03*
X138675000Y-127450000D03*
X139325000Y-127450000D03*
X139975000Y-127450000D03*
X140625000Y-127450000D03*
X141275000Y-127450000D03*
X141925000Y-127450000D03*
X142575000Y-127450000D03*
X142575000Y-120550000D03*
X141925000Y-120550000D03*
X141275000Y-120550000D03*
X140625000Y-120550000D03*
X139975000Y-120550000D03*
X139325000Y-120550000D03*
X138675000Y-120550000D03*
X138025000Y-120550000D03*
X137375000Y-120550000D03*
X136725000Y-120550000D03*
X136075000Y-120550000D03*
X135425000Y-120550000D03*
D33*
X145800000Y-129000000D03*
X146700000Y-129000000D03*
X145800000Y-130500000D03*
X146700000Y-130500000D03*
D52*
X133500000Y-123450000D03*
X133500000Y-122550000D03*
D61*
X191350000Y-140950000D03*
X191350000Y-140050000D03*
X197650000Y-140950000D03*
X197650000Y-140050000D03*
D62*
X193300000Y-136450000D03*
X194100000Y-136450000D03*
X194900000Y-136450000D03*
X195700000Y-136450000D03*
X195700000Y-132550000D03*
X194900000Y-132550000D03*
X194100000Y-132550000D03*
X193300000Y-132550000D03*
D63*
X194500000Y-134500000D03*
D33*
X190500000Y-132550000D03*
X190500000Y-133450000D03*
D52*
X190500000Y-130950000D03*
X190500000Y-130050000D03*
X191750000Y-130950000D03*
X191750000Y-130050000D03*
X193000000Y-130950000D03*
X193000000Y-130050000D03*
D54*
X195050000Y-138500000D03*
X195950000Y-138500000D03*
D52*
X194250000Y-130950000D03*
X194250000Y-130050000D03*
D64*
X55150000Y-5050000D03*
X55150000Y-6950000D03*
X55150000Y-6000000D03*
X57350000Y-6950000D03*
X57350000Y-5050000D03*
D65*
X56188277Y-9390254D03*
X56188277Y-10040254D03*
X56188277Y-10690254D03*
X56188277Y-11340254D03*
X56188277Y-11990254D03*
X56188277Y-12640254D03*
X56188277Y-13290254D03*
X62088277Y-13290254D03*
X62088277Y-12640254D03*
X62088277Y-11990254D03*
X62088277Y-11340254D03*
X62088277Y-10690254D03*
X62088277Y-10040254D03*
X62088277Y-9390254D03*
D52*
X54250000Y-13950000D03*
X54250000Y-13050000D03*
X54250000Y-10800000D03*
X54250000Y-11700000D03*
D66*
X50750000Y-94500000D03*
X52250000Y-94500000D03*
D67*
X50500000Y-90750000D03*
X50500000Y-92250000D03*
X52500000Y-90750000D03*
X52500000Y-92250000D03*
D52*
X41500000Y-93950000D03*
X41500000Y-93050000D03*
X41500000Y-90550000D03*
X41500000Y-91450000D03*
D54*
X110950000Y-33000000D03*
X110050000Y-33000000D03*
X110950000Y-50000000D03*
X110050000Y-50000000D03*
X110950000Y-46500000D03*
X110050000Y-46500000D03*
X110950000Y-61000000D03*
X110050000Y-61000000D03*
X110950000Y-57500000D03*
X110050000Y-57500000D03*
X110950000Y-74000000D03*
X110050000Y-74000000D03*
D33*
X78000000Y-2050000D03*
X78000000Y-2950000D03*
X76500000Y-2050000D03*
X76500000Y-2950000D03*
X47700000Y-121000000D03*
X46800000Y-121000000D03*
D54*
X46800000Y-119500000D03*
X47700000Y-119500000D03*
D33*
X90250000Y-20050000D03*
X90250000Y-20950000D03*
D68*
X56250000Y-24050000D03*
X54250000Y-24050000D03*
X52250000Y-24050000D03*
X50250000Y-24050000D03*
X58250000Y-24050000D03*
X60250000Y-24050000D03*
X62250000Y-24050000D03*
X62250000Y-18450000D03*
X60250000Y-18450000D03*
X58250000Y-18450000D03*
X56250000Y-18450000D03*
X54250000Y-18450000D03*
X52250000Y-18450000D03*
X50250000Y-18450000D03*
X62000000Y-154800000D03*
X60000000Y-154800000D03*
X58000000Y-154800000D03*
X56000000Y-154800000D03*
X64000000Y-154800000D03*
X66000000Y-154800000D03*
X68000000Y-154800000D03*
X68000000Y-149200000D03*
X66000000Y-149200000D03*
X64000000Y-149200000D03*
X62000000Y-149200000D03*
X60000000Y-149200000D03*
X58000000Y-149200000D03*
X56000000Y-149200000D03*
X94000000Y-154800000D03*
X92000000Y-154800000D03*
X90000000Y-154800000D03*
X88000000Y-154800000D03*
X96000000Y-154800000D03*
X98000000Y-154800000D03*
X100000000Y-154800000D03*
X100000000Y-149200000D03*
X98000000Y-149200000D03*
X96000000Y-149200000D03*
X94000000Y-149200000D03*
X92000000Y-149200000D03*
X90000000Y-149200000D03*
X88000000Y-149200000D03*
D53*
X107000000Y-196399160D03*
X107000000Y-194600840D03*
X105000000Y-196399160D03*
X105000000Y-194600840D03*
D33*
X103000000Y-196000000D03*
X103000000Y-195100000D03*
X101500000Y-195950000D03*
X101500000Y-195050000D03*
D69*
X196975000Y-176750000D03*
X196325000Y-176750000D03*
X195675000Y-176750000D03*
X195025000Y-176750000D03*
X195025000Y-181250000D03*
X195675000Y-181250000D03*
X196325000Y-181250000D03*
X196975000Y-181250000D03*
X47475000Y-108000000D03*
X46825000Y-108000000D03*
X46175000Y-108000000D03*
X45525000Y-108000000D03*
X45525000Y-112500000D03*
X46175000Y-112500000D03*
X46825000Y-112500000D03*
X47475000Y-112500000D03*
D54*
X47700000Y-114250000D03*
X46800000Y-114250000D03*
X196950000Y-183000000D03*
X196050000Y-183000000D03*
D33*
X66750000Y-13450000D03*
X66750000Y-12550000D03*
X65250000Y-13450000D03*
X65250000Y-12550000D03*
D70*
X66750000Y-9925000D03*
D71*
X66350000Y-11075000D03*
X67150000Y-11075000D03*
D70*
X64750000Y-9925000D03*
D71*
X64350000Y-11075000D03*
X65150000Y-11075000D03*
D70*
X141200000Y-130825000D03*
D71*
X141600000Y-129675000D03*
X140800000Y-129675000D03*
D70*
X143100000Y-130825000D03*
D71*
X143500000Y-129675000D03*
X142700000Y-129675000D03*
D70*
X139250000Y-130825000D03*
D71*
X139650000Y-129675000D03*
X138850000Y-129675000D03*
D33*
X66750000Y-18950000D03*
X66750000Y-18050000D03*
X65500000Y-18950000D03*
X65500000Y-18050000D03*
X65500000Y-16450000D03*
X65500000Y-15550000D03*
X66750000Y-16450000D03*
X66750000Y-15550000D03*
D72*
X68000000Y-8350000D03*
X68500000Y-6650000D03*
X67500000Y-6650000D03*
X68000000Y-6650000D03*
X67500000Y-8350000D03*
X68500000Y-8350000D03*
D33*
X74950000Y-3250000D03*
X74050000Y-3250000D03*
X74950000Y-1750000D03*
X74050000Y-1750000D03*
D73*
X59650000Y-6850000D03*
X61850000Y-6850000D03*
X61850000Y-5150000D03*
X59650000Y-5150000D03*
D74*
X46525000Y-18800000D03*
X45875000Y-18800000D03*
X45225000Y-18800000D03*
X44575000Y-18800000D03*
X43925000Y-18800000D03*
X43275000Y-18800000D03*
X42625000Y-18800000D03*
X41975000Y-18800000D03*
X41975000Y-24700000D03*
X42625000Y-24700000D03*
X43275000Y-24700000D03*
X43925000Y-24700000D03*
X44575000Y-24700000D03*
X45225000Y-24700000D03*
X45875000Y-24700000D03*
X46525000Y-24700000D03*
D54*
X45950000Y-26400000D03*
X46850000Y-26400000D03*
X47950000Y-16750000D03*
X47050000Y-16750000D03*
X44550000Y-16750000D03*
X45450000Y-16750000D03*
D52*
X40250000Y-17550000D03*
X40250000Y-18450000D03*
D54*
X42950000Y-16750000D03*
X42050000Y-16750000D03*
D59*
X50250000Y-15000000D03*
X51750000Y-15000000D03*
X46750000Y-15000000D03*
X48250000Y-15000000D03*
X43250000Y-15000000D03*
X44750000Y-15000000D03*
X39750000Y-15000000D03*
X41250000Y-15000000D03*
D75*
X103100000Y-24500000D03*
X101400000Y-24000000D03*
X101400000Y-25000000D03*
X101400000Y-24500000D03*
X103100000Y-25000000D03*
X103100000Y-24000000D03*
D33*
X104750000Y-24950000D03*
X104750000Y-24050000D03*
D76*
X98950000Y-24500000D03*
X96050000Y-24500000D03*
D77*
X150075000Y-126250000D03*
D71*
X148925000Y-125850000D03*
X148925000Y-126650000D03*
D77*
X150075000Y-122250000D03*
D71*
X148925000Y-121850000D03*
X148925000Y-122650000D03*
D77*
X147325000Y-122750000D03*
D71*
X146175000Y-122350000D03*
X146175000Y-123150000D03*
D77*
X150075000Y-124250000D03*
D71*
X148925000Y-123850000D03*
X148925000Y-124650000D03*
D77*
X147325000Y-124750000D03*
D71*
X146175000Y-124350000D03*
X146175000Y-125150000D03*
D77*
X109175000Y-66250000D03*
D71*
X110325000Y-66650000D03*
X110325000Y-65850000D03*
D77*
X109175000Y-63750000D03*
D71*
X110325000Y-64150000D03*
X110325000Y-63350000D03*
D33*
X111500000Y-64200000D03*
X111500000Y-63300000D03*
X111500000Y-66700000D03*
X111500000Y-65800000D03*
X57300000Y-15250000D03*
X58200000Y-15250000D03*
X55950000Y-15250000D03*
X55050000Y-15250000D03*
X84500000Y-150300000D03*
X84500000Y-151200000D03*
X110750000Y-6450000D03*
X110750000Y-5550000D03*
X109250000Y-6450000D03*
X109250000Y-5550000D03*
X63050000Y-158250000D03*
X63950000Y-158250000D03*
X57050000Y-158250000D03*
X57950000Y-158250000D03*
X110750000Y-7800000D03*
X110750000Y-8700000D03*
X84500000Y-153700000D03*
X84500000Y-152800000D03*
X82050000Y-123750000D03*
X82950000Y-123750000D03*
X46800000Y-124000000D03*
X47700000Y-124000000D03*
X84000000Y-41050000D03*
X84000000Y-41950000D03*
X47700000Y-122500000D03*
X46800000Y-122500000D03*
X47700000Y-118000000D03*
X46800000Y-118000000D03*
X88250000Y-41950000D03*
X88250000Y-41050000D03*
X82500000Y-41950000D03*
X82500000Y-41050000D03*
X80200000Y-123250000D03*
X79300000Y-123250000D03*
X80200000Y-121750000D03*
X79300000Y-121750000D03*
X54000000Y-179550000D03*
X54000000Y-180450000D03*
X65000000Y-179550000D03*
X65000000Y-180450000D03*
X66500000Y-179550000D03*
X66500000Y-180450000D03*
X65000000Y-177050000D03*
X65000000Y-177950000D03*
X109250000Y-7800000D03*
X109250000Y-8700000D03*
X81000000Y-41950000D03*
X81000000Y-41050000D03*
X47700000Y-116500000D03*
X46800000Y-116500000D03*
X80200000Y-120250000D03*
X79300000Y-120250000D03*
D78*
X49827000Y-9500000D03*
X24427000Y-9500000D03*
D79*
X42588000Y-10770000D03*
D80*
X39794000Y-10770000D03*
X37000000Y-10770000D03*
X34333000Y-10770000D03*
X31539000Y-10770000D03*
X32936000Y-8230000D03*
X35730000Y-8230000D03*
X38397000Y-8230000D03*
X41191000Y-8230000D03*
D75*
X89900000Y-4750000D03*
X91600000Y-5250000D03*
X91600000Y-4250000D03*
X91600000Y-4750000D03*
X89900000Y-4250000D03*
X89900000Y-5250000D03*
X89900000Y-7250000D03*
X91600000Y-7750000D03*
X91600000Y-6750000D03*
X91600000Y-7250000D03*
X89900000Y-6750000D03*
X89900000Y-7750000D03*
X89900000Y-9750000D03*
X91600000Y-10250000D03*
X91600000Y-9250000D03*
X91600000Y-9750000D03*
X89900000Y-9250000D03*
X89900000Y-10250000D03*
D81*
X81400000Y-2550000D03*
X81400000Y-4450000D03*
D82*
X83600000Y-3500000D03*
D33*
X85500000Y-2050000D03*
X85500000Y-2950000D03*
X110450000Y-2500000D03*
X109550000Y-2500000D03*
X92000000Y-14950000D03*
X92000000Y-15850000D03*
X87000000Y-2050000D03*
X87000000Y-2950000D03*
X110450000Y-4000000D03*
X109550000Y-4000000D03*
X92000000Y-13450000D03*
X92000000Y-12550000D03*
X79500000Y-2950000D03*
X79500000Y-2050000D03*
X88500000Y-2050000D03*
X88500000Y-2950000D03*
X21500000Y-117050000D03*
X21500000Y-117950000D03*
X21500000Y-122050000D03*
X21500000Y-122950000D03*
X139250000Y-194700000D03*
X139250000Y-193800000D03*
X171250000Y-194700000D03*
X171250000Y-193800000D03*
X187550000Y-63000000D03*
X188450000Y-63000000D03*
X110950000Y-27000000D03*
X110050000Y-27000000D03*
X125250000Y-32050000D03*
X125250000Y-32950000D03*
X191550000Y-59000000D03*
X192450000Y-59000000D03*
X166000000Y-29700000D03*
X166000000Y-28800000D03*
X187550000Y-55500000D03*
X188450000Y-55500000D03*
X187550000Y-60500000D03*
X188450000Y-60500000D03*
X110950000Y-21000000D03*
X110050000Y-21000000D03*
X187550000Y-58000000D03*
X188450000Y-58000000D03*
X187550000Y-72000000D03*
X188450000Y-72000000D03*
X110950000Y-23000000D03*
X110050000Y-23000000D03*
X191550000Y-56500000D03*
X192450000Y-56500000D03*
X191550000Y-61500000D03*
X192450000Y-61500000D03*
X125250000Y-29700000D03*
X125250000Y-28800000D03*
X166000000Y-32050000D03*
X166000000Y-32950000D03*
X145500000Y-29700000D03*
X145500000Y-28800000D03*
X186250000Y-29700000D03*
X186250000Y-28800000D03*
X145500000Y-32050000D03*
X145500000Y-32950000D03*
X187550000Y-77500000D03*
X188450000Y-77500000D03*
X186250000Y-32050000D03*
X186250000Y-32950000D03*
X141450000Y-148500000D03*
X140550000Y-148500000D03*
X186250000Y-18950000D03*
X186250000Y-18050000D03*
X186250000Y-20800000D03*
X186250000Y-21700000D03*
X186250000Y-13950000D03*
X186250000Y-13050000D03*
X186250000Y-16450000D03*
X186250000Y-15550000D03*
D83*
X67450000Y-23250000D03*
X67450000Y-21950000D03*
X67450000Y-22600000D03*
X65550000Y-21950000D03*
X65550000Y-23250000D03*
D33*
X66700000Y-24750000D03*
X65800000Y-24750000D03*
D54*
X70800000Y-24250000D03*
X71700000Y-24250000D03*
D33*
X50550000Y-125000000D03*
X51450000Y-125000000D03*
D54*
X51450000Y-126500000D03*
X50550000Y-126500000D03*
D60*
X3425000Y-139950000D03*
X4075000Y-139950000D03*
X4725000Y-139950000D03*
X5375000Y-139950000D03*
X6025000Y-139950000D03*
X6675000Y-139950000D03*
X7325000Y-139950000D03*
X7975000Y-139950000D03*
X8625000Y-139950000D03*
X9275000Y-139950000D03*
X9925000Y-139950000D03*
X10575000Y-139950000D03*
X10575000Y-133050000D03*
X9925000Y-133050000D03*
X9275000Y-133050000D03*
X8625000Y-133050000D03*
X7975000Y-133050000D03*
X7325000Y-133050000D03*
X6675000Y-133050000D03*
X6025000Y-133050000D03*
X5375000Y-133050000D03*
X4725000Y-133050000D03*
X4075000Y-133050000D03*
X3425000Y-133050000D03*
D33*
X14000000Y-140200000D03*
X14000000Y-139300000D03*
X3550000Y-129500000D03*
X4450000Y-129500000D03*
X12500000Y-140200000D03*
X12500000Y-139300000D03*
D54*
X3550000Y-131000000D03*
X4450000Y-131000000D03*
D52*
X77500000Y-25050000D03*
X77500000Y-25950000D03*
X76000000Y-25050000D03*
X76000000Y-25950000D03*
X88000000Y-15950000D03*
X88000000Y-15050000D03*
X87700000Y-22200000D03*
X87700000Y-23100000D03*
D54*
X79450000Y-4500000D03*
X78550000Y-4500000D03*
D52*
X74000000Y-4550000D03*
X74000000Y-5450000D03*
X68500000Y-13450000D03*
X68500000Y-12550000D03*
X68500000Y-16800000D03*
X68500000Y-17700000D03*
D54*
X57800000Y-1750000D03*
X58700000Y-1750000D03*
X57800000Y-3191043D03*
X58700000Y-3191043D03*
X54800000Y-3250000D03*
X55700000Y-3250000D03*
D33*
X61300000Y-1750000D03*
X62200000Y-1750000D03*
D54*
X61300000Y-3187779D03*
X62200000Y-3187779D03*
D33*
X76700000Y-121750000D03*
X75800000Y-121750000D03*
X76700000Y-120250000D03*
X75800000Y-120250000D03*
X108950000Y-121500000D03*
X108050000Y-121500000D03*
X108950000Y-123000000D03*
X108050000Y-123000000D03*
X82550000Y-29000000D03*
X83450000Y-29000000D03*
X79550000Y-28250000D03*
X80450000Y-28250000D03*
X83450000Y-27500000D03*
X82550000Y-27500000D03*
X93500000Y-19950000D03*
X93500000Y-19050000D03*
X93500000Y-22450000D03*
X93500000Y-21550000D03*
X74200000Y-25050000D03*
X74200000Y-25950000D03*
D55*
X150000000Y-6000000D03*
D38*
X153000000Y-6000000D03*
X151500000Y-8600000D03*
X148500000Y-8600000D03*
X147000000Y-6000000D03*
X148500000Y-3400000D03*
X151500000Y-3400000D03*
D55*
X193000000Y-124000000D03*
D38*
X196000000Y-124000000D03*
X194500000Y-126600000D03*
X191500000Y-126600000D03*
X190000000Y-124000000D03*
X191500000Y-121400000D03*
X194500000Y-121400000D03*
D55*
X73000000Y-187000000D03*
D38*
X76000000Y-187000000D03*
X74500000Y-189600000D03*
X71500000Y-189600000D03*
X70000000Y-187000000D03*
X71500000Y-184400000D03*
X74500000Y-184400000D03*
D84*
X67500000Y-66500000D03*
X68500000Y-66500000D03*
X69500000Y-66500000D03*
X70500000Y-66500000D03*
X71500000Y-66500000D03*
X72500000Y-66500000D03*
X73500000Y-66500000D03*
X74500000Y-66500000D03*
X75500000Y-66500000D03*
X76500000Y-66500000D03*
X77500000Y-66500000D03*
X78500000Y-66500000D03*
X79500000Y-66500000D03*
X80500000Y-66500000D03*
X81500000Y-66500000D03*
X82500000Y-66500000D03*
X83500000Y-66500000D03*
X84500000Y-66500000D03*
X85500000Y-66500000D03*
X86500000Y-66500000D03*
X87500000Y-66500000D03*
X88500000Y-66500000D03*
X67500000Y-65500000D03*
X68500000Y-65500000D03*
X69500000Y-65500000D03*
X70500000Y-65500000D03*
X71500000Y-65500000D03*
X72500000Y-65500000D03*
X73500000Y-65500000D03*
X74500000Y-65500000D03*
X75500000Y-65500000D03*
X76500000Y-65500000D03*
X77500000Y-65500000D03*
X78500000Y-65500000D03*
X79500000Y-65500000D03*
X80500000Y-65500000D03*
X81500000Y-65500000D03*
X82500000Y-65500000D03*
X83500000Y-65500000D03*
X84500000Y-65500000D03*
X85500000Y-65500000D03*
X86500000Y-65500000D03*
X87500000Y-65500000D03*
X88500000Y-65500000D03*
X67500000Y-64500000D03*
X68500000Y-64500000D03*
X69500000Y-64500000D03*
X70500000Y-64500000D03*
X71500000Y-64500000D03*
X72500000Y-64500000D03*
X73500000Y-64500000D03*
X74500000Y-64500000D03*
X75500000Y-64500000D03*
X76500000Y-64500000D03*
X77500000Y-64500000D03*
X78500000Y-64500000D03*
X79500000Y-64500000D03*
X80500000Y-64500000D03*
X81500000Y-64500000D03*
X82500000Y-64500000D03*
X83500000Y-64500000D03*
X84500000Y-64500000D03*
X85500000Y-64500000D03*
X86500000Y-64500000D03*
X87500000Y-64500000D03*
X88500000Y-64500000D03*
X67500000Y-63500000D03*
X68500000Y-63500000D03*
X69500000Y-63500000D03*
X70500000Y-63500000D03*
X71500000Y-63500000D03*
X72500000Y-63500000D03*
X73500000Y-63500000D03*
X74500000Y-63500000D03*
X75500000Y-63500000D03*
X76500000Y-63500000D03*
X77500000Y-63500000D03*
X78500000Y-63500000D03*
X79500000Y-63500000D03*
X80500000Y-63500000D03*
X81500000Y-63500000D03*
X82500000Y-63500000D03*
X83500000Y-63500000D03*
X84500000Y-63500000D03*
X85500000Y-63500000D03*
X86500000Y-63500000D03*
X87500000Y-63500000D03*
X88500000Y-63500000D03*
X67500000Y-62500000D03*
X68500000Y-62500000D03*
X69500000Y-62500000D03*
X70500000Y-62500000D03*
X71500000Y-62500000D03*
X72500000Y-62500000D03*
X73500000Y-62500000D03*
X74500000Y-62500000D03*
X75500000Y-62500000D03*
X76500000Y-62500000D03*
X77500000Y-62500000D03*
X78500000Y-62500000D03*
X79500000Y-62500000D03*
X80500000Y-62500000D03*
X81500000Y-62500000D03*
X82500000Y-62500000D03*
X83500000Y-62500000D03*
X84500000Y-62500000D03*
X85500000Y-62500000D03*
X86500000Y-62500000D03*
X87500000Y-62500000D03*
X88500000Y-62500000D03*
X67500000Y-61500000D03*
X68500000Y-61500000D03*
X69500000Y-61500000D03*
X70500000Y-61500000D03*
X71500000Y-61500000D03*
X72500000Y-61500000D03*
X73500000Y-61500000D03*
X74500000Y-61500000D03*
X75500000Y-61500000D03*
X76500000Y-61500000D03*
X77500000Y-61500000D03*
X78500000Y-61500000D03*
X79500000Y-61500000D03*
X80500000Y-61500000D03*
X81500000Y-61500000D03*
X82500000Y-61500000D03*
X83500000Y-61500000D03*
X84500000Y-61500000D03*
X85500000Y-61500000D03*
X86500000Y-61500000D03*
X87500000Y-61500000D03*
X88500000Y-61500000D03*
X67500000Y-60500000D03*
X68500000Y-60500000D03*
X69500000Y-60500000D03*
X70500000Y-60500000D03*
X71500000Y-60500000D03*
X72500000Y-60500000D03*
X73500000Y-60500000D03*
X74500000Y-60500000D03*
X75500000Y-60500000D03*
X76500000Y-60500000D03*
X77500000Y-60500000D03*
X78500000Y-60500000D03*
X79500000Y-60500000D03*
X80500000Y-60500000D03*
X81500000Y-60500000D03*
X82500000Y-60500000D03*
X83500000Y-60500000D03*
X84500000Y-60500000D03*
X85500000Y-60500000D03*
X86500000Y-60500000D03*
X87500000Y-60500000D03*
X88500000Y-60500000D03*
X67500000Y-59500000D03*
X68500000Y-59500000D03*
X69500000Y-59500000D03*
X70500000Y-59500000D03*
X71500000Y-59500000D03*
X72500000Y-59500000D03*
X73500000Y-59500000D03*
X74500000Y-59500000D03*
X75500000Y-59500000D03*
X76500000Y-59500000D03*
X77500000Y-59500000D03*
X78500000Y-59500000D03*
X79500000Y-59500000D03*
X80500000Y-59500000D03*
X81500000Y-59500000D03*
X82500000Y-59500000D03*
X83500000Y-59500000D03*
X84500000Y-59500000D03*
X85500000Y-59500000D03*
X86500000Y-59500000D03*
X87500000Y-59500000D03*
X88500000Y-59500000D03*
X67500000Y-58500000D03*
X68500000Y-58500000D03*
X69500000Y-58500000D03*
X70500000Y-58500000D03*
X71500000Y-58500000D03*
X72500000Y-58500000D03*
X73500000Y-58500000D03*
X74500000Y-58500000D03*
X75500000Y-58500000D03*
X76500000Y-58500000D03*
X77500000Y-58500000D03*
X78500000Y-58500000D03*
X79500000Y-58500000D03*
X80500000Y-58500000D03*
X81500000Y-58500000D03*
X82500000Y-58500000D03*
X83500000Y-58500000D03*
X84500000Y-58500000D03*
X85500000Y-58500000D03*
X86500000Y-58500000D03*
X87500000Y-58500000D03*
X88500000Y-58500000D03*
X67500000Y-57500000D03*
X68500000Y-57500000D03*
X69500000Y-57500000D03*
X70500000Y-57500000D03*
X71500000Y-57500000D03*
X72500000Y-57500000D03*
X73500000Y-57500000D03*
X74500000Y-57500000D03*
X75500000Y-57500000D03*
X76500000Y-57500000D03*
X77500000Y-57500000D03*
X78500000Y-57500000D03*
X79500000Y-57500000D03*
X80500000Y-57500000D03*
X81500000Y-57500000D03*
X82500000Y-57500000D03*
X83500000Y-57500000D03*
X84500000Y-57500000D03*
X85500000Y-57500000D03*
X86500000Y-57500000D03*
X87500000Y-57500000D03*
X88500000Y-57500000D03*
X67500000Y-56500000D03*
X68500000Y-56500000D03*
X69500000Y-56500000D03*
X70500000Y-56500000D03*
X71500000Y-56500000D03*
X72500000Y-56500000D03*
X73500000Y-56500000D03*
X74500000Y-56500000D03*
X75500000Y-56500000D03*
X76500000Y-56500000D03*
X77500000Y-56500000D03*
X78500000Y-56500000D03*
X79500000Y-56500000D03*
X80500000Y-56500000D03*
X81500000Y-56500000D03*
X82500000Y-56500000D03*
X83500000Y-56500000D03*
X84500000Y-56500000D03*
X85500000Y-56500000D03*
X86500000Y-56500000D03*
X87500000Y-56500000D03*
X88500000Y-56500000D03*
X67500000Y-55500000D03*
X68500000Y-55500000D03*
X69500000Y-55500000D03*
X70500000Y-55500000D03*
X71500000Y-55500000D03*
X72500000Y-55500000D03*
X73500000Y-55500000D03*
X74500000Y-55500000D03*
X75500000Y-55500000D03*
X76500000Y-55500000D03*
X77500000Y-55500000D03*
X78500000Y-55500000D03*
X79500000Y-55500000D03*
X80500000Y-55500000D03*
X81500000Y-55500000D03*
X82500000Y-55500000D03*
X83500000Y-55500000D03*
X84500000Y-55500000D03*
X85500000Y-55500000D03*
X86500000Y-55500000D03*
X87500000Y-55500000D03*
X88500000Y-55500000D03*
X67500000Y-54500000D03*
X68500000Y-54500000D03*
X69500000Y-54500000D03*
X70500000Y-54500000D03*
X71500000Y-54500000D03*
X72500000Y-54500000D03*
X73500000Y-54500000D03*
X74500000Y-54500000D03*
X75500000Y-54500000D03*
X76500000Y-54500000D03*
X77500000Y-54500000D03*
X78500000Y-54500000D03*
X79500000Y-54500000D03*
X80500000Y-54500000D03*
X81500000Y-54500000D03*
X82500000Y-54500000D03*
X83500000Y-54500000D03*
X84500000Y-54500000D03*
X85500000Y-54500000D03*
X86500000Y-54500000D03*
X87500000Y-54500000D03*
X88500000Y-54500000D03*
X67500000Y-53500000D03*
X68500000Y-53500000D03*
X69500000Y-53500000D03*
X70500000Y-53500000D03*
X71500000Y-53500000D03*
X72500000Y-53500000D03*
X73500000Y-53500000D03*
X74500000Y-53500000D03*
X75500000Y-53500000D03*
X76500000Y-53500000D03*
X77500000Y-53500000D03*
X78500000Y-53500000D03*
X79500000Y-53500000D03*
X80500000Y-53500000D03*
X81500000Y-53500000D03*
X82500000Y-53500000D03*
X83500000Y-53500000D03*
X84500000Y-53500000D03*
X85500000Y-53500000D03*
X86500000Y-53500000D03*
X87500000Y-53500000D03*
X88500000Y-53500000D03*
X67500000Y-52500000D03*
X68500000Y-52500000D03*
X69500000Y-52500000D03*
X70500000Y-52500000D03*
X71500000Y-52500000D03*
X72500000Y-52500000D03*
X73500000Y-52500000D03*
X74500000Y-52500000D03*
X75500000Y-52500000D03*
X76500000Y-52500000D03*
X77500000Y-52500000D03*
X78500000Y-52500000D03*
X79500000Y-52500000D03*
X80500000Y-52500000D03*
X81500000Y-52500000D03*
X82500000Y-52500000D03*
X83500000Y-52500000D03*
X84500000Y-52500000D03*
X85500000Y-52500000D03*
X86500000Y-52500000D03*
X87500000Y-52500000D03*
X88500000Y-52500000D03*
X67500000Y-51500000D03*
X68500000Y-51500000D03*
X69500000Y-51500000D03*
X70500000Y-51500000D03*
X71500000Y-51500000D03*
X72500000Y-51500000D03*
X73500000Y-51500000D03*
X74500000Y-51500000D03*
X75500000Y-51500000D03*
X76500000Y-51500000D03*
X77500000Y-51500000D03*
X78500000Y-51500000D03*
X79500000Y-51500000D03*
X80500000Y-51500000D03*
X81500000Y-51500000D03*
X82500000Y-51500000D03*
X83500000Y-51500000D03*
X84500000Y-51500000D03*
X85500000Y-51500000D03*
X86500000Y-51500000D03*
X87500000Y-51500000D03*
X88500000Y-51500000D03*
X67500000Y-50500000D03*
X68500000Y-50500000D03*
X69500000Y-50500000D03*
X70500000Y-50500000D03*
X71500000Y-50500000D03*
X72500000Y-50500000D03*
X73500000Y-50500000D03*
X74500000Y-50500000D03*
X75500000Y-50500000D03*
X76500000Y-50500000D03*
X77500000Y-50500000D03*
X78500000Y-50500000D03*
X79500000Y-50500000D03*
X80500000Y-50500000D03*
X81500000Y-50500000D03*
X82500000Y-50500000D03*
X83500000Y-50500000D03*
X84500000Y-50500000D03*
X85500000Y-50500000D03*
X86500000Y-50500000D03*
X87500000Y-50500000D03*
X88500000Y-50500000D03*
X67500000Y-49500000D03*
X68500000Y-49500000D03*
X69500000Y-49500000D03*
X70500000Y-49500000D03*
X71500000Y-49500000D03*
X72500000Y-49500000D03*
X73500000Y-49500000D03*
X74500000Y-49500000D03*
X75500000Y-49500000D03*
X76500000Y-49500000D03*
X77500000Y-49500000D03*
X78500000Y-49500000D03*
X79500000Y-49500000D03*
X80500000Y-49500000D03*
X81500000Y-49500000D03*
X82500000Y-49500000D03*
X83500000Y-49500000D03*
X84500000Y-49500000D03*
X85500000Y-49500000D03*
X86500000Y-49500000D03*
X87500000Y-49500000D03*
X88500000Y-49500000D03*
X67500000Y-48500000D03*
X68500000Y-48500000D03*
X69500000Y-48500000D03*
X70500000Y-48500000D03*
X71500000Y-48500000D03*
X72500000Y-48500000D03*
X73500000Y-48500000D03*
X74500000Y-48500000D03*
X75500000Y-48500000D03*
X76500000Y-48500000D03*
X77500000Y-48500000D03*
X78500000Y-48500000D03*
X79500000Y-48500000D03*
X80500000Y-48500000D03*
X81500000Y-48500000D03*
X82500000Y-48500000D03*
X83500000Y-48500000D03*
X84500000Y-48500000D03*
X85500000Y-48500000D03*
X86500000Y-48500000D03*
X87500000Y-48500000D03*
X88500000Y-48500000D03*
X67500000Y-47500000D03*
X68500000Y-47500000D03*
X69500000Y-47500000D03*
X70500000Y-47500000D03*
X71500000Y-47500000D03*
X72500000Y-47500000D03*
X73500000Y-47500000D03*
X74500000Y-47500000D03*
X75500000Y-47500000D03*
X76500000Y-47500000D03*
X77500000Y-47500000D03*
X78500000Y-47500000D03*
X79500000Y-47500000D03*
X80500000Y-47500000D03*
X81500000Y-47500000D03*
X82500000Y-47500000D03*
X83500000Y-47500000D03*
X84500000Y-47500000D03*
X85500000Y-47500000D03*
X86500000Y-47500000D03*
X87500000Y-47500000D03*
X88500000Y-47500000D03*
X67500000Y-46500000D03*
X68500000Y-46500000D03*
X69500000Y-46500000D03*
X70500000Y-46500000D03*
X71500000Y-46500000D03*
X72500000Y-46500000D03*
X73500000Y-46500000D03*
X74500000Y-46500000D03*
X75500000Y-46500000D03*
X76500000Y-46500000D03*
X77500000Y-46500000D03*
X78500000Y-46500000D03*
X79500000Y-46500000D03*
X80500000Y-46500000D03*
X81500000Y-46500000D03*
X82500000Y-46500000D03*
X83500000Y-46500000D03*
X84500000Y-46500000D03*
X85500000Y-46500000D03*
X86500000Y-46500000D03*
X87500000Y-46500000D03*
X88500000Y-46500000D03*
X67500000Y-45500000D03*
X68500000Y-45500000D03*
X69500000Y-45500000D03*
X70500000Y-45500000D03*
X71500000Y-45500000D03*
X72500000Y-45500000D03*
X73500000Y-45500000D03*
X74500000Y-45500000D03*
X75500000Y-45500000D03*
X76500000Y-45500000D03*
X77500000Y-45500000D03*
X78500000Y-45500000D03*
X79500000Y-45500000D03*
X80500000Y-45500000D03*
X81500000Y-45500000D03*
X82500000Y-45500000D03*
X83500000Y-45500000D03*
X84500000Y-45500000D03*
X85500000Y-45500000D03*
X86500000Y-45500000D03*
X87500000Y-45500000D03*
X88500000Y-45500000D03*
X72500000Y-99500000D03*
X71500000Y-99500000D03*
X70500000Y-99500000D03*
X69500000Y-99500000D03*
X68500000Y-99500000D03*
X67500000Y-99500000D03*
X66500000Y-99500000D03*
X65500000Y-99500000D03*
X64500000Y-99500000D03*
X63500000Y-99500000D03*
X62500000Y-99500000D03*
X61500000Y-99500000D03*
X60500000Y-99500000D03*
X59500000Y-99500000D03*
X58500000Y-99500000D03*
X57500000Y-99500000D03*
X56500000Y-99500000D03*
X55500000Y-99500000D03*
X54500000Y-99500000D03*
X53500000Y-99500000D03*
X52500000Y-99500000D03*
X51500000Y-99500000D03*
X72500000Y-100500000D03*
X71500000Y-100500000D03*
X70500000Y-100500000D03*
X69500000Y-100500000D03*
X68500000Y-100500000D03*
X67500000Y-100500000D03*
X66500000Y-100500000D03*
X65500000Y-100500000D03*
X64500000Y-100500000D03*
X63500000Y-100500000D03*
X62500000Y-100500000D03*
X61500000Y-100500000D03*
X60500000Y-100500000D03*
X59500000Y-100500000D03*
X58500000Y-100500000D03*
X57500000Y-100500000D03*
X56500000Y-100500000D03*
X55500000Y-100500000D03*
X54500000Y-100500000D03*
X53500000Y-100500000D03*
X52500000Y-100500000D03*
X51500000Y-100500000D03*
X72500000Y-101500000D03*
X71500000Y-101500000D03*
X70500000Y-101500000D03*
X69500000Y-101500000D03*
X68500000Y-101500000D03*
X67500000Y-101500000D03*
X66500000Y-101500000D03*
X65500000Y-101500000D03*
X64500000Y-101500000D03*
X63500000Y-101500000D03*
X62500000Y-101500000D03*
X61500000Y-101500000D03*
X60500000Y-101500000D03*
X59500000Y-101500000D03*
X58500000Y-101500000D03*
X57500000Y-101500000D03*
X56500000Y-101500000D03*
X55500000Y-101500000D03*
X54500000Y-101500000D03*
X53500000Y-101500000D03*
X52500000Y-101500000D03*
X51500000Y-101500000D03*
X72500000Y-102500000D03*
X71500000Y-102500000D03*
X70500000Y-102500000D03*
X69500000Y-102500000D03*
X68500000Y-102500000D03*
X67500000Y-102500000D03*
X66500000Y-102500000D03*
X65500000Y-102500000D03*
X64500000Y-102500000D03*
X63500000Y-102500000D03*
X62500000Y-102500000D03*
X61500000Y-102500000D03*
X60500000Y-102500000D03*
X59500000Y-102500000D03*
X58500000Y-102500000D03*
X57500000Y-102500000D03*
X56500000Y-102500000D03*
X55500000Y-102500000D03*
X54500000Y-102500000D03*
X53500000Y-102500000D03*
X52500000Y-102500000D03*
X51500000Y-102500000D03*
X72500000Y-103500000D03*
X71500000Y-103500000D03*
X70500000Y-103500000D03*
X69500000Y-103500000D03*
X68500000Y-103500000D03*
X67500000Y-103500000D03*
X66500000Y-103500000D03*
X65500000Y-103500000D03*
X64500000Y-103500000D03*
X63500000Y-103500000D03*
X62500000Y-103500000D03*
X61500000Y-103500000D03*
X60500000Y-103500000D03*
X59500000Y-103500000D03*
X58500000Y-103500000D03*
X57500000Y-103500000D03*
X56500000Y-103500000D03*
X55500000Y-103500000D03*
X54500000Y-103500000D03*
X53500000Y-103500000D03*
X52500000Y-103500000D03*
X51500000Y-103500000D03*
X72500000Y-104500000D03*
X71500000Y-104500000D03*
X70500000Y-104500000D03*
X69500000Y-104500000D03*
X68500000Y-104500000D03*
X67500000Y-104500000D03*
X66500000Y-104500000D03*
X65500000Y-104500000D03*
X64500000Y-104500000D03*
X63500000Y-104500000D03*
X62500000Y-104500000D03*
X61500000Y-104500000D03*
X60500000Y-104500000D03*
X59500000Y-104500000D03*
X58500000Y-104500000D03*
X57500000Y-104500000D03*
X56500000Y-104500000D03*
X55500000Y-104500000D03*
X54500000Y-104500000D03*
X53500000Y-104500000D03*
X52500000Y-104500000D03*
X51500000Y-104500000D03*
X72500000Y-105500000D03*
X71500000Y-105500000D03*
X70500000Y-105500000D03*
X69500000Y-105500000D03*
X68500000Y-105500000D03*
X67500000Y-105500000D03*
X66500000Y-105500000D03*
X65500000Y-105500000D03*
X64500000Y-105500000D03*
X63500000Y-105500000D03*
X62500000Y-105500000D03*
X61500000Y-105500000D03*
X60500000Y-105500000D03*
X59500000Y-105500000D03*
X58500000Y-105500000D03*
X57500000Y-105500000D03*
X56500000Y-105500000D03*
X55500000Y-105500000D03*
X54500000Y-105500000D03*
X53500000Y-105500000D03*
X52500000Y-105500000D03*
X51500000Y-105500000D03*
X72500000Y-106500000D03*
X71500000Y-106500000D03*
X70500000Y-106500000D03*
X69500000Y-106500000D03*
X68500000Y-106500000D03*
X67500000Y-106500000D03*
X66500000Y-106500000D03*
X65500000Y-106500000D03*
X64500000Y-106500000D03*
X63500000Y-106500000D03*
X62500000Y-106500000D03*
X61500000Y-106500000D03*
X60500000Y-106500000D03*
X59500000Y-106500000D03*
X58500000Y-106500000D03*
X57500000Y-106500000D03*
X56500000Y-106500000D03*
X55500000Y-106500000D03*
X54500000Y-106500000D03*
X53500000Y-106500000D03*
X52500000Y-106500000D03*
X51500000Y-106500000D03*
X72500000Y-107500000D03*
X71500000Y-107500000D03*
X70500000Y-107500000D03*
X69500000Y-107500000D03*
X68500000Y-107500000D03*
X67500000Y-107500000D03*
X66500000Y-107500000D03*
X65500000Y-107500000D03*
X64500000Y-107500000D03*
X63500000Y-107500000D03*
X62500000Y-107500000D03*
X61500000Y-107500000D03*
X60500000Y-107500000D03*
X59500000Y-107500000D03*
X58500000Y-107500000D03*
X57500000Y-107500000D03*
X56500000Y-107500000D03*
X55500000Y-107500000D03*
X54500000Y-107500000D03*
X53500000Y-107500000D03*
X52500000Y-107500000D03*
X51500000Y-107500000D03*
X72500000Y-108500000D03*
X71500000Y-108500000D03*
X70500000Y-108500000D03*
X69500000Y-108500000D03*
X68500000Y-108500000D03*
X67500000Y-108500000D03*
X66500000Y-108500000D03*
X65500000Y-108500000D03*
X64500000Y-108500000D03*
X63500000Y-108500000D03*
X62500000Y-108500000D03*
X61500000Y-108500000D03*
X60500000Y-108500000D03*
X59500000Y-108500000D03*
X58500000Y-108500000D03*
X57500000Y-108500000D03*
X56500000Y-108500000D03*
X55500000Y-108500000D03*
X54500000Y-108500000D03*
X53500000Y-108500000D03*
X52500000Y-108500000D03*
X51500000Y-108500000D03*
X72500000Y-109500000D03*
X71500000Y-109500000D03*
X70500000Y-109500000D03*
X69500000Y-109500000D03*
X68500000Y-109500000D03*
X67500000Y-109500000D03*
X66500000Y-109500000D03*
X65500000Y-109500000D03*
X64500000Y-109500000D03*
X63500000Y-109500000D03*
X62500000Y-109500000D03*
X61500000Y-109500000D03*
X60500000Y-109500000D03*
X59500000Y-109500000D03*
X58500000Y-109500000D03*
X57500000Y-109500000D03*
X56500000Y-109500000D03*
X55500000Y-109500000D03*
X54500000Y-109500000D03*
X53500000Y-109500000D03*
X52500000Y-109500000D03*
X51500000Y-109500000D03*
X72500000Y-110500000D03*
X71500000Y-110500000D03*
X70500000Y-110500000D03*
X69500000Y-110500000D03*
X68500000Y-110500000D03*
X67500000Y-110500000D03*
X66500000Y-110500000D03*
X65500000Y-110500000D03*
X64500000Y-110500000D03*
X63500000Y-110500000D03*
X62500000Y-110500000D03*
X61500000Y-110500000D03*
X60500000Y-110500000D03*
X59500000Y-110500000D03*
X58500000Y-110500000D03*
X57500000Y-110500000D03*
X56500000Y-110500000D03*
X55500000Y-110500000D03*
X54500000Y-110500000D03*
X53500000Y-110500000D03*
X52500000Y-110500000D03*
X51500000Y-110500000D03*
X72500000Y-111500000D03*
X71500000Y-111500000D03*
X70500000Y-111500000D03*
X69500000Y-111500000D03*
X68500000Y-111500000D03*
X67500000Y-111500000D03*
X66500000Y-111500000D03*
X65500000Y-111500000D03*
X64500000Y-111500000D03*
X63500000Y-111500000D03*
X62500000Y-111500000D03*
X61500000Y-111500000D03*
X60500000Y-111500000D03*
X59500000Y-111500000D03*
X58500000Y-111500000D03*
X57500000Y-111500000D03*
X56500000Y-111500000D03*
X55500000Y-111500000D03*
X54500000Y-111500000D03*
X53500000Y-111500000D03*
X52500000Y-111500000D03*
X51500000Y-111500000D03*
X72500000Y-112500000D03*
X71500000Y-112500000D03*
X70500000Y-112500000D03*
X69500000Y-112500000D03*
X68500000Y-112500000D03*
X67500000Y-112500000D03*
X66500000Y-112500000D03*
X65500000Y-112500000D03*
X64500000Y-112500000D03*
X63500000Y-112500000D03*
X62500000Y-112500000D03*
X61500000Y-112500000D03*
X60500000Y-112500000D03*
X59500000Y-112500000D03*
X58500000Y-112500000D03*
X57500000Y-112500000D03*
X56500000Y-112500000D03*
X55500000Y-112500000D03*
X54500000Y-112500000D03*
X53500000Y-112500000D03*
X52500000Y-112500000D03*
X51500000Y-112500000D03*
X72500000Y-113500000D03*
X71500000Y-113500000D03*
X70500000Y-113500000D03*
X69500000Y-113500000D03*
X68500000Y-113500000D03*
X67500000Y-113500000D03*
X66500000Y-113500000D03*
X65500000Y-113500000D03*
X64500000Y-113500000D03*
X63500000Y-113500000D03*
X62500000Y-113500000D03*
X61500000Y-113500000D03*
X60500000Y-113500000D03*
X59500000Y-113500000D03*
X58500000Y-113500000D03*
X57500000Y-113500000D03*
X56500000Y-113500000D03*
X55500000Y-113500000D03*
X54500000Y-113500000D03*
X53500000Y-113500000D03*
X52500000Y-113500000D03*
X51500000Y-113500000D03*
X72500000Y-114500000D03*
X71500000Y-114500000D03*
X70500000Y-114500000D03*
X69500000Y-114500000D03*
X68500000Y-114500000D03*
X67500000Y-114500000D03*
X66500000Y-114500000D03*
X65500000Y-114500000D03*
X64500000Y-114500000D03*
X63500000Y-114500000D03*
X62500000Y-114500000D03*
X61500000Y-114500000D03*
X60500000Y-114500000D03*
X59500000Y-114500000D03*
X58500000Y-114500000D03*
X57500000Y-114500000D03*
X56500000Y-114500000D03*
X55500000Y-114500000D03*
X54500000Y-114500000D03*
X53500000Y-114500000D03*
X52500000Y-114500000D03*
X51500000Y-114500000D03*
X72500000Y-115500000D03*
X71500000Y-115500000D03*
X70500000Y-115500000D03*
X69500000Y-115500000D03*
X68500000Y-115500000D03*
X67500000Y-115500000D03*
X66500000Y-115500000D03*
X65500000Y-115500000D03*
X64500000Y-115500000D03*
X63500000Y-115500000D03*
X62500000Y-115500000D03*
X61500000Y-115500000D03*
X60500000Y-115500000D03*
X59500000Y-115500000D03*
X58500000Y-115500000D03*
X57500000Y-115500000D03*
X56500000Y-115500000D03*
X55500000Y-115500000D03*
X54500000Y-115500000D03*
X53500000Y-115500000D03*
X52500000Y-115500000D03*
X51500000Y-115500000D03*
X72500000Y-116500000D03*
X71500000Y-116500000D03*
X70500000Y-116500000D03*
X69500000Y-116500000D03*
X68500000Y-116500000D03*
X67500000Y-116500000D03*
X66500000Y-116500000D03*
X65500000Y-116500000D03*
X64500000Y-116500000D03*
X63500000Y-116500000D03*
X62500000Y-116500000D03*
X61500000Y-116500000D03*
X60500000Y-116500000D03*
X59500000Y-116500000D03*
X58500000Y-116500000D03*
X57500000Y-116500000D03*
X56500000Y-116500000D03*
X55500000Y-116500000D03*
X54500000Y-116500000D03*
X53500000Y-116500000D03*
X52500000Y-116500000D03*
X51500000Y-116500000D03*
X72500000Y-117500000D03*
X71500000Y-117500000D03*
X70500000Y-117500000D03*
X69500000Y-117500000D03*
X68500000Y-117500000D03*
X67500000Y-117500000D03*
X66500000Y-117500000D03*
X65500000Y-117500000D03*
X64500000Y-117500000D03*
X63500000Y-117500000D03*
X62500000Y-117500000D03*
X61500000Y-117500000D03*
X60500000Y-117500000D03*
X59500000Y-117500000D03*
X58500000Y-117500000D03*
X57500000Y-117500000D03*
X56500000Y-117500000D03*
X55500000Y-117500000D03*
X54500000Y-117500000D03*
X53500000Y-117500000D03*
X52500000Y-117500000D03*
X51500000Y-117500000D03*
X72500000Y-118500000D03*
X71500000Y-118500000D03*
X70500000Y-118500000D03*
X69500000Y-118500000D03*
X68500000Y-118500000D03*
X67500000Y-118500000D03*
X66500000Y-118500000D03*
X65500000Y-118500000D03*
X64500000Y-118500000D03*
X63500000Y-118500000D03*
X62500000Y-118500000D03*
X61500000Y-118500000D03*
X60500000Y-118500000D03*
X59500000Y-118500000D03*
X58500000Y-118500000D03*
X57500000Y-118500000D03*
X56500000Y-118500000D03*
X55500000Y-118500000D03*
X54500000Y-118500000D03*
X53500000Y-118500000D03*
X52500000Y-118500000D03*
X51500000Y-118500000D03*
X72500000Y-119500000D03*
X71500000Y-119500000D03*
X70500000Y-119500000D03*
X69500000Y-119500000D03*
X68500000Y-119500000D03*
X67500000Y-119500000D03*
X66500000Y-119500000D03*
X65500000Y-119500000D03*
X64500000Y-119500000D03*
X63500000Y-119500000D03*
X62500000Y-119500000D03*
X61500000Y-119500000D03*
X60500000Y-119500000D03*
X59500000Y-119500000D03*
X58500000Y-119500000D03*
X57500000Y-119500000D03*
X56500000Y-119500000D03*
X55500000Y-119500000D03*
X54500000Y-119500000D03*
X53500000Y-119500000D03*
X52500000Y-119500000D03*
X51500000Y-119500000D03*
X72500000Y-120500000D03*
X71500000Y-120500000D03*
X70500000Y-120500000D03*
X69500000Y-120500000D03*
X68500000Y-120500000D03*
X67500000Y-120500000D03*
X66500000Y-120500000D03*
X65500000Y-120500000D03*
X64500000Y-120500000D03*
X63500000Y-120500000D03*
X62500000Y-120500000D03*
X61500000Y-120500000D03*
X60500000Y-120500000D03*
X59500000Y-120500000D03*
X58500000Y-120500000D03*
X57500000Y-120500000D03*
X56500000Y-120500000D03*
X55500000Y-120500000D03*
X54500000Y-120500000D03*
X53500000Y-120500000D03*
X52500000Y-120500000D03*
X51500000Y-120500000D03*
X104500000Y-99500000D03*
X103500000Y-99500000D03*
X102500000Y-99500000D03*
X101500000Y-99500000D03*
X100500000Y-99500000D03*
X99500000Y-99500000D03*
X98500000Y-99500000D03*
X97500000Y-99500000D03*
X96500000Y-99500000D03*
X95500000Y-99500000D03*
X94500000Y-99500000D03*
X93500000Y-99500000D03*
X92500000Y-99500000D03*
X91500000Y-99500000D03*
X90500000Y-99500000D03*
X89500000Y-99500000D03*
X88500000Y-99500000D03*
X87500000Y-99500000D03*
X86500000Y-99500000D03*
X85500000Y-99500000D03*
X84500000Y-99500000D03*
X83500000Y-99500000D03*
X104500000Y-100500000D03*
X103500000Y-100500000D03*
X102500000Y-100500000D03*
X101500000Y-100500000D03*
X100500000Y-100500000D03*
X99500000Y-100500000D03*
X98500000Y-100500000D03*
X97500000Y-100500000D03*
X96500000Y-100500000D03*
X95500000Y-100500000D03*
X94500000Y-100500000D03*
X93500000Y-100500000D03*
X92500000Y-100500000D03*
X91500000Y-100500000D03*
X90500000Y-100500000D03*
X89500000Y-100500000D03*
X88500000Y-100500000D03*
X87500000Y-100500000D03*
X86500000Y-100500000D03*
X85500000Y-100500000D03*
X84500000Y-100500000D03*
X83500000Y-100500000D03*
X104500000Y-101500000D03*
X103500000Y-101500000D03*
X102500000Y-101500000D03*
X101500000Y-101500000D03*
X100500000Y-101500000D03*
X99500000Y-101500000D03*
X98500000Y-101500000D03*
X97500000Y-101500000D03*
X96500000Y-101500000D03*
X95500000Y-101500000D03*
X94500000Y-101500000D03*
X93500000Y-101500000D03*
X92500000Y-101500000D03*
X91500000Y-101500000D03*
X90500000Y-101500000D03*
X89500000Y-101500000D03*
X88500000Y-101500000D03*
X87500000Y-101500000D03*
X86500000Y-101500000D03*
X85500000Y-101500000D03*
X84500000Y-101500000D03*
X83500000Y-101500000D03*
X104500000Y-102500000D03*
X103500000Y-102500000D03*
X102500000Y-102500000D03*
X101500000Y-102500000D03*
X100500000Y-102500000D03*
X99500000Y-102500000D03*
X98500000Y-102500000D03*
X97500000Y-102500000D03*
X96500000Y-102500000D03*
X95500000Y-102500000D03*
X94500000Y-102500000D03*
X93500000Y-102500000D03*
X92500000Y-102500000D03*
X91500000Y-102500000D03*
X90500000Y-102500000D03*
X89500000Y-102500000D03*
X88500000Y-102500000D03*
X87500000Y-102500000D03*
X86500000Y-102500000D03*
X85500000Y-102500000D03*
X84500000Y-102500000D03*
X83500000Y-102500000D03*
X104500000Y-103500000D03*
X103500000Y-103500000D03*
X102500000Y-103500000D03*
X101500000Y-103500000D03*
X100500000Y-103500000D03*
X99500000Y-103500000D03*
X98500000Y-103500000D03*
X97500000Y-103500000D03*
X96500000Y-103500000D03*
X95500000Y-103500000D03*
X94500000Y-103500000D03*
X93500000Y-103500000D03*
X92500000Y-103500000D03*
X91500000Y-103500000D03*
X90500000Y-103500000D03*
X89500000Y-103500000D03*
X88500000Y-103500000D03*
X87500000Y-103500000D03*
X86500000Y-103500000D03*
X85500000Y-103500000D03*
X84500000Y-103500000D03*
X83500000Y-103500000D03*
X104500000Y-104500000D03*
X103500000Y-104500000D03*
X102500000Y-104500000D03*
X101500000Y-104500000D03*
X100500000Y-104500000D03*
X99500000Y-104500000D03*
X98500000Y-104500000D03*
X97500000Y-104500000D03*
X96500000Y-104500000D03*
X95500000Y-104500000D03*
X94500000Y-104500000D03*
X93500000Y-104500000D03*
X92500000Y-104500000D03*
X91500000Y-104500000D03*
X90500000Y-104500000D03*
X89500000Y-104500000D03*
X88500000Y-104500000D03*
X87500000Y-104500000D03*
X86500000Y-104500000D03*
X85500000Y-104500000D03*
X84500000Y-104500000D03*
X83500000Y-104500000D03*
X104500000Y-105500000D03*
X103500000Y-105500000D03*
X102500000Y-105500000D03*
X101500000Y-105500000D03*
X100500000Y-105500000D03*
X99500000Y-105500000D03*
X98500000Y-105500000D03*
X97500000Y-105500000D03*
X96500000Y-105500000D03*
X95500000Y-105500000D03*
X94500000Y-105500000D03*
X93500000Y-105500000D03*
X92500000Y-105500000D03*
X91500000Y-105500000D03*
X90500000Y-105500000D03*
X89500000Y-105500000D03*
X88500000Y-105500000D03*
X87500000Y-105500000D03*
X86500000Y-105500000D03*
X85500000Y-105500000D03*
X84500000Y-105500000D03*
X83500000Y-105500000D03*
X104500000Y-106500000D03*
X103500000Y-106500000D03*
X102500000Y-106500000D03*
X101500000Y-106500000D03*
X100500000Y-106500000D03*
X99500000Y-106500000D03*
X98500000Y-106500000D03*
X97500000Y-106500000D03*
X96500000Y-106500000D03*
X95500000Y-106500000D03*
X94500000Y-106500000D03*
X93500000Y-106500000D03*
X92500000Y-106500000D03*
X91500000Y-106500000D03*
X90500000Y-106500000D03*
X89500000Y-106500000D03*
X88500000Y-106500000D03*
X87500000Y-106500000D03*
X86500000Y-106500000D03*
X85500000Y-106500000D03*
X84500000Y-106500000D03*
X83500000Y-106500000D03*
X104500000Y-107500000D03*
X103500000Y-107500000D03*
X102500000Y-107500000D03*
X101500000Y-107500000D03*
X100500000Y-107500000D03*
X99500000Y-107500000D03*
X98500000Y-107500000D03*
X97500000Y-107500000D03*
X96500000Y-107500000D03*
X95500000Y-107500000D03*
X94500000Y-107500000D03*
X93500000Y-107500000D03*
X92500000Y-107500000D03*
X91500000Y-107500000D03*
X90500000Y-107500000D03*
X89500000Y-107500000D03*
X88500000Y-107500000D03*
X87500000Y-107500000D03*
X86500000Y-107500000D03*
X85500000Y-107500000D03*
X84500000Y-107500000D03*
X83500000Y-107500000D03*
X104500000Y-108500000D03*
X103500000Y-108500000D03*
X102500000Y-108500000D03*
X101500000Y-108500000D03*
X100500000Y-108500000D03*
X99500000Y-108500000D03*
X98500000Y-108500000D03*
X97500000Y-108500000D03*
X96500000Y-108500000D03*
X95500000Y-108500000D03*
X94500000Y-108500000D03*
X93500000Y-108500000D03*
X92500000Y-108500000D03*
X91500000Y-108500000D03*
X90500000Y-108500000D03*
X89500000Y-108500000D03*
X88500000Y-108500000D03*
X87500000Y-108500000D03*
X86500000Y-108500000D03*
X85500000Y-108500000D03*
X84500000Y-108500000D03*
X83500000Y-108500000D03*
X104500000Y-109500000D03*
X103500000Y-109500000D03*
X102500000Y-109500000D03*
X101500000Y-109500000D03*
X100500000Y-109500000D03*
X99500000Y-109500000D03*
X98500000Y-109500000D03*
X97500000Y-109500000D03*
X96500000Y-109500000D03*
X95500000Y-109500000D03*
X94500000Y-109500000D03*
X93500000Y-109500000D03*
X92500000Y-109500000D03*
X91500000Y-109500000D03*
X90500000Y-109500000D03*
X89500000Y-109500000D03*
X88500000Y-109500000D03*
X87500000Y-109500000D03*
X86500000Y-109500000D03*
X85500000Y-109500000D03*
X84500000Y-109500000D03*
X83500000Y-109500000D03*
X104500000Y-110500000D03*
X103500000Y-110500000D03*
X102500000Y-110500000D03*
X101500000Y-110500000D03*
X100500000Y-110500000D03*
X99500000Y-110500000D03*
X98500000Y-110500000D03*
X97500000Y-110500000D03*
X96500000Y-110500000D03*
X95500000Y-110500000D03*
X94500000Y-110500000D03*
X93500000Y-110500000D03*
X92500000Y-110500000D03*
X91500000Y-110500000D03*
X90500000Y-110500000D03*
X89500000Y-110500000D03*
X88500000Y-110500000D03*
X87500000Y-110500000D03*
X86500000Y-110500000D03*
X85500000Y-110500000D03*
X84500000Y-110500000D03*
X83500000Y-110500000D03*
X104500000Y-111500000D03*
X103500000Y-111500000D03*
X102500000Y-111500000D03*
X101500000Y-111500000D03*
X100500000Y-111500000D03*
X99500000Y-111500000D03*
X98500000Y-111500000D03*
X97500000Y-111500000D03*
X96500000Y-111500000D03*
X95500000Y-111500000D03*
X94500000Y-111500000D03*
X93500000Y-111500000D03*
X92500000Y-111500000D03*
X91500000Y-111500000D03*
X90500000Y-111500000D03*
X89500000Y-111500000D03*
X88500000Y-111500000D03*
X87500000Y-111500000D03*
X86500000Y-111500000D03*
X85500000Y-111500000D03*
X84500000Y-111500000D03*
X83500000Y-111500000D03*
X104500000Y-112500000D03*
X103500000Y-112500000D03*
X102500000Y-112500000D03*
X101500000Y-112500000D03*
X100500000Y-112500000D03*
X99500000Y-112500000D03*
X98500000Y-112500000D03*
X97500000Y-112500000D03*
X96500000Y-112500000D03*
X95500000Y-112500000D03*
X94500000Y-112500000D03*
X93500000Y-112500000D03*
X92500000Y-112500000D03*
X91500000Y-112500000D03*
X90500000Y-112500000D03*
X89500000Y-112500000D03*
X88500000Y-112500000D03*
X87500000Y-112500000D03*
X86500000Y-112500000D03*
X85500000Y-112500000D03*
X84500000Y-112500000D03*
X83500000Y-112500000D03*
X104500000Y-113500000D03*
X103500000Y-113500000D03*
X102500000Y-113500000D03*
X101500000Y-113500000D03*
X100500000Y-113500000D03*
X99500000Y-113500000D03*
X98500000Y-113500000D03*
X97500000Y-113500000D03*
X96500000Y-113500000D03*
X95500000Y-113500000D03*
X94500000Y-113500000D03*
X93500000Y-113500000D03*
X92500000Y-113500000D03*
X91500000Y-113500000D03*
X90500000Y-113500000D03*
X89500000Y-113500000D03*
X88500000Y-113500000D03*
X87500000Y-113500000D03*
X86500000Y-113500000D03*
X85500000Y-113500000D03*
X84500000Y-113500000D03*
X83500000Y-113500000D03*
X104500000Y-114500000D03*
X103500000Y-114500000D03*
X102500000Y-114500000D03*
X101500000Y-114500000D03*
X100500000Y-114500000D03*
X99500000Y-114500000D03*
X98500000Y-114500000D03*
X97500000Y-114500000D03*
X96500000Y-114500000D03*
X95500000Y-114500000D03*
X94500000Y-114500000D03*
X93500000Y-114500000D03*
X92500000Y-114500000D03*
X91500000Y-114500000D03*
X90500000Y-114500000D03*
X89500000Y-114500000D03*
X88500000Y-114500000D03*
X87500000Y-114500000D03*
X86500000Y-114500000D03*
X85500000Y-114500000D03*
X84500000Y-114500000D03*
X83500000Y-114500000D03*
X104500000Y-115500000D03*
X103500000Y-115500000D03*
X102500000Y-115500000D03*
X101500000Y-115500000D03*
X100500000Y-115500000D03*
X99500000Y-115500000D03*
X98500000Y-115500000D03*
X97500000Y-115500000D03*
X96500000Y-115500000D03*
X95500000Y-115500000D03*
X94500000Y-115500000D03*
X93500000Y-115500000D03*
X92500000Y-115500000D03*
X91500000Y-115500000D03*
X90500000Y-115500000D03*
X89500000Y-115500000D03*
X88500000Y-115500000D03*
X87500000Y-115500000D03*
X86500000Y-115500000D03*
X85500000Y-115500000D03*
X84500000Y-115500000D03*
X83500000Y-115500000D03*
X104500000Y-116500000D03*
X103500000Y-116500000D03*
X102500000Y-116500000D03*
X101500000Y-116500000D03*
X100500000Y-116500000D03*
X99500000Y-116500000D03*
X98500000Y-116500000D03*
X97500000Y-116500000D03*
X96500000Y-116500000D03*
X95500000Y-116500000D03*
X94500000Y-116500000D03*
X93500000Y-116500000D03*
X92500000Y-116500000D03*
X91500000Y-116500000D03*
X90500000Y-116500000D03*
X89500000Y-116500000D03*
X88500000Y-116500000D03*
X87500000Y-116500000D03*
X86500000Y-116500000D03*
X85500000Y-116500000D03*
X84500000Y-116500000D03*
X83500000Y-116500000D03*
X104500000Y-117500000D03*
X103500000Y-117500000D03*
X102500000Y-117500000D03*
X101500000Y-117500000D03*
X100500000Y-117500000D03*
X99500000Y-117500000D03*
X98500000Y-117500000D03*
X97500000Y-117500000D03*
X96500000Y-117500000D03*
X95500000Y-117500000D03*
X94500000Y-117500000D03*
X93500000Y-117500000D03*
X92500000Y-117500000D03*
X91500000Y-117500000D03*
X90500000Y-117500000D03*
X89500000Y-117500000D03*
X88500000Y-117500000D03*
X87500000Y-117500000D03*
X86500000Y-117500000D03*
X85500000Y-117500000D03*
X84500000Y-117500000D03*
X83500000Y-117500000D03*
X104500000Y-118500000D03*
X103500000Y-118500000D03*
X102500000Y-118500000D03*
X101500000Y-118500000D03*
X100500000Y-118500000D03*
X99500000Y-118500000D03*
X98500000Y-118500000D03*
X97500000Y-118500000D03*
X96500000Y-118500000D03*
X95500000Y-118500000D03*
X94500000Y-118500000D03*
X93500000Y-118500000D03*
X92500000Y-118500000D03*
X91500000Y-118500000D03*
X90500000Y-118500000D03*
X89500000Y-118500000D03*
X88500000Y-118500000D03*
X87500000Y-118500000D03*
X86500000Y-118500000D03*
X85500000Y-118500000D03*
X84500000Y-118500000D03*
X83500000Y-118500000D03*
X104500000Y-119500000D03*
X103500000Y-119500000D03*
X102500000Y-119500000D03*
X101500000Y-119500000D03*
X100500000Y-119500000D03*
X99500000Y-119500000D03*
X98500000Y-119500000D03*
X97500000Y-119500000D03*
X96500000Y-119500000D03*
X95500000Y-119500000D03*
X94500000Y-119500000D03*
X93500000Y-119500000D03*
X92500000Y-119500000D03*
X91500000Y-119500000D03*
X90500000Y-119500000D03*
X89500000Y-119500000D03*
X88500000Y-119500000D03*
X87500000Y-119500000D03*
X86500000Y-119500000D03*
X85500000Y-119500000D03*
X84500000Y-119500000D03*
X83500000Y-119500000D03*
X104500000Y-120500000D03*
X103500000Y-120500000D03*
X102500000Y-120500000D03*
X101500000Y-120500000D03*
X100500000Y-120500000D03*
X99500000Y-120500000D03*
X98500000Y-120500000D03*
X97500000Y-120500000D03*
X96500000Y-120500000D03*
X95500000Y-120500000D03*
X94500000Y-120500000D03*
X93500000Y-120500000D03*
X92500000Y-120500000D03*
X91500000Y-120500000D03*
X90500000Y-120500000D03*
X89500000Y-120500000D03*
X88500000Y-120500000D03*
X87500000Y-120500000D03*
X86500000Y-120500000D03*
X85500000Y-120500000D03*
X84500000Y-120500000D03*
X83500000Y-120500000D03*
D85*
X19500000Y-117050000D03*
X19500000Y-119950000D03*
D52*
X64250000Y-6800000D03*
X64250000Y-7700000D03*
X54250000Y-9450000D03*
X54250000Y-8550000D03*
D86*
X126500000Y-54250000D03*
X126500000Y-55750000D03*
X146750000Y-53250000D03*
X146750000Y-54750000D03*
X167250000Y-52000000D03*
X167250000Y-53500000D03*
X187500000Y-50750000D03*
X187500000Y-52250000D03*
D33*
X186950000Y-143000000D03*
X186050000Y-143000000D03*
X89000000Y-19300000D03*
X89000000Y-20200000D03*
X21500000Y-119550000D03*
X21500000Y-120450000D03*
X19500000Y-124550000D03*
X19500000Y-125450000D03*
D87*
X192000000Y-100000000D03*
X192000000Y-102000000D03*
D88*
X154000000Y-102000000D03*
X154000000Y-105000000D03*
X184000000Y-108500000D03*
X184000000Y-111500000D03*
D87*
X132000000Y-101000000D03*
X132000000Y-103000000D03*
D88*
X142000000Y-102000000D03*
X142000000Y-105000000D03*
D89*
X120000000Y-112000000D03*
X122000000Y-112000000D03*
X120000000Y-115000000D03*
X122000000Y-115000000D03*
X120000000Y-118000000D03*
X122000000Y-118000000D03*
D88*
X164500000Y-108500000D03*
X164500000Y-111500000D03*
D87*
X195000000Y-100000000D03*
X195000000Y-102000000D03*
D89*
X44500000Y-105000000D03*
X42500000Y-105000000D03*
X44500000Y-101000000D03*
X42500000Y-101000000D03*
D90*
X149225000Y-150550000D03*
X148575000Y-150550000D03*
X147925000Y-150550000D03*
X147275000Y-150550000D03*
X146625000Y-150550000D03*
X145975000Y-150550000D03*
X145325000Y-150550000D03*
X144675000Y-150550000D03*
X144025000Y-150550000D03*
X143375000Y-150550000D03*
X142725000Y-150550000D03*
X142075000Y-150550000D03*
X141425000Y-150550000D03*
X140775000Y-150550000D03*
X140775000Y-156450000D03*
X141425000Y-156450000D03*
X142075000Y-156450000D03*
X142725000Y-156450000D03*
X143375000Y-156450000D03*
X144025000Y-156450000D03*
X144675000Y-156450000D03*
X145325000Y-156450000D03*
X145975000Y-156450000D03*
X146625000Y-156450000D03*
X147275000Y-156450000D03*
X147925000Y-156450000D03*
X148575000Y-156450000D03*
X149225000Y-156450000D03*
D91*
X137000000Y-152050000D03*
X137000000Y-154950000D03*
D54*
X144050000Y-148500000D03*
X144950000Y-148500000D03*
X148050000Y-148500000D03*
X148950000Y-148500000D03*
D33*
X138450000Y-157000000D03*
X137550000Y-157000000D03*
D53*
X106500000Y-188100840D03*
X106500000Y-189899160D03*
X106500000Y-183100840D03*
X106500000Y-184899160D03*
X108500000Y-163100840D03*
X108500000Y-164899160D03*
X106500000Y-178100840D03*
X106500000Y-179899160D03*
X106500000Y-173100840D03*
X106500000Y-174899160D03*
X106500000Y-168100840D03*
X106500000Y-169899160D03*
X106500000Y-163100840D03*
X106500000Y-164899160D03*
X108500000Y-168100840D03*
X108500000Y-169899160D03*
X108500000Y-173100840D03*
X108500000Y-174899160D03*
X108500000Y-178100840D03*
X108500000Y-179899160D03*
X108500000Y-183100840D03*
X108500000Y-184899160D03*
X108500000Y-188100840D03*
X108500000Y-189899160D03*
X121500000Y-163100840D03*
X121500000Y-164899160D03*
X121500000Y-168100840D03*
X121500000Y-169899160D03*
X121500000Y-173100840D03*
X121500000Y-174899160D03*
X121500000Y-183100840D03*
X121500000Y-184899160D03*
X123500000Y-168100840D03*
X123500000Y-169899160D03*
X123500000Y-173100840D03*
X123500000Y-174899160D03*
X123500000Y-178100840D03*
X123500000Y-179899160D03*
X123500000Y-183100840D03*
X123500000Y-184899160D03*
X123500000Y-188100840D03*
X123500000Y-189899160D03*
X123500000Y-163100840D03*
X123500000Y-164899160D03*
X121500000Y-178100840D03*
X121500000Y-179899160D03*
X121500000Y-188100840D03*
X121500000Y-189899160D03*
D92*
X71850000Y-124250000D03*
X73650000Y-124250000D03*
X102100000Y-124000000D03*
X103900000Y-124000000D03*
X83350000Y-125750000D03*
X85150000Y-125750000D03*
X82600000Y-96000000D03*
X84400000Y-96000000D03*
X47900000Y-98000000D03*
X46100000Y-98000000D03*
X48650000Y-126750000D03*
X46850000Y-126750000D03*
X75850000Y-98250000D03*
X77650000Y-98250000D03*
X98350000Y-96000000D03*
X100150000Y-96000000D03*
X78150000Y-41750000D03*
X76350000Y-41750000D03*
D93*
X92250000Y-51850000D03*
X92250000Y-53650000D03*
X63750000Y-64850000D03*
X63750000Y-66650000D03*
D92*
X87100000Y-70250000D03*
X88900000Y-70250000D03*
D94*
X39250000Y-97750000D03*
X43500000Y-96500000D03*
X68000000Y-20250000D03*
X69750000Y-37250000D03*
X67250000Y-39000000D03*
X97500000Y-71750000D03*
X95750000Y-41750000D03*
X101500000Y-89750000D03*
X108750000Y-127000000D03*
X100000000Y-91250000D03*
X85500000Y-37250000D03*
X108750000Y-129000000D03*
D95*
X78000000Y-142250000D03*
X78000000Y-137750000D03*
X78000000Y-113000000D03*
X78000000Y-117500000D03*
X78000000Y-103000000D03*
X78000000Y-107500000D03*
X93000000Y-78000000D03*
X93000000Y-73500000D03*
D96*
X160000000Y-155000000D03*
X116000000Y-122000000D03*
X103000000Y-44000000D03*
D97*
X21000000Y-103500000D03*
X18000000Y-103500000D03*
D77*
X75425000Y-172000000D03*
D71*
X76575000Y-172400000D03*
X76575000Y-171600000D03*
D98*
X75800000Y-180400000D03*
X75800000Y-177600000D03*
D99*
X72550000Y-179000000D03*
D48*
X83750000Y-189000000D03*
X90250000Y-189000000D03*
D33*
X72600000Y-172000000D03*
X73500000Y-172000000D03*
D54*
X75550000Y-174000000D03*
X76450000Y-174000000D03*
D33*
X73750000Y-173600000D03*
D100*
X73000000Y-173600000D03*
D33*
X72250000Y-173600000D03*
X72250000Y-175400000D03*
D100*
X73000000Y-175400000D03*
D33*
X73750000Y-175400000D03*
D54*
X75550000Y-175500000D03*
X76450000Y-175500000D03*
D94*
X77750000Y-170000000D03*
D101*
G36*
X16535070Y-32314676D02*
X17685324Y-33464930D01*
X18069092Y-35000000D01*
X17685324Y-36535070D01*
X16535070Y-37685324D01*
X15000000Y-38069092D01*
X13464930Y-37685324D01*
X12314676Y-36535070D01*
X11930909Y-35000000D01*
X12314676Y-33464930D01*
X13464930Y-32314676D01*
X15000000Y-31930909D01*
X16535070Y-32314676D01*
X16535070Y-32314676D01*
G37*
X16535070Y-32314676D02*
X17685324Y-33464930D01*
X18069092Y-35000000D01*
X17685324Y-36535070D01*
X16535070Y-37685324D01*
X15000000Y-38069092D01*
X13464930Y-37685324D01*
X12314676Y-36535070D01*
X11930909Y-35000000D01*
X12314676Y-33464930D01*
X13464930Y-32314676D01*
X15000000Y-31930909D01*
X16535070Y-32314676D01*
G36*
X75623000Y-39373000D02*
X71377000Y-39373000D01*
X71377000Y-36627000D01*
X75623000Y-36627000D01*
X75623000Y-39373000D01*
X75623000Y-39373000D01*
G37*
X75623000Y-39373000D02*
X71377000Y-39373000D01*
X71377000Y-36627000D01*
X75623000Y-36627000D01*
X75623000Y-39373000D01*
M02*
