G04 #@! TF.FileFunction,Soldermask,Bot*
%FSLAX46Y46*%
G04 Gerber Fmt 4.6, Leading zero omitted, Abs format (unit mm)*
G04 Created by KiCad (PCBNEW (2016-09-03 BZR 7112, Git 24f6c4b)-product) date Mon Sep  5 22:12:06 2016*
%MOMM*%
%LPD*%
G01*
G04 APERTURE LIST*
%ADD10C,0.100000*%
%ADD11R,1.900000X1.900000*%
%ADD12C,2.000000*%
%ADD13C,1.500000*%
%ADD14R,2.686000X1.924000*%
%ADD15O,2.686000X1.924000*%
%ADD16O,1.924000X2.686000*%
%ADD17C,1.924000*%
%ADD18C,1.650000*%
%ADD19O,2.178000X1.700000*%
%ADD20C,2.750000*%
%ADD21C,1.400000*%
%ADD22R,1.400000X1.400000*%
%ADD23R,4.900000X2.400000*%
%ADD24O,5.400000X2.400000*%
%ADD25O,1.950000X1.950000*%
%ADD26O,1.650000X1.650000*%
%ADD27C,2.851100*%
%ADD28C,1.901140*%
%ADD29C,1.900000*%
%ADD30R,1.000000X1.050000*%
%ADD31R,1.050000X1.000000*%
%ADD32C,9.400000*%
%ADD33O,2.900000X2.300000*%
%ADD34C,4.400000*%
%ADD35R,1.924000X1.924000*%
%ADD36C,1.924000*%
%ADD37R,0.800000X0.850000*%
%ADD38R,0.850000X0.800000*%
%ADD39R,1.550000X1.850000*%
%ADD40C,0.254000*%
G04 APERTURE END LIST*
D10*
D11*
X4500000Y-15500060D03*
X4500000Y-11999940D03*
D12*
X33000000Y-89400000D03*
D13*
X33000000Y-22600000D03*
D14*
X98627000Y-84040000D03*
D15*
X98373000Y-81500000D03*
X98627000Y-78960000D03*
D16*
X121460000Y-197151000D03*
X124000000Y-196897000D03*
X126540000Y-197151000D03*
X121460000Y-194103000D03*
X124000000Y-193849000D03*
X126540000Y-194103000D03*
D14*
X195377000Y-79190000D03*
D15*
X195123000Y-81730000D03*
X195123000Y-84270000D03*
X195377000Y-86810000D03*
D14*
X3873000Y-118460000D03*
D15*
X4127000Y-121000000D03*
X3873000Y-123540000D03*
D10*
G36*
X94826683Y-20059984D02*
X95745349Y-17535969D01*
X97553317Y-18194016D01*
X96634651Y-20718031D01*
X94826683Y-20059984D01*
X94826683Y-20059984D01*
G37*
D17*
X98860310Y-18514977D02*
X98599690Y-19231023D01*
X101400310Y-18768977D02*
X101139690Y-19485023D01*
X103940310Y-18514977D02*
X103679690Y-19231023D01*
D18*
X101270000Y-16840000D03*
D14*
X101222000Y-28920000D03*
D15*
X101476000Y-31460000D03*
X101222000Y-34000000D03*
X101476000Y-36540000D03*
X101222000Y-39080000D03*
X104270000Y-28920000D03*
X104524000Y-31460000D03*
X104270000Y-34000000D03*
X104524000Y-36540000D03*
X104270000Y-39080000D03*
D19*
X3190000Y-169110000D03*
X3190000Y-171650000D03*
X3190000Y-174190000D03*
X3190000Y-176730000D03*
X3190000Y-179270000D03*
X3190000Y-181810000D03*
X3190000Y-184350000D03*
X3190000Y-186890000D03*
X10810000Y-186890000D03*
X10810000Y-184350000D03*
X10810000Y-181810000D03*
X10810000Y-179270000D03*
X10810000Y-176730000D03*
X10810000Y-174190000D03*
X10810000Y-171650000D03*
X10810000Y-169110000D03*
D20*
X33000000Y-182000000D03*
D21*
X34250000Y-193650000D03*
X36250000Y-192650000D03*
X34250000Y-191650000D03*
X36250000Y-190650000D03*
X34250000Y-189650000D03*
X36250000Y-188650000D03*
X34250000Y-187650000D03*
X36250000Y-186650000D03*
X34250000Y-185650000D03*
X36250000Y-184650000D03*
X34250000Y-183650000D03*
D22*
X31750000Y-193650000D03*
D21*
X29750000Y-192650000D03*
X31750000Y-191650000D03*
X29750000Y-190650000D03*
X31750000Y-189650000D03*
X29750000Y-188650000D03*
X31750000Y-187650000D03*
X29750000Y-186650000D03*
X31750000Y-185650000D03*
X29750000Y-184650000D03*
X31750000Y-183650000D03*
X36250000Y-180650000D03*
X34250000Y-179650000D03*
X36250000Y-178650000D03*
X34250000Y-177650000D03*
X36250000Y-176650000D03*
X34250000Y-175650000D03*
X36250000Y-174650000D03*
X34250000Y-173650000D03*
X36250000Y-172650000D03*
X34250000Y-171650000D03*
X36250000Y-170650000D03*
X34250000Y-169650000D03*
X36250000Y-168650000D03*
X34250000Y-167650000D03*
X36250000Y-166650000D03*
X34250000Y-165650000D03*
X36250000Y-164650000D03*
X34250000Y-163650000D03*
X36250000Y-162650000D03*
X34250000Y-161650000D03*
X36250000Y-160650000D03*
X34250000Y-159650000D03*
X36250000Y-158650000D03*
X34250000Y-157650000D03*
X36250000Y-156650000D03*
X34250000Y-155650000D03*
X36250000Y-154650000D03*
X34250000Y-153650000D03*
X36250000Y-152650000D03*
X34250000Y-151650000D03*
X36250000Y-150650000D03*
X34250000Y-149650000D03*
X36250000Y-148650000D03*
X34250000Y-147650000D03*
X36250000Y-146650000D03*
X34250000Y-145650000D03*
X36250000Y-144650000D03*
X34250000Y-143650000D03*
X29750000Y-180650000D03*
X31750000Y-179650000D03*
X29750000Y-178650000D03*
X31750000Y-177650000D03*
X29750000Y-176650000D03*
X31750000Y-175650000D03*
X29750000Y-174650000D03*
X31750000Y-173650000D03*
X29750000Y-172650000D03*
X31750000Y-171650000D03*
X29750000Y-170650000D03*
X31750000Y-169650000D03*
X29750000Y-168650000D03*
X31750000Y-167650000D03*
X29750000Y-166650000D03*
X31750000Y-165650000D03*
X29750000Y-164650000D03*
X31750000Y-163650000D03*
X29750000Y-162650000D03*
X31750000Y-161650000D03*
X29750000Y-160650000D03*
X31750000Y-159650000D03*
X29750000Y-158650000D03*
X31750000Y-157650000D03*
X29750000Y-156650000D03*
X31750000Y-155650000D03*
X29750000Y-154650000D03*
X31750000Y-153650000D03*
X29750000Y-152650000D03*
X31750000Y-151650000D03*
X29750000Y-150650000D03*
X31750000Y-149650000D03*
X29750000Y-148650000D03*
X31750000Y-147650000D03*
X29750000Y-146650000D03*
X31750000Y-145650000D03*
X29750000Y-144650000D03*
X31750000Y-143650000D03*
D20*
X33000000Y-141850000D03*
D23*
X14500000Y-14000000D03*
D24*
X14500000Y-8000000D03*
D25*
X71750000Y-1300000D03*
X64750000Y-1300000D03*
D26*
X70750000Y-4000000D03*
X65750000Y-4000000D03*
D27*
X180000000Y-30000000D03*
D28*
X176190000Y-92865000D03*
X181270000Y-92865000D03*
D27*
X180000000Y-94770000D03*
D28*
X178730000Y-91595000D03*
X183810000Y-91595000D03*
X176190000Y-90325000D03*
X176190000Y-87785000D03*
X176190000Y-85245000D03*
X176190000Y-82705000D03*
X176190000Y-80165000D03*
X176190000Y-77625000D03*
X176190000Y-75085000D03*
X176190000Y-72545000D03*
X176190000Y-70005000D03*
X176190000Y-67465000D03*
X176190000Y-64925000D03*
X176190000Y-62385000D03*
X176190000Y-59845000D03*
X176190000Y-57305000D03*
X176190000Y-54765000D03*
X178730000Y-89055000D03*
X178730000Y-86515000D03*
X178730000Y-83975000D03*
X178730000Y-81435000D03*
X178730000Y-78895000D03*
X178730000Y-76355000D03*
X178730000Y-73815000D03*
X178730000Y-71275000D03*
X178730000Y-68735000D03*
X178730000Y-66195000D03*
X178730000Y-63655000D03*
X178730000Y-61115000D03*
X178730000Y-58575000D03*
X178730000Y-56035000D03*
X178730000Y-53495000D03*
X176190000Y-52225000D03*
X178730000Y-50955000D03*
X176190000Y-49685000D03*
X178730000Y-48415000D03*
X176190000Y-47145000D03*
X178730000Y-45875000D03*
X176190000Y-44605000D03*
X178730000Y-43335000D03*
X176190000Y-42065000D03*
X178730000Y-40795000D03*
X176190000Y-39525000D03*
X178730000Y-38255000D03*
X176190000Y-36985000D03*
X178730000Y-35715000D03*
X176190000Y-34445000D03*
X178730000Y-33175000D03*
X176190000Y-31905000D03*
X178730000Y-28095000D03*
X176190000Y-26825000D03*
X178730000Y-25555000D03*
X176190000Y-24285000D03*
X178730000Y-23015000D03*
X176190000Y-21745000D03*
X178730000Y-20475000D03*
X176190000Y-19205000D03*
X178730000Y-17935000D03*
X176190000Y-16665000D03*
X178730000Y-15395000D03*
X181270000Y-90325000D03*
X183810000Y-89055000D03*
X181270000Y-87785000D03*
X183810000Y-86515000D03*
X181270000Y-85245000D03*
X183810000Y-83975000D03*
X181270000Y-82705000D03*
X183810000Y-81435000D03*
X181270000Y-80165000D03*
X183810000Y-78895000D03*
X181270000Y-77625000D03*
X183810000Y-76355000D03*
X181270000Y-75085000D03*
X183810000Y-73815000D03*
X181270000Y-72545000D03*
X183810000Y-71275000D03*
X181270000Y-70005000D03*
X183810000Y-68735000D03*
X181270000Y-67465000D03*
X183810000Y-66195000D03*
X181270000Y-64925000D03*
X183810000Y-63655000D03*
X181270000Y-62385000D03*
X183810000Y-61115000D03*
X181270000Y-59845000D03*
X183810000Y-58575000D03*
X181270000Y-57305000D03*
X183810000Y-56035000D03*
X181270000Y-54765000D03*
X183810000Y-53495000D03*
X181270000Y-52225000D03*
X183810000Y-50955000D03*
X181270000Y-49685000D03*
X183810000Y-48415000D03*
X181270000Y-47145000D03*
X183810000Y-45875000D03*
X181270000Y-44605000D03*
X183810000Y-43335000D03*
X181270000Y-42065000D03*
X183810000Y-40795000D03*
X181270000Y-39525000D03*
X183810000Y-38255000D03*
X181270000Y-36985000D03*
X183810000Y-35715000D03*
X181270000Y-34445000D03*
X183810000Y-33175000D03*
X181270000Y-31905000D03*
X183810000Y-28095000D03*
X181270000Y-26825000D03*
X183810000Y-25555000D03*
X181270000Y-24285000D03*
X183810000Y-23015000D03*
X181270000Y-21745000D03*
X183810000Y-20475000D03*
X181270000Y-19205000D03*
X183810000Y-17935000D03*
X181270000Y-16665000D03*
X183810000Y-15395000D03*
D27*
X159680000Y-30000000D03*
D28*
X155870000Y-92865000D03*
X160950000Y-92865000D03*
D27*
X159680000Y-94770000D03*
D28*
X158410000Y-91595000D03*
X163490000Y-91595000D03*
X155870000Y-90325000D03*
X155870000Y-87785000D03*
X155870000Y-85245000D03*
X155870000Y-82705000D03*
X155870000Y-80165000D03*
X155870000Y-77625000D03*
X155870000Y-75085000D03*
X155870000Y-72545000D03*
X155870000Y-70005000D03*
X155870000Y-67465000D03*
X155870000Y-64925000D03*
X155870000Y-62385000D03*
X155870000Y-59845000D03*
X155870000Y-57305000D03*
X155870000Y-54765000D03*
X158410000Y-89055000D03*
X158410000Y-86515000D03*
X158410000Y-83975000D03*
X158410000Y-81435000D03*
X158410000Y-78895000D03*
X158410000Y-76355000D03*
X158410000Y-73815000D03*
X158410000Y-71275000D03*
X158410000Y-68735000D03*
X158410000Y-66195000D03*
X158410000Y-63655000D03*
X158410000Y-61115000D03*
X158410000Y-58575000D03*
X158410000Y-56035000D03*
X158410000Y-53495000D03*
X155870000Y-52225000D03*
X158410000Y-50955000D03*
X155870000Y-49685000D03*
X158410000Y-48415000D03*
X155870000Y-47145000D03*
X158410000Y-45875000D03*
X155870000Y-44605000D03*
X158410000Y-43335000D03*
X155870000Y-42065000D03*
X158410000Y-40795000D03*
X155870000Y-39525000D03*
X158410000Y-38255000D03*
X155870000Y-36985000D03*
X158410000Y-35715000D03*
X155870000Y-34445000D03*
X158410000Y-33175000D03*
X155870000Y-31905000D03*
X158410000Y-28095000D03*
X155870000Y-26825000D03*
X158410000Y-25555000D03*
X155870000Y-24285000D03*
X158410000Y-23015000D03*
X155870000Y-21745000D03*
X158410000Y-20475000D03*
X155870000Y-19205000D03*
X158410000Y-17935000D03*
X155870000Y-16665000D03*
X158410000Y-15395000D03*
X160950000Y-90325000D03*
X163490000Y-89055000D03*
X160950000Y-87785000D03*
X163490000Y-86515000D03*
X160950000Y-85245000D03*
X163490000Y-83975000D03*
X160950000Y-82705000D03*
X163490000Y-81435000D03*
X160950000Y-80165000D03*
X163490000Y-78895000D03*
X160950000Y-77625000D03*
X163490000Y-76355000D03*
X160950000Y-75085000D03*
X163490000Y-73815000D03*
X160950000Y-72545000D03*
X163490000Y-71275000D03*
X160950000Y-70005000D03*
X163490000Y-68735000D03*
X160950000Y-67465000D03*
X163490000Y-66195000D03*
X160950000Y-64925000D03*
X163490000Y-63655000D03*
X160950000Y-62385000D03*
X163490000Y-61115000D03*
X160950000Y-59845000D03*
X163490000Y-58575000D03*
X160950000Y-57305000D03*
X163490000Y-56035000D03*
X160950000Y-54765000D03*
X163490000Y-53495000D03*
X160950000Y-52225000D03*
X163490000Y-50955000D03*
X160950000Y-49685000D03*
X163490000Y-48415000D03*
X160950000Y-47145000D03*
X163490000Y-45875000D03*
X160950000Y-44605000D03*
X163490000Y-43335000D03*
X160950000Y-42065000D03*
X163490000Y-40795000D03*
X160950000Y-39525000D03*
X163490000Y-38255000D03*
X160950000Y-36985000D03*
X163490000Y-35715000D03*
X160950000Y-34445000D03*
X163490000Y-33175000D03*
X160950000Y-31905000D03*
X163490000Y-28095000D03*
X160950000Y-26825000D03*
X163490000Y-25555000D03*
X160950000Y-24285000D03*
X163490000Y-23015000D03*
X160950000Y-21745000D03*
X163490000Y-20475000D03*
X160950000Y-19205000D03*
X163490000Y-17935000D03*
X160950000Y-16665000D03*
X163490000Y-15395000D03*
D27*
X139360000Y-30000000D03*
D28*
X135550000Y-92865000D03*
X140630000Y-92865000D03*
D27*
X139360000Y-94770000D03*
D28*
X138090000Y-91595000D03*
X143170000Y-91595000D03*
X135550000Y-90325000D03*
X135550000Y-87785000D03*
X135550000Y-85245000D03*
X135550000Y-82705000D03*
X135550000Y-80165000D03*
X135550000Y-77625000D03*
X135550000Y-75085000D03*
X135550000Y-72545000D03*
X135550000Y-70005000D03*
X135550000Y-67465000D03*
X135550000Y-64925000D03*
X135550000Y-62385000D03*
X135550000Y-59845000D03*
X135550000Y-57305000D03*
X135550000Y-54765000D03*
X138090000Y-89055000D03*
X138090000Y-86515000D03*
X138090000Y-83975000D03*
X138090000Y-81435000D03*
X138090000Y-78895000D03*
X138090000Y-76355000D03*
X138090000Y-73815000D03*
X138090000Y-71275000D03*
X138090000Y-68735000D03*
X138090000Y-66195000D03*
X138090000Y-63655000D03*
X138090000Y-61115000D03*
X138090000Y-58575000D03*
X138090000Y-56035000D03*
X138090000Y-53495000D03*
X135550000Y-52225000D03*
X138090000Y-50955000D03*
X135550000Y-49685000D03*
X138090000Y-48415000D03*
X135550000Y-47145000D03*
X138090000Y-45875000D03*
X135550000Y-44605000D03*
X138090000Y-43335000D03*
X135550000Y-42065000D03*
X138090000Y-40795000D03*
X135550000Y-39525000D03*
X138090000Y-38255000D03*
X135550000Y-36985000D03*
X138090000Y-35715000D03*
X135550000Y-34445000D03*
X138090000Y-33175000D03*
X135550000Y-31905000D03*
X138090000Y-28095000D03*
X135550000Y-26825000D03*
X138090000Y-25555000D03*
X135550000Y-24285000D03*
X138090000Y-23015000D03*
X135550000Y-21745000D03*
X138090000Y-20475000D03*
X135550000Y-19205000D03*
X138090000Y-17935000D03*
X135550000Y-16665000D03*
X138090000Y-15395000D03*
X140630000Y-90325000D03*
X143170000Y-89055000D03*
X140630000Y-87785000D03*
X143170000Y-86515000D03*
X140630000Y-85245000D03*
X143170000Y-83975000D03*
X140630000Y-82705000D03*
X143170000Y-81435000D03*
X140630000Y-80165000D03*
X143170000Y-78895000D03*
X140630000Y-77625000D03*
X143170000Y-76355000D03*
X140630000Y-75085000D03*
X143170000Y-73815000D03*
X140630000Y-72545000D03*
X143170000Y-71275000D03*
X140630000Y-70005000D03*
X143170000Y-68735000D03*
X140630000Y-67465000D03*
X143170000Y-66195000D03*
X140630000Y-64925000D03*
X143170000Y-63655000D03*
X140630000Y-62385000D03*
X143170000Y-61115000D03*
X140630000Y-59845000D03*
X143170000Y-58575000D03*
X140630000Y-57305000D03*
X143170000Y-56035000D03*
X140630000Y-54765000D03*
X143170000Y-53495000D03*
X140630000Y-52225000D03*
X143170000Y-50955000D03*
X140630000Y-49685000D03*
X143170000Y-48415000D03*
X140630000Y-47145000D03*
X143170000Y-45875000D03*
X140630000Y-44605000D03*
X143170000Y-43335000D03*
X140630000Y-42065000D03*
X143170000Y-40795000D03*
X140630000Y-39525000D03*
X143170000Y-38255000D03*
X140630000Y-36985000D03*
X143170000Y-35715000D03*
X140630000Y-34445000D03*
X143170000Y-33175000D03*
X140630000Y-31905000D03*
X143170000Y-28095000D03*
X140630000Y-26825000D03*
X143170000Y-25555000D03*
X140630000Y-24285000D03*
X143170000Y-23015000D03*
X140630000Y-21745000D03*
X143170000Y-20475000D03*
X140630000Y-19205000D03*
X143170000Y-17935000D03*
X140630000Y-16665000D03*
X143170000Y-15395000D03*
D27*
X119040000Y-30000000D03*
D28*
X115230000Y-92865000D03*
X120310000Y-92865000D03*
D27*
X119040000Y-94770000D03*
D28*
X117770000Y-91595000D03*
X122850000Y-91595000D03*
X115230000Y-90325000D03*
X115230000Y-87785000D03*
X115230000Y-85245000D03*
X115230000Y-82705000D03*
X115230000Y-80165000D03*
X115230000Y-77625000D03*
X115230000Y-75085000D03*
X115230000Y-72545000D03*
X115230000Y-70005000D03*
X115230000Y-67465000D03*
X115230000Y-64925000D03*
X115230000Y-62385000D03*
X115230000Y-59845000D03*
X115230000Y-57305000D03*
X115230000Y-54765000D03*
X117770000Y-89055000D03*
X117770000Y-86515000D03*
X117770000Y-83975000D03*
X117770000Y-81435000D03*
X117770000Y-78895000D03*
X117770000Y-76355000D03*
X117770000Y-73815000D03*
X117770000Y-71275000D03*
X117770000Y-68735000D03*
X117770000Y-66195000D03*
X117770000Y-63655000D03*
X117770000Y-61115000D03*
X117770000Y-58575000D03*
X117770000Y-56035000D03*
X117770000Y-53495000D03*
X115230000Y-52225000D03*
X117770000Y-50955000D03*
X115230000Y-49685000D03*
X117770000Y-48415000D03*
X115230000Y-47145000D03*
X117770000Y-45875000D03*
X115230000Y-44605000D03*
X117770000Y-43335000D03*
X115230000Y-42065000D03*
X117770000Y-40795000D03*
X115230000Y-39525000D03*
X117770000Y-38255000D03*
X115230000Y-36985000D03*
X117770000Y-35715000D03*
X115230000Y-34445000D03*
X117770000Y-33175000D03*
X115230000Y-31905000D03*
X117770000Y-28095000D03*
X115230000Y-26825000D03*
X117770000Y-25555000D03*
X115230000Y-24285000D03*
X117770000Y-23015000D03*
X115230000Y-21745000D03*
X117770000Y-20475000D03*
X115230000Y-19205000D03*
X117770000Y-17935000D03*
X115230000Y-16665000D03*
X117770000Y-15395000D03*
X120310000Y-90325000D03*
X122850000Y-89055000D03*
X120310000Y-87785000D03*
X122850000Y-86515000D03*
X120310000Y-85245000D03*
X122850000Y-83975000D03*
X120310000Y-82705000D03*
X122850000Y-81435000D03*
X120310000Y-80165000D03*
X122850000Y-78895000D03*
X120310000Y-77625000D03*
X122850000Y-76355000D03*
X120310000Y-75085000D03*
X122850000Y-73815000D03*
X120310000Y-72545000D03*
X122850000Y-71275000D03*
X120310000Y-70005000D03*
X122850000Y-68735000D03*
X120310000Y-67465000D03*
X122850000Y-66195000D03*
X120310000Y-64925000D03*
X122850000Y-63655000D03*
X120310000Y-62385000D03*
X122850000Y-61115000D03*
X120310000Y-59845000D03*
X122850000Y-58575000D03*
X120310000Y-57305000D03*
X122850000Y-56035000D03*
X120310000Y-54765000D03*
X122850000Y-53495000D03*
X120310000Y-52225000D03*
X122850000Y-50955000D03*
X120310000Y-49685000D03*
X122850000Y-48415000D03*
X120310000Y-47145000D03*
X122850000Y-45875000D03*
X120310000Y-44605000D03*
X122850000Y-43335000D03*
X120310000Y-42065000D03*
X122850000Y-40795000D03*
X120310000Y-39525000D03*
X122850000Y-38255000D03*
X120310000Y-36985000D03*
X122850000Y-35715000D03*
X120310000Y-34445000D03*
X122850000Y-33175000D03*
X120310000Y-31905000D03*
X122850000Y-28095000D03*
X120310000Y-26825000D03*
X122850000Y-25555000D03*
X120310000Y-24285000D03*
X122850000Y-23015000D03*
X120310000Y-21745000D03*
X122850000Y-20475000D03*
X120310000Y-19205000D03*
X122850000Y-17935000D03*
X120310000Y-16665000D03*
X122850000Y-15395000D03*
D11*
X150000000Y-27750320D03*
D29*
X150000000Y-30249680D03*
D11*
X191000000Y-27750320D03*
D29*
X191000000Y-30249680D03*
D11*
X191000000Y-20750320D03*
D29*
X191000000Y-23249680D03*
D11*
X170000000Y-66250320D03*
D29*
X170000000Y-68749680D03*
D11*
X170500000Y-34750320D03*
D29*
X170500000Y-37249680D03*
D11*
X170500000Y-27750320D03*
D29*
X170500000Y-30249680D03*
D11*
X170500000Y-20750320D03*
D29*
X170500000Y-23249680D03*
D11*
X149500000Y-66250320D03*
D29*
X149500000Y-68749680D03*
D11*
X150000000Y-34750320D03*
D29*
X150000000Y-37249680D03*
D11*
X150000000Y-20750320D03*
D29*
X150000000Y-23249680D03*
D11*
X129500000Y-66250320D03*
D29*
X129500000Y-68749680D03*
D11*
X130000000Y-34750320D03*
D29*
X130000000Y-37249680D03*
D11*
X130000000Y-27750320D03*
D29*
X130000000Y-30249680D03*
D11*
X130000000Y-20750320D03*
D29*
X130000000Y-23249680D03*
D11*
X190500000Y-66250320D03*
D29*
X190500000Y-68749680D03*
D11*
X130000000Y-13750320D03*
D29*
X130000000Y-16249680D03*
D11*
X150000000Y-13750320D03*
D29*
X150000000Y-16249680D03*
D11*
X170500000Y-13750320D03*
D29*
X170500000Y-16249680D03*
D11*
X191000000Y-34750320D03*
D29*
X191000000Y-37249680D03*
D11*
X191000000Y-13750320D03*
D29*
X191000000Y-16249680D03*
D30*
X174000000Y-76800000D03*
X174000000Y-77700000D03*
X153750000Y-76800000D03*
X153750000Y-77700000D03*
X113250000Y-76550000D03*
X113250000Y-77450000D03*
D31*
X176950000Y-30250000D03*
X176050000Y-30250000D03*
X176950000Y-28750000D03*
X176050000Y-28750000D03*
X156450000Y-30250000D03*
X155550000Y-30250000D03*
X156450000Y-28750000D03*
X155550000Y-28750000D03*
X136200000Y-30250000D03*
X135300000Y-30250000D03*
X136200000Y-28750000D03*
X135300000Y-28750000D03*
X115700000Y-30250000D03*
X114800000Y-30250000D03*
X115700000Y-28750000D03*
X114800000Y-28750000D03*
D30*
X133500000Y-76800000D03*
X133500000Y-77700000D03*
D11*
X191000000Y-91750320D03*
D29*
X191000000Y-94249680D03*
D11*
X170000000Y-91750320D03*
D29*
X170000000Y-94249680D03*
D11*
X149500000Y-91750320D03*
D29*
X149500000Y-94249680D03*
D11*
X129500000Y-91750320D03*
D29*
X129500000Y-94249680D03*
D11*
X22000000Y-162249940D03*
D29*
X22000000Y-165750060D03*
D11*
X22000000Y-151249940D03*
D29*
X22000000Y-154750060D03*
D11*
X22000000Y-186249940D03*
D29*
X22000000Y-189750060D03*
D11*
X22000000Y-172249940D03*
D29*
X22000000Y-175750060D03*
D32*
X119000000Y-104000000D03*
D21*
X122000000Y-104000000D03*
X120500000Y-106600000D03*
X117500000Y-106600000D03*
X116000000Y-104000000D03*
X117500000Y-101400000D03*
X120500000Y-101400000D03*
D32*
X78000000Y-130000000D03*
D21*
X81000000Y-130000000D03*
X79500000Y-132600000D03*
X76500000Y-132600000D03*
X75000000Y-130000000D03*
X76500000Y-127400000D03*
X79500000Y-127400000D03*
D32*
X33000000Y-104000000D03*
D21*
X36000000Y-104000000D03*
X34500000Y-106600000D03*
X31500000Y-106600000D03*
X30000000Y-104000000D03*
X31500000Y-101400000D03*
X34500000Y-101400000D03*
D32*
X92000000Y-32000000D03*
D21*
X95000000Y-32000000D03*
X93500000Y-34600000D03*
X90500000Y-34600000D03*
X89000000Y-32000000D03*
X90500000Y-29400000D03*
X93500000Y-29400000D03*
D33*
X61700000Y-196160000D03*
X61700000Y-193620000D03*
X61700000Y-180920000D03*
X61700000Y-178380000D03*
X61700000Y-175840000D03*
X50700000Y-196160000D03*
X50700000Y-193620000D03*
X50700000Y-180920000D03*
X50700000Y-178380000D03*
X50700000Y-175840000D03*
D34*
X49827000Y-9500000D03*
X24427000Y-9500000D03*
D35*
X42588000Y-10770000D03*
D36*
X39794000Y-10770000D03*
X37000000Y-10770000D03*
X34333000Y-10770000D03*
X31539000Y-10770000D03*
X32936000Y-8230000D03*
X35730000Y-8230000D03*
X38397000Y-8230000D03*
X41191000Y-8230000D03*
D32*
X150000000Y-6000000D03*
D21*
X153000000Y-6000000D03*
X151500000Y-8600000D03*
X148500000Y-8600000D03*
X147000000Y-6000000D03*
X148500000Y-3400000D03*
X151500000Y-3400000D03*
D32*
X193000000Y-124000000D03*
D21*
X196000000Y-124000000D03*
X194500000Y-126600000D03*
X191500000Y-126600000D03*
X190000000Y-124000000D03*
X191500000Y-121400000D03*
X194500000Y-121400000D03*
D32*
X73000000Y-187000000D03*
D21*
X76000000Y-187000000D03*
X74500000Y-189600000D03*
X71500000Y-189600000D03*
X70000000Y-187000000D03*
X71500000Y-184400000D03*
X74500000Y-184400000D03*
D37*
X78000000Y-48550000D03*
X78000000Y-49250000D03*
D38*
X67100000Y-48000000D03*
X66400000Y-48000000D03*
D37*
X71000000Y-52650000D03*
X71000000Y-53350000D03*
X67300000Y-63150000D03*
X67300000Y-63850000D03*
X79250000Y-60150000D03*
X79250000Y-60850000D03*
X85750000Y-64900000D03*
X85750000Y-65600000D03*
D38*
X82650000Y-62650000D03*
X83350000Y-62650000D03*
D37*
X88250000Y-63650000D03*
X88250000Y-64350000D03*
X88700000Y-46950000D03*
X88700000Y-46250000D03*
X71000000Y-57650000D03*
X71000000Y-58350000D03*
D38*
X85400000Y-44000000D03*
X86100000Y-44000000D03*
D37*
X88000000Y-53350000D03*
X88000000Y-52650000D03*
D38*
X75650000Y-46000000D03*
X76350000Y-46000000D03*
X87650000Y-67100000D03*
X88350000Y-67100000D03*
X71150000Y-56400000D03*
X71850000Y-56400000D03*
X67550000Y-48900000D03*
X68250000Y-48900000D03*
D37*
X77000000Y-55650000D03*
X77000000Y-56350000D03*
D38*
X78350000Y-54000000D03*
X77650000Y-54000000D03*
X78350000Y-59000000D03*
X77650000Y-59000000D03*
X77650000Y-53000000D03*
X78350000Y-53000000D03*
D37*
X79000000Y-56350000D03*
X79000000Y-55650000D03*
D38*
X77650000Y-58000000D03*
X78350000Y-58000000D03*
D37*
X75000000Y-55650000D03*
X75000000Y-56350000D03*
X81000000Y-56350000D03*
X81000000Y-55650000D03*
X71750000Y-51600000D03*
X71750000Y-50900000D03*
D38*
X74100000Y-53750000D03*
X73400000Y-53750000D03*
D10*
G36*
X70234835Y-49330850D02*
X69669150Y-48765165D01*
X70270191Y-48164124D01*
X70835876Y-48729809D01*
X70234835Y-49330850D01*
X70234835Y-49330850D01*
G37*
G36*
X70729809Y-48835876D02*
X70164124Y-48270191D01*
X70765165Y-47669150D01*
X71330850Y-48234835D01*
X70729809Y-48835876D01*
X70729809Y-48835876D01*
G37*
D38*
X73650000Y-63000000D03*
X74350000Y-63000000D03*
X69100000Y-56250000D03*
X68400000Y-56250000D03*
X71150000Y-68000000D03*
X71850000Y-68000000D03*
X67750000Y-45800000D03*
X68450000Y-45800000D03*
X81100000Y-62250000D03*
X80400000Y-62250000D03*
D37*
X68000000Y-59650000D03*
X68000000Y-60350000D03*
X73000000Y-56650000D03*
X73000000Y-57350000D03*
D38*
X70750000Y-61750000D03*
X71450000Y-61750000D03*
X71550000Y-46000000D03*
X72250000Y-46000000D03*
X72450000Y-63300000D03*
X71750000Y-63300000D03*
D37*
X78000000Y-50400000D03*
X78000000Y-51100000D03*
D38*
X73650000Y-49000000D03*
X74350000Y-49000000D03*
X67650000Y-66750000D03*
X68350000Y-66750000D03*
X75400000Y-59750000D03*
X76100000Y-59750000D03*
D37*
X74000000Y-60350000D03*
X74000000Y-59650000D03*
D38*
X84100000Y-58250000D03*
X83400000Y-58250000D03*
X73850000Y-51250000D03*
X73150000Y-51250000D03*
X87400000Y-56250000D03*
X88100000Y-56250000D03*
D37*
X70575000Y-49750000D03*
X70575000Y-50450000D03*
X85000000Y-53650000D03*
X85000000Y-54350000D03*
D10*
G36*
X86830850Y-60265165D02*
X86265165Y-60830850D01*
X85664124Y-60229809D01*
X86229809Y-59664124D01*
X86830850Y-60265165D01*
X86830850Y-60265165D01*
G37*
G36*
X86335876Y-59770191D02*
X85770191Y-60335876D01*
X85169150Y-59734835D01*
X85734835Y-59169150D01*
X86335876Y-59770191D01*
X86335876Y-59770191D01*
G37*
G36*
X84169150Y-60734835D02*
X84734835Y-60169150D01*
X85335876Y-60770191D01*
X84770191Y-61335876D01*
X84169150Y-60734835D01*
X84169150Y-60734835D01*
G37*
G36*
X84664124Y-61229809D02*
X85229809Y-60664124D01*
X85830850Y-61265165D01*
X85265165Y-61830850D01*
X84664124Y-61229809D01*
X84664124Y-61229809D01*
G37*
D37*
X89750000Y-59900000D03*
X89750000Y-60600000D03*
D38*
X81900000Y-57250000D03*
X82600000Y-57250000D03*
X81750000Y-54000000D03*
X82450000Y-54000000D03*
X61650000Y-109000000D03*
X62350000Y-109000000D03*
X61650000Y-107000000D03*
X62350000Y-107000000D03*
X62350000Y-111000000D03*
X61650000Y-111000000D03*
X62350000Y-113000000D03*
X61650000Y-113000000D03*
D37*
X64000000Y-109650000D03*
X64000000Y-110350000D03*
X60000000Y-110350000D03*
X60000000Y-109650000D03*
X65000000Y-110350000D03*
X65000000Y-109650000D03*
X59000000Y-109650000D03*
X59000000Y-110350000D03*
X91000000Y-109650000D03*
X91000000Y-110350000D03*
X92000000Y-110350000D03*
X92000000Y-109650000D03*
D38*
X94350000Y-113000000D03*
X93650000Y-113000000D03*
D37*
X97000000Y-110350000D03*
X97000000Y-109650000D03*
D38*
X94350000Y-111000000D03*
X93650000Y-111000000D03*
D37*
X96000000Y-109650000D03*
X96000000Y-110350000D03*
D38*
X93650000Y-107000000D03*
X94350000Y-107000000D03*
X93650000Y-109000000D03*
X94350000Y-109000000D03*
X93850000Y-103750000D03*
X93150000Y-103750000D03*
X52650000Y-100000000D03*
X53350000Y-100000000D03*
D10*
G36*
X101830850Y-104265165D02*
X101265165Y-104830850D01*
X100664124Y-104229809D01*
X101229809Y-103664124D01*
X101830850Y-104265165D01*
X101830850Y-104265165D01*
G37*
G36*
X101335876Y-103770191D02*
X100770191Y-104335876D01*
X100169150Y-103734835D01*
X100734835Y-103169150D01*
X101335876Y-103770191D01*
X101335876Y-103770191D01*
G37*
D38*
X98350000Y-103000000D03*
X97650000Y-103000000D03*
D37*
X95750000Y-106100000D03*
X95750000Y-105400000D03*
D38*
X100350000Y-100500000D03*
X99650000Y-100500000D03*
D10*
G36*
X69830850Y-104265165D02*
X69265165Y-104830850D01*
X68664124Y-104229809D01*
X69229809Y-103664124D01*
X69830850Y-104265165D01*
X69830850Y-104265165D01*
G37*
G36*
X69335876Y-103770191D02*
X68770191Y-104335876D01*
X68169150Y-103734835D01*
X68734835Y-103169150D01*
X69335876Y-103770191D01*
X69335876Y-103770191D01*
G37*
D37*
X90750000Y-102350000D03*
X90750000Y-101650000D03*
X94750000Y-102600000D03*
X94750000Y-101900000D03*
D38*
X69350000Y-102000000D03*
X68650000Y-102000000D03*
X89350000Y-103000000D03*
X88650000Y-103000000D03*
X68350000Y-100000000D03*
X67650000Y-100000000D03*
X104350000Y-99750000D03*
X103650000Y-99750000D03*
X85400000Y-101750000D03*
X86100000Y-101750000D03*
X66350000Y-103000000D03*
X65650000Y-103000000D03*
X61150000Y-100000000D03*
X61850000Y-100000000D03*
X101350000Y-102000000D03*
X100650000Y-102000000D03*
X64600000Y-105000000D03*
X63900000Y-105000000D03*
X72350000Y-100000000D03*
X71650000Y-100000000D03*
X61850000Y-103750000D03*
X61150000Y-103750000D03*
X56650000Y-100000000D03*
X57350000Y-100000000D03*
D10*
G36*
X54169150Y-102734835D02*
X54734835Y-102169150D01*
X55335876Y-102770191D01*
X54770191Y-103335876D01*
X54169150Y-102734835D01*
X54169150Y-102734835D01*
G37*
G36*
X54664124Y-103229809D02*
X55229809Y-102664124D01*
X55830850Y-103265165D01*
X55265165Y-103830850D01*
X54664124Y-103229809D01*
X54664124Y-103229809D01*
G37*
D37*
X90750000Y-103400000D03*
X90750000Y-104100000D03*
X88000000Y-107650000D03*
X88000000Y-108350000D03*
X90000000Y-109350000D03*
X90000000Y-108650000D03*
X84000000Y-107650000D03*
X84000000Y-108350000D03*
D38*
X88150000Y-112750000D03*
X88850000Y-112750000D03*
D37*
X87000000Y-107350000D03*
X87000000Y-106650000D03*
X83250000Y-99900000D03*
X83250000Y-100600000D03*
X89000000Y-105650000D03*
X89000000Y-106350000D03*
D38*
X84650000Y-103000000D03*
X85350000Y-103000000D03*
X85350000Y-105000000D03*
X84650000Y-105000000D03*
D37*
X87000000Y-102650000D03*
X87000000Y-103350000D03*
X56000000Y-110350000D03*
X56000000Y-109650000D03*
D10*
G36*
X54265165Y-101169150D02*
X54830850Y-101734835D01*
X54229809Y-102335876D01*
X53664124Y-101770191D01*
X54265165Y-101169150D01*
X54265165Y-101169150D01*
G37*
G36*
X53770191Y-101664124D02*
X54335876Y-102229809D01*
X53734835Y-102830850D01*
X53169150Y-102265165D01*
X53770191Y-101664124D01*
X53770191Y-101664124D01*
G37*
D37*
X57000000Y-110650000D03*
X57000000Y-111350000D03*
X55000000Y-112350000D03*
X55000000Y-111650000D03*
D38*
X55900000Y-108000000D03*
X56600000Y-108000000D03*
D37*
X52000000Y-110850000D03*
X52000000Y-110150000D03*
D10*
G36*
X53484835Y-105080850D02*
X52919150Y-104515165D01*
X53520191Y-103914124D01*
X54085876Y-104479809D01*
X53484835Y-105080850D01*
X53484835Y-105080850D01*
G37*
G36*
X53979809Y-104585876D02*
X53414124Y-104020191D01*
X54015165Y-103419150D01*
X54580850Y-103984835D01*
X53979809Y-104585876D01*
X53979809Y-104585876D01*
G37*
D37*
X87000000Y-112350000D03*
X87000000Y-111650000D03*
X52000000Y-102350000D03*
X52000000Y-101650000D03*
D10*
G36*
X58984835Y-106580850D02*
X58419150Y-106015165D01*
X59020191Y-105414124D01*
X59585876Y-105979809D01*
X58984835Y-106580850D01*
X58984835Y-106580850D01*
G37*
G36*
X59479809Y-106085876D02*
X58914124Y-105520191D01*
X59515165Y-104919150D01*
X60080850Y-105484835D01*
X59479809Y-106085876D01*
X59479809Y-106085876D01*
G37*
G36*
X56265165Y-105169150D02*
X56830850Y-105734835D01*
X56229809Y-106335876D01*
X55664124Y-105770191D01*
X56265165Y-105169150D01*
X56265165Y-105169150D01*
G37*
G36*
X55770191Y-105664124D02*
X56335876Y-106229809D01*
X55734835Y-106830850D01*
X55169150Y-106265165D01*
X55770191Y-105664124D01*
X55770191Y-105664124D01*
G37*
D37*
X52000000Y-103650000D03*
X52000000Y-104350000D03*
X58750000Y-103150000D03*
X58750000Y-103850000D03*
D38*
X88650000Y-110250000D03*
X89350000Y-110250000D03*
D37*
X94000000Y-114850000D03*
X94000000Y-114150000D03*
X93000000Y-118350000D03*
X93000000Y-117650000D03*
D38*
X93150000Y-119750000D03*
X93850000Y-119750000D03*
X89350000Y-117000000D03*
X88650000Y-117000000D03*
D37*
X91000000Y-117400000D03*
X91000000Y-118100000D03*
D38*
X88350000Y-119000000D03*
X87650000Y-119000000D03*
D37*
X84000000Y-110850000D03*
X84000000Y-110150000D03*
D38*
X96900000Y-119750000D03*
X97600000Y-119750000D03*
D37*
X84000000Y-115350000D03*
X84000000Y-114650000D03*
D38*
X99650000Y-116000000D03*
X100350000Y-116000000D03*
X86150000Y-115750000D03*
X86850000Y-115750000D03*
X65650000Y-112250000D03*
X66350000Y-112250000D03*
X56350000Y-119000000D03*
X55650000Y-119000000D03*
X57350000Y-116750000D03*
X56650000Y-116750000D03*
D37*
X52000000Y-116650000D03*
X52000000Y-117350000D03*
D38*
X60350000Y-119000000D03*
X59650000Y-119000000D03*
X66350000Y-116500000D03*
X65650000Y-116500000D03*
X63350000Y-119000000D03*
X62650000Y-119000000D03*
D37*
X52000000Y-112650000D03*
X52000000Y-113350000D03*
D38*
X65150000Y-114750000D03*
X65850000Y-114750000D03*
D37*
X62000000Y-114850000D03*
X62000000Y-114150000D03*
D10*
G36*
X69169150Y-113734835D02*
X69734835Y-113169150D01*
X70335876Y-113770191D01*
X69770191Y-114335876D01*
X69169150Y-113734835D01*
X69169150Y-113734835D01*
G37*
G36*
X69664124Y-114229809D02*
X70229809Y-113664124D01*
X70830850Y-114265165D01*
X70265165Y-114830850D01*
X69664124Y-114229809D01*
X69664124Y-114229809D01*
G37*
D38*
X67350000Y-119000000D03*
X66650000Y-119000000D03*
D37*
X104000000Y-116900000D03*
X104000000Y-117600000D03*
X104000000Y-107650000D03*
X104000000Y-108350000D03*
D38*
X97900000Y-111750000D03*
X98600000Y-111750000D03*
D37*
X104750000Y-102850000D03*
X104750000Y-102150000D03*
X101000000Y-110150000D03*
X101000000Y-110850000D03*
D38*
X100850000Y-108250000D03*
X100150000Y-108250000D03*
X104600000Y-120000000D03*
X103900000Y-120000000D03*
D37*
X98750000Y-108150000D03*
X98750000Y-108850000D03*
X98000000Y-112650000D03*
X98000000Y-113350000D03*
X104000000Y-112650000D03*
X104000000Y-113350000D03*
X100000000Y-118350000D03*
X100000000Y-117650000D03*
D38*
X103350000Y-115000000D03*
X102650000Y-115000000D03*
X68650000Y-119000000D03*
X69350000Y-119000000D03*
D37*
X72750000Y-102850000D03*
X72750000Y-102150000D03*
X72000000Y-106350000D03*
X72000000Y-105650000D03*
X66000000Y-105650000D03*
X66000000Y-106350000D03*
X66000000Y-109650000D03*
X66000000Y-110350000D03*
X69000000Y-105650000D03*
X69000000Y-106350000D03*
D38*
X70350000Y-116000000D03*
X69650000Y-116000000D03*
X68850000Y-108250000D03*
X68150000Y-108250000D03*
D37*
X68750000Y-113350000D03*
X68750000Y-112650000D03*
X72000000Y-107650000D03*
X72000000Y-108350000D03*
X71250000Y-118850000D03*
X71250000Y-118150000D03*
X72000000Y-112650000D03*
X72000000Y-113350000D03*
D39*
X99100000Y-106500000D03*
X100900000Y-106500000D03*
X81100000Y-60250000D03*
X82900000Y-60250000D03*
X68100000Y-110500000D03*
X69900000Y-110500000D03*
D37*
X75000000Y-50400000D03*
X75000000Y-51100000D03*
X78250000Y-60850000D03*
X78250000Y-60150000D03*
D29*
X83750000Y-189000000D03*
X90250000Y-189000000D03*
D40*
G36*
X16535070Y-32314676D02*
X17685324Y-33464930D01*
X18069092Y-35000000D01*
X17685324Y-36535070D01*
X16535070Y-37685324D01*
X15000000Y-38069092D01*
X13464930Y-37685324D01*
X12314676Y-36535070D01*
X11930909Y-35000000D01*
X12314676Y-33464930D01*
X13464930Y-32314676D01*
X15000000Y-31930909D01*
X16535070Y-32314676D01*
X16535070Y-32314676D01*
G37*
X16535070Y-32314676D02*
X17685324Y-33464930D01*
X18069092Y-35000000D01*
X17685324Y-36535070D01*
X16535070Y-37685324D01*
X15000000Y-38069092D01*
X13464930Y-37685324D01*
X12314676Y-36535070D01*
X11930909Y-35000000D01*
X12314676Y-33464930D01*
X13464930Y-32314676D01*
X15000000Y-31930909D01*
X16535070Y-32314676D01*
M02*
